<svg width="67" height="57" viewBox="0 0 67 57" fill="none" xmlns="http://www.w3.org/2000/svg">
<g filter="url(#filter0_d_361_98)">
<rect x="5.02441" y="1.5625" width="56.293" height="39.875" rx="10" fill="url(#paint0_linear_361_98)" fill-opacity="0.18" shape-rendering="crispEdges"/>
<rect x="5.02441" y="1.5625" width="56.293" height="39.875" rx="10" fill="black" fill-opacity="0.2" shape-rendering="crispEdges"/>
<rect x="4.52441" y="1.0625" width="57.293" height="40.875" rx="10.5" stroke="url(#paint1_linear_361_98)" shape-rendering="crispEdges"/>
<path d="M31.3105 22.0908H35.0312L33.1709 17.6182L31.3105 22.0908ZM33.1709 10.5625L23.0244 14.1953L24.5771 27.6572L33.1709 32.4375L41.7646 27.6572L43.3174 14.1953L33.1709 10.5625ZM39.5283 27.252H37.1553L35.876 24.0586H30.4756L29.1963 27.252H26.8184L33.1709 12.9795L39.5283 27.252Z" fill="url(#paint2_linear_361_98)"/>
</g>
<defs>
<filter id="filter0_d_361_98" x="0.0244141" y="0.5625" width="66.293" height="55.875" filterUnits="userSpaceOnUse" color-interpolation-filters="sRGB">
<feFlood flood-opacity="0" result="BackgroundImageFix"/>
<feColorMatrix in="SourceAlpha" type="matrix" values="0 0 0 0 0 0 0 0 0 0 0 0 0 0 0 0 0 0 127 0" result="hardAlpha"/>
<feOffset dy="10"/>
<feGaussianBlur stdDeviation="2"/>
<feComposite in2="hardAlpha" operator="out"/>
<feColorMatrix type="matrix" values="0 0 0 0 0 0 0 0 0 0 0 0 0 0 0 0 0 0 0.25 0"/>
<feBlend mode="normal" in2="BackgroundImageFix" result="effect1_dropShadow_361_98"/>
<feBlend mode="normal" in="SourceGraphic" in2="effect1_dropShadow_361_98" result="shape"/>
</filter>
<linearGradient id="paint0_linear_361_98" x1="5.02441" y1="21.5" x2="61.3174" y2="21.5" gradientUnits="userSpaceOnUse">
<stop stop-color="#D9D9D9"/>
<stop offset="1" stop-color="#737373"/>
</linearGradient>
<linearGradient id="paint1_linear_361_98" x1="5.02441" y1="21.5" x2="61.3174" y2="21.5" gradientUnits="userSpaceOnUse">
<stop stop-color="#14A3A3"/>
<stop offset="0.5" stop-color="white"/>
<stop offset="1" stop-color="#0D6549"/>
</linearGradient>
<linearGradient id="paint2_linear_361_98" x1="33.1709" y1="10.5625" x2="33.1709" y2="32.4375" gradientUnits="userSpaceOnUse">
<stop stop-color="white"/>
<stop offset="1" stop-color="#999999"/>
</linearGradient>
</defs>
</svg>
