<svg width="205" height="47" viewBox="0 0 205 47" fill="none" xmlns="http://www.w3.org/2000/svg">
<rect x="0.5" y="0.5" width="204" height="46" rx="15.5" fill="#D9D9D9" fill-opacity="0.15"/>
<rect x="0.5" y="0.5" width="204" height="46" rx="15.5" stroke="url(#paint0_linear_365_664)"/>
<g filter="url(#filter1_d_365_664)">
<path d="M41.3425 29.5L45.1505 19.07H46.3545L50.1625 29.5H48.9865L48.0905 26.952H43.4285L42.5185 29.5H41.3425ZM43.7925 25.902H47.6985L45.5845 19.91H45.9205L43.7925 25.902ZM51.3993 29.5V21.996H52.4493V23.452L52.2113 23.396C52.398 22.9107 52.7013 22.528 53.1213 22.248C53.5506 21.968 54.0453 21.828 54.6053 21.828C55.1373 21.828 55.6133 21.9493 56.0333 22.192C56.4626 22.4347 56.7986 22.7707 57.0413 23.2C57.2933 23.62 57.4193 24.096 57.4193 24.628V29.5H56.3693V25.034C56.3693 24.5767 56.2853 24.1893 56.1173 23.872C55.9586 23.5547 55.73 23.312 55.4313 23.144C55.142 22.9667 54.806 22.878 54.4233 22.878C54.0406 22.878 53.7 22.9667 53.4013 23.144C53.1026 23.312 52.8693 23.5593 52.7013 23.886C52.5333 24.2033 52.4493 24.586 52.4493 25.034V29.5H51.3993ZM59.4247 29.5V21.996H60.4747V29.5H59.4247ZM59.4247 20.61V19.07H60.4747V20.61H59.4247ZM62.6239 29.5V21.996H63.6739V23.424L63.5059 23.214C63.7112 22.7753 64.0146 22.4347 64.4159 22.192C64.8266 21.9493 65.2746 21.828 65.7599 21.828C66.3386 21.828 66.8612 21.9913 67.3279 22.318C67.7946 22.6447 68.1259 23.0693 68.3219 23.592L68.0279 23.606C68.2146 23.0273 68.5366 22.5887 68.9939 22.29C69.4606 21.982 69.9739 21.828 70.5339 21.828C71.0379 21.828 71.4999 21.9493 71.9199 22.192C72.3492 22.4347 72.6899 22.7707 72.9419 23.2C73.2032 23.62 73.3339 24.096 73.3339 24.628V29.5H72.2839V25.034C72.2839 24.5767 72.1999 24.1893 72.0319 23.872C71.8732 23.5547 71.6539 23.312 71.3739 23.144C71.0939 22.9667 70.7719 22.878 70.4079 22.878C70.0532 22.878 69.7312 22.9667 69.4419 23.144C69.1526 23.312 68.9239 23.5593 68.7559 23.886C68.5879 24.2033 68.5039 24.586 68.5039 25.034V29.5H67.4539V25.034C67.4539 24.5767 67.3699 24.1893 67.2019 23.872C67.0432 23.5547 66.8239 23.312 66.5439 23.144C66.2639 22.9667 65.9419 22.878 65.5779 22.878C65.2139 22.878 64.8872 22.9667 64.5979 23.144C64.3179 23.312 64.0939 23.5593 63.9259 23.886C63.7579 24.2033 63.6739 24.586 63.6739 25.034V29.5H62.6239ZM77.5087 29.668C77.0327 29.668 76.6081 29.5793 76.2347 29.402C75.8614 29.2153 75.5674 28.9633 75.3527 28.646C75.1381 28.3287 75.0307 27.9647 75.0307 27.554C75.0307 27.162 75.1147 26.8073 75.2827 26.49C75.4507 26.1633 75.7121 25.888 76.0667 25.664C76.4214 25.44 76.8741 25.2813 77.4247 25.188L80.3647 24.698V25.65L77.6767 26.098C77.1354 26.1913 76.7434 26.364 76.5007 26.616C76.2674 26.868 76.1507 27.1667 76.1507 27.512C76.1507 27.848 76.2814 28.1327 76.5427 28.366C76.8134 28.5993 77.1587 28.716 77.5787 28.716C78.0921 28.716 78.5401 28.6087 78.9227 28.394C79.3054 28.17 79.6041 27.8713 79.8187 27.498C80.0334 27.1247 80.1407 26.7093 80.1407 26.252V24.348C80.1407 23.9 79.9774 23.536 79.6507 23.256C79.3241 22.976 78.8994 22.836 78.3767 22.836C77.9194 22.836 77.5181 22.9527 77.1727 23.186C76.8274 23.41 76.5707 23.704 76.4027 24.068L75.4507 23.55C75.5907 23.2327 75.8101 22.9433 76.1087 22.682C76.4167 22.4207 76.7667 22.2153 77.1587 22.066C77.5507 21.9073 77.9567 21.828 78.3767 21.828C78.9274 21.828 79.4127 21.9353 79.8327 22.15C80.2621 22.3647 80.5934 22.6633 80.8267 23.046C81.0694 23.4193 81.1907 23.8533 81.1907 24.348V29.5H80.1407V28.002L80.2947 28.156C80.1641 28.436 79.9587 28.6927 79.6787 28.926C79.4081 29.15 79.0861 29.332 78.7127 29.472C78.3487 29.6027 77.9474 29.668 77.5087 29.668ZM86.7805 29.668C86.0431 29.668 85.3945 29.4953 84.8345 29.15C84.2745 28.8047 83.8358 28.338 83.5185 27.75C83.2011 27.1527 83.0425 26.4807 83.0425 25.734C83.0425 24.9873 83.2011 24.32 83.5185 23.732C83.8358 23.144 84.2745 22.682 84.8345 22.346C85.3945 22.0007 86.0431 21.828 86.7805 21.828C87.2471 21.828 87.6858 21.912 88.0965 22.08C88.5071 22.248 88.8711 22.4767 89.1885 22.766C89.5058 23.046 89.7438 23.3727 89.9025 23.746L88.9505 24.236C88.7638 23.8347 88.4791 23.508 88.0965 23.256C87.7138 23.004 87.2751 22.878 86.7805 22.878C86.2858 22.878 85.8378 23.004 85.4365 23.256C85.0445 23.4987 84.7318 23.8393 84.4985 24.278C84.2745 24.7073 84.1625 25.1973 84.1625 25.748C84.1625 26.2893 84.2745 26.7793 84.4985 27.218C84.7318 27.6473 85.0445 27.988 85.4365 28.24C85.8378 28.492 86.2858 28.618 86.7805 28.618C87.2751 28.618 87.7091 28.492 88.0825 28.24C88.4651 27.988 88.7545 27.652 88.9505 27.232L89.9025 27.75C89.7438 28.114 89.5058 28.4407 89.1885 28.73C88.8711 29.0193 88.5071 29.248 88.0965 29.416C87.6858 29.584 87.2471 29.668 86.7805 29.668ZM86.9485 32.72C86.6778 32.72 86.4071 32.6733 86.1365 32.58C85.8751 32.4867 85.6605 32.3607 85.4925 32.202L85.7865 31.46C85.9265 31.5907 86.0851 31.6933 86.2625 31.768C86.4491 31.8427 86.6311 31.88 86.8085 31.88C87.0138 31.88 87.1771 31.824 87.2985 31.712C87.4291 31.6093 87.4945 31.474 87.4945 31.306C87.4945 31.0913 87.3871 30.9233 87.1725 30.802C86.9578 30.6807 86.6078 30.592 86.1225 30.536L86.4585 29.36H87.2145L87.0325 30.032C87.5178 30.1347 87.8818 30.298 88.1245 30.522C88.3765 30.7553 88.5025 31.04 88.5025 31.376C88.5025 31.768 88.3531 32.09 88.0545 32.342C87.7651 32.594 87.3965 32.72 86.9485 32.72ZM95.259 29.668C94.5497 29.668 93.9057 29.5 93.327 29.164C92.7483 28.8187 92.2863 28.352 91.941 27.764C91.605 27.1667 91.437 26.49 91.437 25.734C91.437 24.9873 91.605 24.32 91.941 23.732C92.277 23.144 92.7297 22.682 93.299 22.346C93.8777 22.0007 94.531 21.828 95.259 21.828C95.987 21.828 96.6357 21.996 97.205 22.332C97.7837 22.668 98.2363 23.13 98.563 23.718C98.899 24.306 99.067 24.978 99.067 25.734C99.067 26.4993 98.8943 27.1807 98.549 27.778C98.2037 28.366 97.7417 28.828 97.163 29.164C96.5937 29.5 95.959 29.668 95.259 29.668ZM95.259 28.618C95.763 28.618 96.2157 28.492 96.617 28.24C97.0277 27.988 97.3497 27.6427 97.583 27.204C97.8257 26.7653 97.947 26.2753 97.947 25.734C97.947 25.1927 97.8257 24.7073 97.583 24.278C97.3497 23.8487 97.0277 23.508 96.617 23.256C96.2157 23.004 95.763 22.878 95.259 22.878C94.755 22.878 94.2977 23.004 93.887 23.256C93.4857 23.508 93.1637 23.8487 92.921 24.278C92.6783 24.7073 92.557 25.1927 92.557 25.734C92.557 26.2753 92.6783 26.7653 92.921 27.204C93.1637 27.6427 93.4857 27.988 93.887 28.24C94.2977 28.492 94.755 28.618 95.259 28.618ZM96.085 20.54C95.8423 20.54 95.6463 20.498 95.497 20.414C95.3477 20.3207 95.2217 20.218 95.119 20.106C95.0163 19.9847 94.909 19.882 94.797 19.798C94.6943 19.7047 94.5637 19.658 94.405 19.658C94.2557 19.658 94.1343 19.7187 94.041 19.84C93.9477 19.9613 93.901 20.176 93.901 20.484H93.033C93.033 19.924 93.1543 19.4993 93.397 19.21C93.649 18.9113 93.985 18.762 94.405 18.762C94.6477 18.762 94.8437 18.8087 94.993 18.902C95.1423 18.986 95.2683 19.0887 95.371 19.21C95.4737 19.322 95.5763 19.4247 95.679 19.518C95.791 19.602 95.9263 19.644 96.085 19.644C96.253 19.644 96.3837 19.574 96.477 19.434C96.5797 19.2847 96.631 19.0793 96.631 18.818H97.485C97.485 19.3313 97.359 19.7467 97.107 20.064C96.855 20.3813 96.5143 20.54 96.085 20.54ZM104.335 29.668C103.635 29.668 103 29.5 102.431 29.164C101.871 28.8187 101.427 28.3473 101.101 27.75C100.774 27.1527 100.611 26.476 100.611 25.72C100.611 24.964 100.769 24.2967 101.087 23.718C101.404 23.13 101.833 22.668 102.375 22.332C102.925 21.996 103.541 21.828 104.223 21.828C104.764 21.828 105.245 21.9307 105.665 22.136C106.094 22.332 106.458 22.6027 106.757 22.948C107.055 23.284 107.284 23.6667 107.443 24.096C107.601 24.516 107.681 24.95 107.681 25.398C107.681 25.4913 107.676 25.5987 107.667 25.72C107.657 25.832 107.643 25.9487 107.625 26.07H101.283V25.09H107.023L106.519 25.51C106.603 24.9967 106.542 24.5393 106.337 24.138C106.141 23.7273 105.856 23.4053 105.483 23.172C105.109 22.9293 104.689 22.808 104.223 22.808C103.756 22.808 103.322 22.9293 102.921 23.172C102.529 23.4147 102.221 23.7553 101.997 24.194C101.773 24.6233 101.684 25.1367 101.731 25.734C101.684 26.3313 101.777 26.854 102.011 27.302C102.253 27.7407 102.58 28.0813 102.991 28.324C103.411 28.5667 103.859 28.688 104.335 28.688C104.885 28.688 105.347 28.5573 105.721 28.296C106.094 28.0347 106.397 27.708 106.631 27.316L107.527 27.792C107.377 28.128 107.149 28.4407 106.841 28.73C106.533 29.01 106.164 29.2387 105.735 29.416C105.315 29.584 104.848 29.668 104.335 29.668ZM112.136 29.668C111.417 29.668 110.787 29.486 110.246 29.122C109.705 28.758 109.313 28.2633 109.07 27.638L109.952 27.218C110.167 27.6753 110.465 28.0393 110.848 28.31C111.24 28.5807 111.669 28.716 112.136 28.716C112.584 28.716 112.962 28.6087 113.27 28.394C113.578 28.17 113.732 27.8807 113.732 27.526C113.732 27.2647 113.657 27.0593 113.508 26.91C113.359 26.7513 113.186 26.63 112.99 26.546C112.794 26.462 112.621 26.4013 112.472 26.364L111.394 26.056C110.703 25.86 110.204 25.5847 109.896 25.23C109.588 24.8753 109.434 24.4647 109.434 23.998C109.434 23.5593 109.546 23.1767 109.77 22.85C109.994 22.5233 110.297 22.2713 110.68 22.094C111.063 21.9167 111.487 21.828 111.954 21.828C112.589 21.828 113.163 21.996 113.676 22.332C114.199 22.6587 114.567 23.116 114.782 23.704L113.886 24.124C113.699 23.704 113.429 23.3773 113.074 23.144C112.729 22.9013 112.341 22.78 111.912 22.78C111.492 22.78 111.156 22.8873 110.904 23.102C110.652 23.3167 110.526 23.5873 110.526 23.914C110.526 24.166 110.591 24.3667 110.722 24.516C110.853 24.6653 111.002 24.7773 111.17 24.852C111.347 24.9267 111.501 24.9827 111.632 25.02L112.878 25.384C113.485 25.5613 113.956 25.8367 114.292 26.21C114.637 26.5833 114.81 27.022 114.81 27.526C114.81 27.9367 114.693 28.3053 114.46 28.632C114.236 28.9587 113.923 29.2153 113.522 29.402C113.121 29.5793 112.659 29.668 112.136 29.668ZM121.638 29.668C120.919 29.668 120.289 29.486 119.748 29.122C119.207 28.758 118.815 28.2633 118.572 27.638L119.454 27.218C119.669 27.6753 119.967 28.0393 120.35 28.31C120.742 28.5807 121.171 28.716 121.638 28.716C122.086 28.716 122.464 28.6087 122.772 28.394C123.08 28.17 123.234 27.8807 123.234 27.526C123.234 27.2647 123.159 27.0593 123.01 26.91C122.861 26.7513 122.688 26.63 122.492 26.546C122.296 26.462 122.123 26.4013 121.974 26.364L120.896 26.056C120.205 25.86 119.706 25.5847 119.398 25.23C119.09 24.8753 118.936 24.4647 118.936 23.998C118.936 23.5593 119.048 23.1767 119.272 22.85C119.496 22.5233 119.799 22.2713 120.182 22.094C120.565 21.9167 120.989 21.828 121.456 21.828C122.091 21.828 122.665 21.996 123.178 22.332C123.701 22.6587 124.069 23.116 124.284 23.704L123.388 24.124C123.201 23.704 122.931 23.3773 122.576 23.144C122.231 22.9013 121.843 22.78 121.414 22.78C120.994 22.78 120.658 22.8873 120.406 23.102C120.154 23.3167 120.028 23.5873 120.028 23.914C120.028 24.166 120.093 24.3667 120.224 24.516C120.355 24.6653 120.504 24.7773 120.672 24.852C120.849 24.9267 121.003 24.9827 121.134 25.02L122.38 25.384C122.987 25.5613 123.458 25.8367 123.794 26.21C124.139 26.5833 124.312 27.022 124.312 27.526C124.312 27.9367 124.195 28.3053 123.962 28.632C123.738 28.9587 123.425 29.2153 123.024 29.402C122.623 29.5793 122.161 29.668 121.638 29.668ZM128.817 29.668C128.294 29.668 127.818 29.5467 127.389 29.304C126.96 29.052 126.619 28.7067 126.367 28.268C126.124 27.82 126.003 27.3067 126.003 26.728V21.996H127.053V26.602C127.053 27.0033 127.132 27.358 127.291 27.666C127.459 27.9647 127.688 28.198 127.977 28.366C128.276 28.534 128.616 28.618 128.999 28.618C129.382 28.618 129.722 28.534 130.021 28.366C130.32 28.1887 130.553 27.9413 130.721 27.624C130.889 27.2973 130.973 26.91 130.973 26.462V21.996H132.023V29.5H130.973V28.044L131.211 28.1C131.034 28.5853 130.73 28.968 130.301 29.248C129.872 29.528 129.377 29.668 128.817 29.668ZM136.352 29.668C135.876 29.668 135.452 29.5793 135.078 29.402C134.705 29.2153 134.411 28.9633 134.196 28.646C133.982 28.3287 133.874 27.9647 133.874 27.554C133.874 27.162 133.958 26.8073 134.126 26.49C134.294 26.1633 134.556 25.888 134.91 25.664C135.265 25.44 135.718 25.2813 136.268 25.188L139.208 24.698V25.65L136.52 26.098C135.979 26.1913 135.587 26.364 135.344 26.616C135.111 26.868 134.994 27.1667 134.994 27.512C134.994 27.848 135.125 28.1327 135.386 28.366C135.657 28.5993 136.002 28.716 136.422 28.716C136.936 28.716 137.384 28.6087 137.766 28.394C138.149 28.17 138.448 27.8713 138.662 27.498C138.877 27.1247 138.984 26.7093 138.984 26.252V24.348C138.984 23.9 138.821 23.536 138.494 23.256C138.168 22.976 137.743 22.836 137.22 22.836C136.763 22.836 136.362 22.9527 136.016 23.186C135.671 23.41 135.414 23.704 135.246 24.068L134.294 23.55C134.434 23.2327 134.654 22.9433 134.952 22.682C135.26 22.4207 135.61 22.2153 136.002 22.066C136.394 21.9073 136.8 21.828 137.22 21.828C137.771 21.828 138.256 21.9353 138.676 22.15C139.106 22.3647 139.437 22.6633 139.67 23.046C139.913 23.4193 140.034 23.8533 140.034 24.348V29.5H138.984V28.002L139.138 28.156C139.008 28.436 138.802 28.6927 138.522 28.926C138.252 29.15 137.93 29.332 137.556 29.472C137.192 29.6027 136.791 29.668 136.352 29.668ZM144.059 29.5L141.133 21.996H142.309L144.773 28.576H144.395L146.873 21.996H148.063L145.109 29.5H144.059ZM152.569 29.668C151.869 29.668 151.235 29.5 150.665 29.164C150.105 28.8187 149.662 28.3473 149.335 27.75C149.009 27.1527 148.845 26.476 148.845 25.72C148.845 24.964 149.004 24.2967 149.321 23.718C149.639 23.13 150.068 22.668 150.609 22.332C151.16 21.996 151.776 21.828 152.457 21.828C152.999 21.828 153.479 21.9307 153.899 22.136C154.329 22.332 154.693 22.6027 154.991 22.948C155.29 23.284 155.519 23.6667 155.677 24.096C155.836 24.516 155.915 24.95 155.915 25.398C155.915 25.4913 155.911 25.5987 155.901 25.72C155.892 25.832 155.878 25.9487 155.859 26.07H149.517V25.09H155.257L154.753 25.51C154.837 24.9967 154.777 24.5393 154.571 24.138C154.375 23.7273 154.091 23.4053 153.717 23.172C153.344 22.9293 152.924 22.808 152.457 22.808C151.991 22.808 151.557 22.9293 151.155 23.172C150.763 23.4147 150.455 23.7553 150.231 24.194C150.007 24.6233 149.919 25.1367 149.965 25.734C149.919 26.3313 150.012 26.854 150.245 27.302C150.488 27.7407 150.815 28.0813 151.225 28.324C151.645 28.5667 152.093 28.688 152.569 28.688C153.12 28.688 153.582 28.5573 153.955 28.296C154.329 28.0347 154.632 27.708 154.865 27.316L155.761 27.792C155.612 28.128 155.383 28.4407 155.075 28.73C154.767 29.01 154.399 29.2387 153.969 29.416C153.549 29.584 153.083 29.668 152.569 29.668ZM160.37 29.668C159.652 29.668 159.022 29.486 158.48 29.122C157.939 28.758 157.547 28.2633 157.304 27.638L158.186 27.218C158.401 27.6753 158.7 28.0393 159.082 28.31C159.474 28.5807 159.904 28.716 160.37 28.716C160.818 28.716 161.196 28.6087 161.504 28.394C161.812 28.17 161.966 27.8807 161.966 27.526C161.966 27.2647 161.892 27.0593 161.742 26.91C161.593 26.7513 161.42 26.63 161.224 26.546C161.028 26.462 160.856 26.4013 160.706 26.364L159.628 26.056C158.938 25.86 158.438 25.5847 158.13 25.23C157.822 24.8753 157.668 24.4647 157.668 23.998C157.668 23.5593 157.78 23.1767 158.004 22.85C158.228 22.5233 158.532 22.2713 158.914 22.094C159.297 21.9167 159.722 21.828 160.188 21.828C160.823 21.828 161.397 21.996 161.91 22.332C162.433 22.6587 162.802 23.116 163.016 23.704L162.12 24.124C161.934 23.704 161.663 23.3773 161.308 23.144C160.963 22.9013 160.576 22.78 160.146 22.78C159.726 22.78 159.39 22.8873 159.138 23.102C158.886 23.3167 158.76 23.5873 158.76 23.914C158.76 24.166 158.826 24.3667 158.956 24.516C159.087 24.6653 159.236 24.7773 159.404 24.852C159.582 24.9267 159.736 24.9827 159.866 25.02L161.112 25.384C161.719 25.5613 162.19 25.8367 162.526 26.21C162.872 26.5833 163.044 27.022 163.044 27.526C163.044 27.9367 162.928 28.3053 162.694 28.632C162.47 28.9587 162.158 29.2153 161.756 29.402C161.355 29.5793 160.893 29.668 160.37 29.668Z" fill="white"/>
</g>
<defs>
<filter id="filter1_d_365_664" x="37.3423" y="18.762" width="129.702" height="27.958" filterUnits="userSpaceOnUse" color-interpolation-filters="sRGB">
<feFlood flood-opacity="0" result="BackgroundImageFix"/>
<feColorMatrix in="SourceAlpha" type="matrix" values="0 0 0 0 0 0 0 0 0 0 0 0 0 0 0 0 0 0 127 0" result="hardAlpha"/>
<feOffset dy="10"/>
<feGaussianBlur stdDeviation="2"/>
<feComposite in2="hardAlpha" operator="out"/>
<feColorMatrix type="matrix" values="0 0 0 0 0 0 0 0 0 0 0 0 0 0 0 0 0 0 0.25 0"/>
<feBlend mode="normal" in2="BackgroundImageFix" result="effect1_dropShadow_365_664"/>
<feBlend mode="normal" in="SourceGraphic" in2="effect1_dropShadow_365_664" result="shape"/>
</filter>
<linearGradient id="paint0_linear_365_664" x1="1" y1="23.5" x2="218.2" y2="7.34457" gradientUnits="userSpaceOnUse">
<stop stop-color="#14A3A3"/>
<stop offset="0.501475" stop-color="white"/>
<stop offset="1" stop-color="#0D6549"/>
</linearGradient>
</defs>
</svg>
