<svg width="1936" height="544" viewBox="0 0 1936 544" fill="none" xmlns="http://www.w3.org/2000/svg">
<path d="M987.48 176.736L989.994 177.637L991.99 175.863C1008.41 161.267 1034.78 157.751 1069.89 163.747C1104.82 169.712 1147.24 184.901 1194.47 206.088C1279.41 244.197 1378.98 301.275 1476.99 357.464C1487.95 363.742 1498.88 370.008 1509.77 376.236C1617.9 438.078 1722.05 496.191 1799.23 522.648C1837.65 535.821 1870.38 541.519 1893.8 535.043C1905.72 531.746 1915.31 525.271 1921.84 515.078C1928.3 504.982 1931.5 491.645 1931.5 475.016C1931.5 343.516 1819.27 225.875 1643.11 141.379C1466.61 56.719 1224.42 4.5 961 4.5C697.578 4.5 458.872 56.7878 285.855 141.532C113.134 226.13 4.5 343.855 4.5 475.289C4.5 491.799 7.10492 505.047 12.4277 515.136C17.8215 525.36 25.892 532.111 36.2163 535.653C46.3961 539.146 58.5113 539.44 72.0597 537.353C85.6357 535.263 100.942 530.738 117.686 524.298C177.721 501.208 258.376 452.617 348.05 398.591C358.094 392.54 368.251 386.421 378.505 380.261C480.561 318.958 592.539 253.477 699.386 210.632C806.406 167.717 907.245 147.949 987.48 176.736Z" stroke="url(#paint0_linear_386_8)" stroke-width="9"/>
<defs>
<linearGradient id="paint0_linear_386_8" x1="961" y1="9" x2="960.681" y2="165.505" gradientUnits="userSpaceOnUse">
<stop stop-color="#00FFFF"/>
<stop offset="1" stop-opacity="0"/>
</linearGradient>
</defs>
</svg>
