<svg width="103" height="95" viewBox="0 0 103 95" fill="none" xmlns="http://www.w3.org/2000/svg">
<g filter="url(#filter0_d_365_584)">
<path d="M40.65 23.4989L45.3093 27.572L45.3104 27.573C46.0513 28.2226 46.0928 29.3481 45.4268 30.0531L42.7796 32.8591C42.1177 33.5705 41.0215 33.5812 40.3313 32.9374L31.5539 24.7597C30.8153 24.0794 30.8154 22.9123 31.554 22.232L40.3313 14.0604C40.3315 14.0603 40.3316 14.0602 40.3317 14.06L40.3321 14.0597L41.0135 14.7916L40.65 23.4989ZM40.65 23.4989L45.3093 19.4258L45.3104 19.4249C46.0392 18.7859 46.111 17.659 45.4242 16.942L40.65 23.4989ZM43.8192 36.7154L43.8192 36.7154L43.8169 36.7235C43.5613 37.6266 44.0693 38.5957 45.0051 38.8599L48.7127 39.9289C48.7138 39.9293 48.7149 39.9296 48.716 39.9299C49.6443 40.2018 50.5918 39.6629 50.8617 38.7595L50.8634 38.7537L59.1808 10.2824L59.1808 10.2824L59.1831 10.2743C59.4386 9.37136 58.9308 8.40232 57.9952 8.13803L54.2814 7.06717L54.2814 7.06714L54.2735 7.06493C53.3798 6.81514 52.4044 7.30783 52.1356 8.24727L43.8192 36.7154ZM62.6606 32.9509L62.6607 32.9509L62.6682 32.9439L71.4423 24.7692C71.4436 24.7681 71.4449 24.7669 71.4462 24.7657C72.1846 24.0854 72.1846 22.9186 71.4462 22.2382C71.4449 22.237 71.4436 22.2358 71.4423 22.2346L62.6685 14.0542L62.6682 14.0539C61.9745 13.4076 60.8879 13.4404 60.2309 14.1217L60.2308 14.1216L60.2233 14.1296L57.5732 16.9387C57.5731 16.9388 57.573 16.9389 57.573 16.9389C57.5729 16.939 57.5728 16.9391 57.5727 16.9392C56.9073 17.6441 56.9488 18.7693 57.6896 19.4188L57.6902 19.4194L62.3505 23.4984L57.6907 27.572L57.6896 27.573C56.9608 28.212 56.889 29.3388 57.5758 30.0559L60.2204 32.8591C60.8812 33.5692 61.9716 33.5797 62.6606 32.9509Z" stroke="#00FFFF" stroke-width="2" shape-rendering="crispEdges"/>
</g>
<defs>
<filter id="filter0_d_365_584" x="0" y="0.000732422" width="103" height="95.0005" filterUnits="userSpaceOnUse" color-interpolation-filters="sRGB">
<feFlood flood-opacity="0" result="BackgroundImageFix"/>
<feColorMatrix in="SourceAlpha" type="matrix" values="0 0 0 0 0 0 0 0 0 0 0 0 0 0 0 0 0 0 127 0" result="hardAlpha"/>
<feOffset dy="24"/>
<feGaussianBlur stdDeviation="15"/>
<feComposite in2="hardAlpha" operator="out"/>
<feColorMatrix type="matrix" values="0 0 0 0 0 0 0 0 0 1 0 0 0 0 1 0 0 0 1 0"/>
<feBlend mode="normal" in2="BackgroundImageFix" result="effect1_dropShadow_365_584"/>
<feBlend mode="normal" in="SourceGraphic" in2="effect1_dropShadow_365_584" result="shape"/>
</filter>
</defs>
</svg>
