<svg width="93" height="103" viewBox="0 0 93 103" fill="none" xmlns="http://www.w3.org/2000/svg">
<g filter="url(#filter0_d_365_573)">
<path d="M49.9167 8V7H48.9167H33.8125C32.2477 7 31 8.27086 31 9.82812V45.1719C31 46.7291 32.2477 48 33.8125 48H59.1875C60.7523 48 62 46.7291 62 45.1719V20.1875V19.1875H61H50.7292C50.2927 19.1875 49.9167 18.8207 49.9167 18.3594V8ZM40.7305 36.98L42.1033 32.8209C42.1034 32.8205 42.1035 32.8201 42.1037 32.8197C42.2023 32.5253 42.4444 32.3218 42.7265 32.2684L41.9254 34.6964L41.1243 37.1242C41.1242 37.1244 41.1242 37.1245 41.1241 37.1247C41.1241 37.1247 41.1241 37.1248 41.1241 37.1248C40.8132 38.064 39.948 38.6875 38.9774 38.6875H38.0417C37.9344 38.6875 37.8333 38.5979 37.8333 38.4688C37.8333 38.3396 37.9344 38.25 38.0417 38.25H38.9774C39.7774 38.25 40.4804 37.7351 40.7302 36.9809L40.7305 36.98ZM43.8244 34.6958L43.0216 32.268C43.305 32.3208 43.5474 32.5246 43.6454 32.8193C43.6455 32.8194 43.6455 32.8196 43.6456 32.8197L44.6933 35.9901L45.1522 37.3785L46.2797 36.4473C46.7543 36.0552 47.4519 35.905 48.1531 36.0507C48.8495 36.1953 49.4376 36.6086 49.731 37.1986C50.0433 37.8305 50.6774 38.25 51.3945 38.25H54.9583C55.0656 38.25 55.1667 38.3396 55.1667 38.4688C55.1667 38.5979 55.0656 38.6875 54.9583 38.6875H51.3945C50.5352 38.6875 49.7617 38.2094 49.3725 37.4263C48.9074 36.4858 48.0446 36.3734 47.7083 36.3734C47.3989 36.3734 46.5176 36.4689 46.0557 37.4008L45.4764 38.5692L45.4763 38.5694C45.4581 38.6063 45.4306 38.636 45.3981 38.6563C45.3663 38.6761 45.3305 38.6863 45.2945 38.6867C45.2927 38.6866 45.289 38.6864 45.2829 38.6859L45.2829 38.6859L45.2758 38.6854C45.1971 38.6799 45.1239 38.6261 45.0963 38.5419L45.0955 38.5395L43.8244 34.6958ZM53.7884 7.8295L53.788 7.82914C53.2587 7.29528 52.5417 7 51.794 7H51.3333H50.3333V8V17.75V18.75H51.3333H61H62V17.75V17.2854C62 16.5446 61.709 15.8263 61.1819 15.2943C61.1817 15.2942 61.1816 15.2941 61.1815 15.294L53.7884 7.8295ZM37.8333 14.3125V13.875H43.0833V14.3125H37.8333ZM37.8333 19.1875V18.75H43.0833V19.1875H37.8333Z" stroke="#00FFFF" stroke-width="2" shape-rendering="crispEdges"/>
</g>
<defs>
<filter id="filter0_d_365_573" x="0" y="0" width="93" height="103" filterUnits="userSpaceOnUse" color-interpolation-filters="sRGB">
<feFlood flood-opacity="0" result="BackgroundImageFix"/>
<feColorMatrix in="SourceAlpha" type="matrix" values="0 0 0 0 0 0 0 0 0 0 0 0 0 0 0 0 0 0 127 0" result="hardAlpha"/>
<feOffset dy="24"/>
<feGaussianBlur stdDeviation="15"/>
<feComposite in2="hardAlpha" operator="out"/>
<feColorMatrix type="matrix" values="0 0 0 0 0 0 0 0 0 1 0 0 0 0 1 0 0 0 1 0"/>
<feBlend mode="normal" in2="BackgroundImageFix" result="effect1_dropShadow_365_573"/>
<feBlend mode="normal" in="SourceGraphic" in2="effect1_dropShadow_365_573" result="shape"/>
</filter>
</defs>
</svg>
