<svg width="205" height="47" viewBox="0 0 205 47" fill="none" xmlns="http://www.w3.org/2000/svg">
<rect x="0.5" y="0.5" width="204" height="46" rx="15.5" fill="#D9D9D9" fill-opacity="0.15"/>
<rect x="0.5" y="0.5" width="204" height="46" rx="15.5" stroke="url(#paint0_linear_365_660)"/>
<g filter="url(#filter1_d_365_660)">
<path d="M39.3375 29.5V19.07H42.7675C43.8035 19.07 44.7041 19.2847 45.4695 19.714C46.2348 20.134 46.8275 20.736 47.2475 21.52C47.6675 22.2947 47.8775 23.214 47.8775 24.278C47.8775 25.3327 47.6675 26.252 47.2475 27.036C46.8275 27.82 46.2348 28.4267 45.4695 28.856C44.7041 29.2853 43.8035 29.5 42.7675 29.5H39.3375ZM40.4575 28.45H42.7675C43.5701 28.45 44.2655 28.282 44.8535 27.946C45.4415 27.6007 45.8941 27.1153 46.2115 26.49C46.5381 25.8647 46.7015 25.1273 46.7015 24.278C46.7015 23.4287 46.5381 22.696 46.2115 22.08C45.8848 21.4547 45.4275 20.974 44.8395 20.638C44.2515 20.2927 43.5608 20.12 42.7675 20.12H40.4575V28.45ZM52.9901 29.668C52.2901 29.668 51.6554 29.5 51.0861 29.164C50.5261 28.8187 50.0828 28.3473 49.7561 27.75C49.4294 27.1527 49.2661 26.476 49.2661 25.72C49.2661 24.964 49.4248 24.2967 49.7421 23.718C50.0594 23.13 50.4888 22.668 51.0301 22.332C51.5808 21.996 52.1968 21.828 52.8781 21.828C53.4194 21.828 53.9001 21.9307 54.3201 22.136C54.7494 22.332 55.1134 22.6027 55.4121 22.948C55.7108 23.284 55.9394 23.6667 56.0981 24.096C56.2568 24.516 56.3361 24.95 56.3361 25.398C56.3361 25.4913 56.3314 25.5987 56.3221 25.72C56.3128 25.832 56.2988 25.9487 56.2801 26.07H49.9381V25.09H55.6781L55.1741 25.51C55.2581 24.9967 55.1974 24.5393 54.9921 24.138C54.7961 23.7273 54.5114 23.4053 54.1381 23.172C53.7648 22.9293 53.3448 22.808 52.8781 22.808C52.4114 22.808 51.9774 22.9293 51.5761 23.172C51.1841 23.4147 50.8761 23.7553 50.6521 24.194C50.4281 24.6233 50.3394 25.1367 50.3861 25.734C50.3394 26.3313 50.4328 26.854 50.6661 27.302C50.9088 27.7407 51.2354 28.0813 51.6461 28.324C52.0661 28.5667 52.5141 28.688 52.9901 28.688C53.5408 28.688 54.0028 28.5573 54.3761 28.296C54.7494 28.0347 55.0528 27.708 55.2861 27.316L56.1821 27.792C56.0328 28.128 55.8041 28.4407 55.4961 28.73C55.1881 29.01 54.8194 29.2387 54.3901 29.416C53.9701 29.584 53.5034 29.668 52.9901 29.668ZM60.7914 29.668C60.0727 29.668 59.4427 29.486 58.9014 29.122C58.36 28.758 57.968 28.2633 57.7254 27.638L58.6074 27.218C58.822 27.6753 59.1207 28.0393 59.5034 28.31C59.8954 28.5807 60.3247 28.716 60.7914 28.716C61.2394 28.716 61.6174 28.6087 61.9254 28.394C62.2334 28.17 62.3874 27.8807 62.3874 27.526C62.3874 27.2647 62.3127 27.0593 62.1634 26.91C62.014 26.7513 61.8414 26.63 61.6454 26.546C61.4494 26.462 61.2767 26.4013 61.1274 26.364L60.0494 26.056C59.3587 25.86 58.8594 25.5847 58.5514 25.23C58.2434 24.8753 58.0894 24.4647 58.0894 23.998C58.0894 23.5593 58.2014 23.1767 58.4254 22.85C58.6494 22.5233 58.9527 22.2713 59.3354 22.094C59.718 21.9167 60.1427 21.828 60.6094 21.828C61.244 21.828 61.818 21.996 62.3314 22.332C62.854 22.6587 63.2227 23.116 63.4374 23.704L62.5414 24.124C62.3547 23.704 62.084 23.3773 61.7294 23.144C61.384 22.9013 60.9967 22.78 60.5674 22.78C60.1474 22.78 59.8114 22.8873 59.5594 23.102C59.3074 23.3167 59.1814 23.5873 59.1814 23.914C59.1814 24.166 59.2467 24.3667 59.3774 24.516C59.508 24.6653 59.6574 24.7773 59.8254 24.852C60.0027 24.9267 60.1567 24.9827 60.2874 25.02L61.5334 25.384C62.14 25.5613 62.6114 25.8367 62.9474 26.21C63.2927 26.5833 63.4654 27.022 63.4654 27.526C63.4654 27.9367 63.3487 28.3053 63.1154 28.632C62.8914 28.9587 62.5787 29.2153 62.1774 29.402C61.776 29.5793 61.314 29.668 60.7914 29.668ZM65.3104 29.5V21.996H66.3604V29.5H65.3104ZM65.3104 20.61V19.07H66.3604V20.61H65.3104ZM72.0656 32.58C71.5523 32.58 71.0763 32.5007 70.6376 32.342C70.2083 32.1833 69.835 31.964 69.5176 31.684C69.2096 31.4133 68.9716 31.096 68.8036 30.732L69.7696 30.214C69.919 30.5687 70.185 30.8767 70.5676 31.138C70.9503 31.3993 71.4403 31.53 72.0376 31.53C72.495 31.53 72.915 31.4413 73.2976 31.264C73.6803 31.0867 73.9883 30.8253 74.2216 30.48C74.455 30.1347 74.5716 29.71 74.5716 29.206V27.54L74.7396 27.694C74.4783 28.2353 74.091 28.6553 73.5776 28.954C73.0643 29.2433 72.5043 29.388 71.8976 29.388C71.1976 29.388 70.5676 29.22 70.0076 28.884C69.4476 28.548 69.0043 28.0953 68.6776 27.526C68.3603 26.9473 68.2016 26.308 68.2016 25.608C68.2016 24.8987 68.3603 24.2593 68.6776 23.69C69.0043 23.1207 69.443 22.668 69.9936 22.332C70.5536 21.996 71.1883 21.828 71.8976 21.828C72.5043 21.828 73.055 21.968 73.5496 22.248C74.0536 22.528 74.4503 22.906 74.7396 23.382L74.5716 23.676V21.996H75.6216V29.206C75.6216 29.85 75.4676 30.424 75.1596 30.928C74.861 31.4413 74.441 31.8427 73.8996 32.132C73.3676 32.4307 72.7563 32.58 72.0656 32.58ZM71.9536 28.338C72.439 28.338 72.8776 28.2167 73.2696 27.974C73.6616 27.722 73.9743 27.3907 74.2076 26.98C74.4503 26.56 74.5716 26.1027 74.5716 25.608C74.5716 25.1133 74.4503 24.6607 74.2076 24.25C73.9743 23.83 73.6616 23.4987 73.2696 23.256C72.8776 23.004 72.439 22.878 71.9536 22.878C71.459 22.878 71.011 23.004 70.6096 23.256C70.2083 23.4987 69.891 23.8253 69.6576 24.236C69.4336 24.6467 69.3216 25.104 69.3216 25.608C69.3216 26.1027 69.4336 26.56 69.6576 26.98C69.891 27.3907 70.2036 27.722 70.5956 27.974C70.997 28.2167 71.4496 28.338 71.9536 28.338ZM77.7792 29.5V21.996H78.8292V23.452L78.5912 23.396C78.7778 22.9107 79.0812 22.528 79.5012 22.248C79.9305 21.968 80.4252 21.828 80.9852 21.828C81.5172 21.828 81.9932 21.9493 82.4132 22.192C82.8425 22.4347 83.1785 22.7707 83.4212 23.2C83.6732 23.62 83.7992 24.096 83.7992 24.628V29.5H82.7492V25.034C82.7492 24.5767 82.6652 24.1893 82.4972 23.872C82.3385 23.5547 82.1098 23.312 81.8112 23.144C81.5218 22.9667 81.1858 22.878 80.8032 22.878C80.4205 22.878 80.0798 22.9667 79.7812 23.144C79.4825 23.312 79.2492 23.5593 79.0812 23.886C78.9132 24.2033 78.8292 24.586 78.8292 25.034V29.5H77.7792ZM90.7164 29.5V19.07H94.3004C94.9817 19.07 95.579 19.2053 96.0924 19.476C96.6057 19.7373 97.0024 20.1107 97.2824 20.596C97.5717 21.072 97.7164 21.6273 97.7164 22.262C97.7164 22.9993 97.5204 23.6293 97.1284 24.152C96.7457 24.6747 96.223 25.0433 95.5604 25.258L97.9964 29.5H96.6804L94.1324 25.006L94.8884 25.44H91.8364V29.5H90.7164ZM91.8364 24.39H94.3564C94.8044 24.39 95.1964 24.306 95.5324 24.138C95.8684 23.9607 96.1297 23.7133 96.3164 23.396C96.503 23.0693 96.5964 22.6867 96.5964 22.248C96.5964 21.8093 96.503 21.4313 96.3164 21.114C96.1297 20.7967 95.8684 20.554 95.5324 20.386C95.1964 20.2087 94.8044 20.12 94.3564 20.12H91.8364V24.39ZM102.523 29.668C101.823 29.668 101.189 29.5 100.619 29.164C100.059 28.8187 99.616 28.3473 99.2893 27.75C98.9626 27.1527 98.7993 26.476 98.7993 25.72C98.7993 24.964 98.958 24.2967 99.2753 23.718C99.5926 23.13 100.022 22.668 100.563 22.332C101.114 21.996 101.73 21.828 102.411 21.828C102.953 21.828 103.433 21.9307 103.853 22.136C104.283 22.332 104.647 22.6027 104.945 22.948C105.244 23.284 105.473 23.6667 105.631 24.096C105.79 24.516 105.869 24.95 105.869 25.398C105.869 25.4913 105.865 25.5987 105.855 25.72C105.846 25.832 105.832 25.9487 105.813 26.07H99.4713V25.09H105.211L104.707 25.51C104.791 24.9967 104.731 24.5393 104.525 24.138C104.329 23.7273 104.045 23.4053 103.671 23.172C103.298 22.9293 102.878 22.808 102.411 22.808C101.945 22.808 101.511 22.9293 101.109 23.172C100.717 23.4147 100.409 23.7553 100.185 24.194C99.9613 24.6233 99.8726 25.1367 99.9193 25.734C99.8726 26.3313 99.966 26.854 100.199 27.302C100.442 27.7407 100.769 28.0813 101.179 28.324C101.599 28.5667 102.047 28.688 102.523 28.688C103.074 28.688 103.536 28.5573 103.909 28.296C104.283 28.0347 104.586 27.708 104.819 27.316L105.715 27.792C105.566 28.128 105.337 28.4407 105.029 28.73C104.721 29.01 104.353 29.2387 103.923 29.416C103.503 29.584 103.037 29.668 102.523 29.668ZM110.325 29.668C109.606 29.668 108.976 29.486 108.435 29.122C107.893 28.758 107.501 28.2633 107.259 27.638L108.141 27.218C108.355 27.6753 108.654 28.0393 109.037 28.31C109.429 28.5807 109.858 28.716 110.325 28.716C110.773 28.716 111.151 28.6087 111.459 28.394C111.767 28.17 111.921 27.8807 111.921 27.526C111.921 27.2647 111.846 27.0593 111.697 26.91C111.547 26.7513 111.375 26.63 111.179 26.546C110.983 26.462 110.81 26.4013 110.661 26.364L109.583 26.056C108.892 25.86 108.393 25.5847 108.085 25.23C107.777 24.8753 107.623 24.4647 107.623 23.998C107.623 23.5593 107.735 23.1767 107.959 22.85C108.183 22.5233 108.486 22.2713 108.869 22.094C109.251 21.9167 109.676 21.828 110.143 21.828C110.777 21.828 111.351 21.996 111.865 22.332C112.387 22.6587 112.756 23.116 112.971 23.704L112.075 24.124C111.888 23.704 111.617 23.3773 111.263 23.144C110.917 22.9013 110.53 22.78 110.101 22.78C109.681 22.78 109.345 22.8873 109.093 23.102C108.841 23.3167 108.715 23.5873 108.715 23.914C108.715 24.166 108.78 24.3667 108.911 24.516C109.041 24.6653 109.191 24.7773 109.359 24.852C109.536 24.9267 109.69 24.9827 109.821 25.02L111.067 25.384C111.673 25.5613 112.145 25.8367 112.481 26.21C112.826 26.5833 112.999 27.022 112.999 27.526C112.999 27.9367 112.882 28.3053 112.649 28.632C112.425 28.9587 112.112 29.2153 111.711 29.402C111.309 29.5793 110.847 29.668 110.325 29.668ZM114.844 32.3V21.996H115.894V23.676L115.726 23.382C116.024 22.906 116.421 22.528 116.916 22.248C117.42 21.968 117.994 21.828 118.638 21.828C119.347 21.828 119.977 22.0007 120.528 22.346C121.088 22.682 121.526 23.144 121.844 23.732C122.17 24.32 122.334 24.992 122.334 25.748C122.334 26.4947 122.17 27.1667 121.844 27.764C121.526 28.352 121.088 28.8187 120.528 29.164C119.977 29.5 119.347 29.668 118.638 29.668C117.994 29.668 117.41 29.5233 116.888 29.234C116.374 28.9353 115.987 28.5153 115.726 27.974L115.894 27.82V32.3H114.844ZM118.582 28.618C119.086 28.618 119.534 28.492 119.926 28.24C120.327 27.988 120.64 27.6473 120.864 27.218C121.097 26.7793 121.214 26.2893 121.214 25.748C121.214 25.1973 121.097 24.7073 120.864 24.278C120.64 23.8487 120.327 23.508 119.926 23.256C119.534 23.004 119.086 22.878 118.582 22.878C118.078 22.878 117.62 23.004 117.21 23.256C116.808 23.508 116.486 23.8533 116.244 24.292C116.01 24.7213 115.894 25.2067 115.894 25.748C115.894 26.2893 116.01 26.7793 116.244 27.218C116.486 27.6473 116.808 27.988 117.21 28.24C117.62 28.492 118.078 28.618 118.582 28.618ZM127.696 29.668C126.986 29.668 126.342 29.5 125.764 29.164C125.185 28.8187 124.723 28.352 124.378 27.764C124.042 27.1667 123.874 26.49 123.874 25.734C123.874 24.9873 124.042 24.32 124.378 23.732C124.714 23.144 125.166 22.682 125.736 22.346C126.314 22.0007 126.968 21.828 127.696 21.828C128.424 21.828 129.072 21.996 129.642 22.332C130.22 22.668 130.673 23.13 131 23.718C131.336 24.306 131.504 24.978 131.504 25.734C131.504 26.4993 131.331 27.1807 130.986 27.778C130.64 28.366 130.178 28.828 129.6 29.164C129.03 29.5 128.396 29.668 127.696 29.668ZM127.696 28.618C128.2 28.618 128.652 28.492 129.054 28.24C129.464 27.988 129.786 27.6427 130.02 27.204C130.262 26.7653 130.384 26.2753 130.384 25.734C130.384 25.1927 130.262 24.7073 130.02 24.278C129.786 23.8487 129.464 23.508 129.054 23.256C128.652 23.004 128.2 22.878 127.696 22.878C127.192 22.878 126.734 23.004 126.324 23.256C125.922 23.508 125.6 23.8487 125.358 24.278C125.115 24.7073 124.994 25.1927 124.994 25.734C124.994 26.2753 125.115 26.7653 125.358 27.204C125.6 27.6427 125.922 27.988 126.324 28.24C126.734 28.492 127.192 28.618 127.696 28.618ZM133.355 29.5V21.996H134.405V23.452L134.167 23.396C134.354 22.9107 134.657 22.528 135.077 22.248C135.507 21.968 136.001 21.828 136.561 21.828C137.093 21.828 137.569 21.9493 137.989 22.192C138.419 22.4347 138.755 22.7707 138.997 23.2C139.249 23.62 139.375 24.096 139.375 24.628V29.5H138.325V25.034C138.325 24.5767 138.241 24.1893 138.073 23.872C137.915 23.5547 137.686 23.312 137.387 23.144C137.098 22.9667 136.762 22.878 136.379 22.878C135.997 22.878 135.656 22.9667 135.357 23.144C135.059 23.312 134.825 23.5593 134.657 23.886C134.489 24.2033 134.405 24.586 134.405 25.034V29.5H133.355ZM143.985 29.668C143.266 29.668 142.636 29.486 142.095 29.122C141.553 28.758 141.161 28.2633 140.919 27.638L141.801 27.218C142.015 27.6753 142.314 28.0393 142.697 28.31C143.089 28.5807 143.518 28.716 143.985 28.716C144.433 28.716 144.811 28.6087 145.119 28.394C145.427 28.17 145.581 27.8807 145.581 27.526C145.581 27.2647 145.506 27.0593 145.357 26.91C145.207 26.7513 145.035 26.63 144.839 26.546C144.643 26.462 144.47 26.4013 144.321 26.364L143.243 26.056C142.552 25.86 142.053 25.5847 141.745 25.23C141.437 24.8753 141.283 24.4647 141.283 23.998C141.283 23.5593 141.395 23.1767 141.619 22.85C141.843 22.5233 142.146 22.2713 142.529 22.094C142.911 21.9167 143.336 21.828 143.803 21.828C144.437 21.828 145.011 21.996 145.525 22.332C146.047 22.6587 146.416 23.116 146.631 23.704L145.735 24.124C145.548 23.704 145.277 23.3773 144.923 23.144C144.577 22.9013 144.19 22.78 143.761 22.78C143.341 22.78 143.005 22.8873 142.753 23.102C142.501 23.3167 142.375 23.5873 142.375 23.914C142.375 24.166 142.44 24.3667 142.571 24.516C142.701 24.6653 142.851 24.7773 143.019 24.852C143.196 24.9267 143.35 24.9827 143.481 25.02L144.727 25.384C145.333 25.5613 145.805 25.8367 146.141 26.21C146.486 26.5833 146.659 27.022 146.659 27.526C146.659 27.9367 146.542 28.3053 146.309 28.632C146.085 28.9587 145.772 29.2153 145.371 29.402C144.969 29.5793 144.507 29.668 143.985 29.668ZM148.504 29.5V21.996H149.554V29.5H148.504ZM148.504 20.61V19.07H149.554V20.61H148.504ZM153.705 29.5L150.779 21.996H151.955L154.419 28.576H154.041L156.519 21.996H157.709L154.755 29.5H153.705ZM162.313 29.668C161.603 29.668 160.959 29.5 160.381 29.164C159.802 28.8187 159.34 28.352 158.995 27.764C158.659 27.1667 158.491 26.49 158.491 25.734C158.491 24.9873 158.659 24.32 158.995 23.732C159.331 23.144 159.783 22.682 160.353 22.346C160.931 22.0007 161.585 21.828 162.313 21.828C163.041 21.828 163.689 21.996 164.259 22.332C164.837 22.668 165.29 23.13 165.617 23.718C165.953 24.306 166.121 24.978 166.121 25.734C166.121 26.4993 165.948 27.1807 165.603 27.778C165.257 28.366 164.795 28.828 164.217 29.164C163.647 29.5 163.013 29.668 162.313 29.668ZM162.313 28.618C162.817 28.618 163.269 28.492 163.671 28.24C164.081 27.988 164.403 27.6427 164.637 27.204C164.879 26.7653 165.001 26.2753 165.001 25.734C165.001 25.1927 164.879 24.7073 164.637 24.278C164.403 23.8487 164.081 23.508 163.671 23.256C163.269 23.004 162.817 22.878 162.313 22.878C161.809 22.878 161.351 23.004 160.941 23.256C160.539 23.508 160.217 23.8487 159.975 24.278C159.732 24.7073 159.611 25.1927 159.611 25.734C159.611 26.2753 159.732 26.7653 159.975 27.204C160.217 27.6427 160.539 27.988 160.941 28.24C161.351 28.492 161.809 28.618 162.313 28.618Z" fill="white"/>
</g>
<defs>
<filter id="filter1_d_365_660" x="35.3374" y="19.0699" width="134.783" height="27.51" filterUnits="userSpaceOnUse" color-interpolation-filters="sRGB">
<feFlood flood-opacity="0" result="BackgroundImageFix"/>
<feColorMatrix in="SourceAlpha" type="matrix" values="0 0 0 0 0 0 0 0 0 0 0 0 0 0 0 0 0 0 127 0" result="hardAlpha"/>
<feOffset dy="10"/>
<feGaussianBlur stdDeviation="2"/>
<feComposite in2="hardAlpha" operator="out"/>
<feColorMatrix type="matrix" values="0 0 0 0 0 0 0 0 0 0 0 0 0 0 0 0 0 0 0.25 0"/>
<feBlend mode="normal" in2="BackgroundImageFix" result="effect1_dropShadow_365_660"/>
<feBlend mode="normal" in="SourceGraphic" in2="effect1_dropShadow_365_660" result="shape"/>
</filter>
<linearGradient id="paint0_linear_365_660" x1="1" y1="23.5" x2="218.2" y2="7.34457" gradientUnits="userSpaceOnUse">
<stop stop-color="#14A3A3"/>
<stop offset="0.501475" stop-color="white"/>
<stop offset="1" stop-color="#0D6549"/>
</linearGradient>
</defs>
</svg>
