<svg width="88" height="100" viewBox="0 0 88 100" fill="none" xmlns="http://www.w3.org/2000/svg">
<g filter="url(#filter0_d_365_577)">
<path d="M44.9982 38.0029V38.0023V30.8914C45.0168 30.9104 45.0354 30.9292 45.0541 30.948C46.0324 31.9266 47.279 32.5931 48.636 32.8632C49.9931 33.1332 51.3998 32.9946 52.6781 32.4649C53.9564 31.9353 55.049 31.0383 55.8176 29.8876C56.5862 28.7368 56.9965 27.3839 56.9965 26V25.9999C56.9963 24.1442 56.2593 22.3645 54.9474 21.0522C54.541 20.6456 54.0896 20.2942 53.605 20.0028C54.0906 19.711 54.5429 19.359 54.9501 18.9516C56.2627 17.6386 57 15.8579 57 14.0012C57 12.1445 56.2627 10.3637 54.9501 9.05072C53.6376 7.7377 51.8573 7 50.0009 7H38.0026C36.1472 7 34.3678 7.73733 33.0559 9.04969C31.744 10.362 31.007 12.1419 31.007 13.9977C31.007 15.8534 31.744 17.6333 33.0559 18.9456C33.4623 19.3522 33.9137 19.7036 34.3983 19.995C33.9128 20.2868 33.4606 20.6387 33.0534 21.046C31.7408 22.359 31.0035 24.1398 31.0035 25.9965C31.0035 27.8532 31.7408 29.6339 33.0534 30.9469C33.4599 31.3536 33.9114 31.7051 34.396 31.9966C34.3007 32.0539 34.2067 32.1134 34.1139 32.1754C32.9624 32.944 32.0648 34.037 31.5343 35.3159C31.0039 36.5949 30.8644 38.0024 31.1337 39.3606C31.4029 40.7188 32.0687 41.9667 33.047 42.9464C34.0252 43.9261 35.272 44.5937 36.6296 44.8647C37.9872 45.1356 39.3946 44.9978 40.6739 44.4686C41.9532 43.9394 43.0468 43.0426 43.8165 41.8917C44.5862 40.7409 44.9974 39.3876 44.9982 38.0029ZM45.1043 21.0023C45.0686 21.0374 45.0332 21.0728 44.9982 21.1086V21.0023H45.1043Z" stroke="#00FFFF" stroke-width="2" shape-rendering="crispEdges"/>
</g>
<defs>
<filter id="filter0_d_365_577" x="0" y="0" width="88" height="100" filterUnits="userSpaceOnUse" color-interpolation-filters="sRGB">
<feFlood flood-opacity="0" result="BackgroundImageFix"/>
<feColorMatrix in="SourceAlpha" type="matrix" values="0 0 0 0 0 0 0 0 0 0 0 0 0 0 0 0 0 0 127 0" result="hardAlpha"/>
<feOffset dy="24"/>
<feGaussianBlur stdDeviation="15"/>
<feComposite in2="hardAlpha" operator="out"/>
<feColorMatrix type="matrix" values="0 0 0 0 0 0 0 0 0 1 0 0 0 0 1 0 0 0 1 0"/>
<feBlend mode="normal" in2="BackgroundImageFix" result="effect1_dropShadow_365_577"/>
<feBlend mode="normal" in="SourceGraphic" in2="effect1_dropShadow_365_577" result="shape"/>
</filter>
</defs>
</svg>
