<svg width="1413" height="192" viewBox="0 0 1413 192" fill="none" xmlns="http://www.w3.org/2000/svg">
<rect width="93" height="60" rx="10" fill="url(#paint0_linear_361_154)" fill-opacity="0.4"/>
<rect y="66" width="93" height="60" rx="10" fill="url(#paint1_linear_361_154)" fill-opacity="0.4"/>
<rect y="132" width="93" height="60" rx="10" fill="url(#paint2_linear_361_154)" fill-opacity="0.4"/>
<rect x="102" y="132" width="93" height="60" rx="10" fill="url(#paint3_linear_361_154)" fill-opacity="0.4"/>
<rect width="97" height="60" rx="10" transform="matrix(-1 0 0 1 1307 132)" fill="url(#paint4_linear_361_154)" fill-opacity="0.4"/>
<rect width="97" height="60" rx="10" transform="matrix(-1 0 0 1 1413 0)" fill="url(#paint5_linear_361_154)" fill-opacity="0.4"/>
<rect width="97" height="60" rx="10" transform="matrix(-1 0 0 1 1413 66)" fill="url(#paint6_linear_361_154)" fill-opacity="0.4"/>
<rect width="97" height="60" rx="10" transform="matrix(-1 0 0 1 1413 132)" fill="url(#paint7_linear_361_154)" fill-opacity="0.4"/>
<defs>
<linearGradient id="paint0_linear_361_154" x1="46.5" y1="0" x2="46.5" y2="60" gradientUnits="userSpaceOnUse">
<stop stop-color="#00AFAF" stop-opacity="0.2"/>
<stop offset="1" stop-opacity="0.5"/>
</linearGradient>
<linearGradient id="paint1_linear_361_154" x1="46.5" y1="66" x2="46.5" y2="126" gradientUnits="userSpaceOnUse">
<stop stop-color="#00AFAF" stop-opacity="0.2"/>
<stop offset="1" stop-opacity="0.5"/>
</linearGradient>
<linearGradient id="paint2_linear_361_154" x1="46.5" y1="132" x2="46.5" y2="192" gradientUnits="userSpaceOnUse">
<stop stop-color="#00AFAF" stop-opacity="0.2"/>
<stop offset="1" stop-opacity="0.5"/>
</linearGradient>
<linearGradient id="paint3_linear_361_154" x1="148.5" y1="132" x2="148.5" y2="192" gradientUnits="userSpaceOnUse">
<stop stop-color="#00AFAF" stop-opacity="0.2"/>
<stop offset="1" stop-opacity="0.5"/>
</linearGradient>
<linearGradient id="paint4_linear_361_154" x1="48.5" y1="0" x2="48.5" y2="60" gradientUnits="userSpaceOnUse">
<stop stop-color="#00AFAF" stop-opacity="0.2"/>
<stop offset="1" stop-opacity="0.5"/>
</linearGradient>
<linearGradient id="paint5_linear_361_154" x1="48.5" y1="0" x2="48.5" y2="60" gradientUnits="userSpaceOnUse">
<stop stop-color="#00AFAF" stop-opacity="0.2"/>
<stop offset="1" stop-opacity="0.5"/>
</linearGradient>
<linearGradient id="paint6_linear_361_154" x1="48.5" y1="0" x2="48.5" y2="60" gradientUnits="userSpaceOnUse">
<stop stop-color="#00AFAF" stop-opacity="0.2"/>
<stop offset="1" stop-opacity="0.5"/>
</linearGradient>
<linearGradient id="paint7_linear_361_154" x1="48.5" y1="0" x2="48.5" y2="60" gradientUnits="userSpaceOnUse">
<stop stop-color="#00AFAF" stop-opacity="0.2"/>
<stop offset="1" stop-opacity="0.5"/>
</linearGradient>
</defs>
</svg>
