<svg width="205" height="47" viewBox="0 0 205 47" fill="none" xmlns="http://www.w3.org/2000/svg">
<rect x="0.5" y="0.5" width="204" height="46" rx="15.5" fill="#D9D9D9" fill-opacity="0.15"/>
<rect x="0.5" y="0.5" width="204" height="46" rx="15.5" stroke="url(#paint0_linear_365_662)"/>
<g filter="url(#filter1_d_365_662)">
<path d="M41.6549 29.5V19.07H42.7749V29.5H41.6549ZM45.0829 29.5V21.996H46.1329V23.452L45.8949 23.396C46.0815 22.9107 46.3849 22.528 46.8049 22.248C47.2342 21.968 47.7289 21.828 48.2889 21.828C48.8209 21.828 49.2969 21.9493 49.7169 22.192C50.1462 22.4347 50.4822 22.7707 50.7249 23.2C50.9769 23.62 51.1029 24.096 51.1029 24.628V29.5H50.0529V25.034C50.0529 24.5767 49.9689 24.1893 49.8009 23.872C49.6422 23.5547 49.4135 23.312 49.1149 23.144C48.8255 22.9667 48.4895 22.878 48.1069 22.878C47.7242 22.878 47.3835 22.9667 47.0849 23.144C46.7862 23.312 46.5529 23.5593 46.3849 23.886C46.2169 24.2033 46.1329 24.586 46.1329 25.034V29.5H45.0829ZM55.9783 29.584C55.3063 29.584 54.7883 29.388 54.4243 28.996C54.0603 28.604 53.8783 28.044 53.8783 27.316V23.046H52.4923V21.996H52.8423C53.1596 21.996 53.4116 21.8933 53.5983 21.688C53.7849 21.4733 53.8783 21.2073 53.8783 20.89V20.26H54.9283V21.996H56.5803V23.046H54.9283V27.316C54.9283 27.568 54.9656 27.792 55.0403 27.988C55.1149 28.1747 55.2409 28.324 55.4183 28.436C55.6049 28.548 55.8523 28.604 56.1603 28.604C56.2349 28.604 56.3236 28.5993 56.4263 28.59C56.5289 28.5807 56.6176 28.5713 56.6923 28.562V29.5C56.5803 29.528 56.4543 29.5467 56.3143 29.556C56.1743 29.5747 56.0623 29.584 55.9783 29.584ZM61.6786 29.668C60.9786 29.668 60.3439 29.5 59.7746 29.164C59.2146 28.8187 58.7712 28.3473 58.4446 27.75C58.1179 27.1527 57.9546 26.476 57.9546 25.72C57.9546 24.964 58.1132 24.2967 58.4306 23.718C58.7479 23.13 59.1772 22.668 59.7186 22.332C60.2692 21.996 60.8852 21.828 61.5666 21.828C62.1079 21.828 62.5886 21.9307 63.0086 22.136C63.4379 22.332 63.8019 22.6027 64.1006 22.948C64.3992 23.284 64.6279 23.6667 64.7866 24.096C64.9452 24.516 65.0246 24.95 65.0246 25.398C65.0246 25.4913 65.0199 25.5987 65.0106 25.72C65.0012 25.832 64.9872 25.9487 64.9686 26.07H58.6266V25.09H64.3666L63.8626 25.51C63.9466 24.9967 63.8859 24.5393 63.6806 24.138C63.4846 23.7273 63.1999 23.4053 62.8266 23.172C62.4532 22.9293 62.0332 22.808 61.5666 22.808C61.0999 22.808 60.6659 22.9293 60.2646 23.172C59.8726 23.4147 59.5646 23.7553 59.3406 24.194C59.1166 24.6233 59.0279 25.1367 59.0746 25.734C59.0279 26.3313 59.1212 26.854 59.3546 27.302C59.5972 27.7407 59.9239 28.0813 60.3346 28.324C60.7546 28.5667 61.2026 28.688 61.6786 28.688C62.2292 28.688 62.6912 28.5573 63.0646 28.296C63.4379 28.0347 63.7412 27.708 63.9746 27.316L64.8706 27.792C64.7212 28.128 64.4926 28.4407 64.1846 28.73C63.8766 29.01 63.5079 29.2387 63.0786 29.416C62.6586 29.584 62.1919 29.668 61.6786 29.668ZM66.8759 29.5V21.996H67.9259V23.228L67.7859 23.046C67.9632 22.6913 68.2292 22.4113 68.5839 22.206C68.9479 22.0007 69.3865 21.898 69.8999 21.898H70.3759V22.948H69.7179C69.1765 22.948 68.7425 23.116 68.4159 23.452C68.0892 23.788 67.9259 24.264 67.9259 24.88V29.5H66.8759ZM72.3763 29.5V23.046H70.8783V21.996H72.3763V21.324C72.3763 20.8013 72.493 20.3627 72.7263 20.008C72.9597 19.644 73.2677 19.3687 73.6503 19.182C74.033 18.9953 74.4437 18.902 74.8823 18.902C74.9757 18.902 75.083 18.9113 75.2043 18.93C75.3257 18.9393 75.4237 18.9533 75.4983 18.972V19.924C75.433 19.9053 75.3443 19.896 75.2323 19.896C75.1203 19.8867 75.041 19.882 74.9943 19.882C74.5463 19.882 74.173 19.9893 73.8743 20.204C73.5757 20.4187 73.4263 20.792 73.4263 21.324V21.996H75.2603V23.046H73.4263V29.5H72.3763ZM78.8486 29.668C78.3726 29.668 77.9479 29.5793 77.5746 29.402C77.2013 29.2153 76.9073 28.9633 76.6926 28.646C76.4779 28.3287 76.3706 27.9647 76.3706 27.554C76.3706 27.162 76.4546 26.8073 76.6226 26.49C76.7906 26.1633 77.0519 25.888 77.4066 25.664C77.7613 25.44 78.2139 25.2813 78.7646 25.188L81.7046 24.698V25.65L79.0166 26.098C78.4753 26.1913 78.0833 26.364 77.8406 26.616C77.6073 26.868 77.4906 27.1667 77.4906 27.512C77.4906 27.848 77.6213 28.1327 77.8826 28.366C78.1533 28.5993 78.4986 28.716 78.9186 28.716C79.4319 28.716 79.8799 28.6087 80.2626 28.394C80.6453 28.17 80.9439 27.8713 81.1586 27.498C81.3733 27.1247 81.4806 26.7093 81.4806 26.252V24.348C81.4806 23.9 81.3173 23.536 80.9906 23.256C80.6639 22.976 80.2393 22.836 79.7166 22.836C79.2593 22.836 78.8579 22.9527 78.5126 23.186C78.1673 23.41 77.9106 23.704 77.7426 24.068L76.7906 23.55C76.9306 23.2327 77.1499 22.9433 77.4486 22.682C77.7566 22.4207 78.1066 22.2153 78.4986 22.066C78.8906 21.9073 79.2966 21.828 79.7166 21.828C80.2673 21.828 80.7526 21.9353 81.1726 22.15C81.6019 22.3647 81.9333 22.6633 82.1666 23.046C82.4093 23.4193 82.5306 23.8533 82.5306 24.348V29.5H81.4806V28.002L81.6346 28.156C81.5039 28.436 81.2986 28.6927 81.0186 28.926C80.7479 29.15 80.4259 29.332 80.0526 29.472C79.6886 29.6027 79.2873 29.668 78.8486 29.668ZM88.1203 29.668C87.383 29.668 86.7343 29.4953 86.1743 29.15C85.6143 28.8047 85.1756 28.338 84.8583 27.75C84.541 27.1527 84.3823 26.4807 84.3823 25.734C84.3823 24.9873 84.541 24.32 84.8583 23.732C85.1756 23.144 85.6143 22.682 86.1743 22.346C86.7343 22.0007 87.383 21.828 88.1203 21.828C88.587 21.828 89.0256 21.912 89.4363 22.08C89.847 22.248 90.211 22.4767 90.5283 22.766C90.8456 23.046 91.0836 23.3727 91.2423 23.746L90.2903 24.236C90.1036 23.8347 89.819 23.508 89.4363 23.256C89.0536 23.004 88.615 22.878 88.1203 22.878C87.6256 22.878 87.1776 23.004 86.7763 23.256C86.3843 23.4987 86.0716 23.8393 85.8383 24.278C85.6143 24.7073 85.5023 25.1973 85.5023 25.748C85.5023 26.2893 85.6143 26.7793 85.8383 27.218C86.0716 27.6473 86.3843 27.988 86.7763 28.24C87.1776 28.492 87.6256 28.618 88.1203 28.618C88.615 28.618 89.049 28.492 89.4223 28.24C89.805 27.988 90.0943 27.652 90.2903 27.232L91.2423 27.75C91.0836 28.114 90.8456 28.4407 90.5283 28.73C90.211 29.0193 89.847 29.248 89.4363 29.416C89.0256 29.584 88.587 29.668 88.1203 29.668ZM96.5008 29.668C95.8008 29.668 95.1662 29.5 94.5968 29.164C94.0368 28.8187 93.5935 28.3473 93.2668 27.75C92.9402 27.1527 92.7768 26.476 92.7768 25.72C92.7768 24.964 92.9355 24.2967 93.2528 23.718C93.5702 23.13 93.9995 22.668 94.5408 22.332C95.0915 21.996 95.7075 21.828 96.3888 21.828C96.9302 21.828 97.4108 21.9307 97.8308 22.136C98.2602 22.332 98.6242 22.6027 98.9228 22.948C99.2215 23.284 99.4502 23.6667 99.6088 24.096C99.7675 24.516 99.8468 24.95 99.8468 25.398C99.8468 25.4913 99.8422 25.5987 99.8328 25.72C99.8235 25.832 99.8095 25.9487 99.7908 26.07H93.4488V25.09H99.1888L98.6848 25.51C98.7688 24.9967 98.7082 24.5393 98.5028 24.138C98.3068 23.7273 98.0222 23.4053 97.6488 23.172C97.2755 22.9293 96.8555 22.808 96.3888 22.808C95.9222 22.808 95.4882 22.9293 95.0868 23.172C94.6948 23.4147 94.3868 23.7553 94.1628 24.194C93.9388 24.6233 93.8502 25.1367 93.8968 25.734C93.8502 26.3313 93.9435 26.854 94.1768 27.302C94.4195 27.7407 94.7462 28.0813 95.1568 28.324C95.5768 28.5667 96.0248 28.688 96.5008 28.688C97.0515 28.688 97.5135 28.5573 97.8868 28.296C98.2602 28.0347 98.5635 27.708 98.7968 27.316L99.6928 27.792C99.5435 28.128 99.3148 28.4407 99.0068 28.73C98.6988 29.01 98.3302 29.2387 97.9008 29.416C97.4808 29.584 97.0142 29.668 96.5008 29.668ZM104.231 29.5V19.07H105.351V29.5H104.231ZM107.659 29.5V21.996H108.709V23.452L108.471 23.396C108.658 22.9107 108.961 22.528 109.381 22.248C109.81 21.968 110.305 21.828 110.865 21.828C111.397 21.828 111.873 21.9493 112.293 22.192C112.722 22.4347 113.058 22.7707 113.301 23.2C113.553 23.62 113.679 24.096 113.679 24.628V29.5H112.629V25.034C112.629 24.5767 112.545 24.1893 112.377 23.872C112.218 23.5547 111.99 23.312 111.691 23.144C111.402 22.9667 111.066 22.878 110.683 22.878C110.3 22.878 109.96 22.9667 109.661 23.144C109.362 23.312 109.129 23.5593 108.961 23.886C108.793 24.2033 108.709 24.586 108.709 25.034V29.5H107.659ZM118.554 29.584C117.882 29.584 117.364 29.388 117 28.996C116.636 28.604 116.454 28.044 116.454 27.316V23.046H115.068V21.996H115.418C115.736 21.996 115.988 21.8933 116.174 21.688C116.361 21.4733 116.454 21.2073 116.454 20.89V20.26H117.504V21.996H119.156V23.046H117.504V27.316C117.504 27.568 117.542 27.792 117.616 27.988C117.691 28.1747 117.817 28.324 117.994 28.436C118.181 28.548 118.428 28.604 118.736 28.604C118.811 28.604 118.9 28.5993 119.002 28.59C119.105 28.5807 119.194 28.5713 119.268 28.562V29.5C119.156 29.528 119.03 29.5467 118.89 29.556C118.75 29.5747 118.638 29.584 118.554 29.584ZM124.255 29.668C123.555 29.668 122.92 29.5 122.351 29.164C121.791 28.8187 121.347 28.3473 121.021 27.75C120.694 27.1527 120.531 26.476 120.531 25.72C120.531 24.964 120.689 24.2967 121.007 23.718C121.324 23.13 121.753 22.668 122.295 22.332C122.845 21.996 123.461 21.828 124.143 21.828C124.684 21.828 125.165 21.9307 125.585 22.136C126.014 22.332 126.378 22.6027 126.677 22.948C126.975 23.284 127.204 23.6667 127.363 24.096C127.521 24.516 127.601 24.95 127.601 25.398C127.601 25.4913 127.596 25.5987 127.587 25.72C127.577 25.832 127.563 25.9487 127.545 26.07H121.203V25.09H126.943L126.439 25.51C126.523 24.9967 126.462 24.5393 126.257 24.138C126.061 23.7273 125.776 23.4053 125.403 23.172C125.029 22.9293 124.609 22.808 124.143 22.808C123.676 22.808 123.242 22.9293 122.841 23.172C122.449 23.4147 122.141 23.7553 121.917 24.194C121.693 24.6233 121.604 25.1367 121.651 25.734C121.604 26.3313 121.697 26.854 121.931 27.302C122.173 27.7407 122.5 28.0813 122.911 28.324C123.331 28.5667 123.779 28.688 124.255 28.688C124.805 28.688 125.267 28.5573 125.641 28.296C126.014 28.0347 126.317 27.708 126.551 27.316L127.447 27.792C127.297 28.128 127.069 28.4407 126.761 28.73C126.453 29.01 126.084 29.2387 125.655 29.416C125.235 29.584 124.768 29.668 124.255 29.668ZM129.452 29.5V21.996H130.502V23.228L130.362 23.046C130.539 22.6913 130.805 22.4113 131.16 22.206C131.524 22.0007 131.963 21.898 132.476 21.898H132.952V22.948H132.294C131.753 22.948 131.319 23.116 130.992 23.452C130.665 23.788 130.502 24.264 130.502 24.88V29.5H129.452ZM136.352 29.668C135.876 29.668 135.452 29.5793 135.078 29.402C134.705 29.2153 134.411 28.9633 134.196 28.646C133.982 28.3287 133.874 27.9647 133.874 27.554C133.874 27.162 133.958 26.8073 134.126 26.49C134.294 26.1633 134.556 25.888 134.91 25.664C135.265 25.44 135.718 25.2813 136.268 25.188L139.208 24.698V25.65L136.52 26.098C135.979 26.1913 135.587 26.364 135.344 26.616C135.111 26.868 134.994 27.1667 134.994 27.512C134.994 27.848 135.125 28.1327 135.386 28.366C135.657 28.5993 136.002 28.716 136.422 28.716C136.936 28.716 137.384 28.6087 137.766 28.394C138.149 28.17 138.448 27.8713 138.662 27.498C138.877 27.1247 138.984 26.7093 138.984 26.252V24.348C138.984 23.9 138.821 23.536 138.494 23.256C138.168 22.976 137.743 22.836 137.22 22.836C136.763 22.836 136.362 22.9527 136.016 23.186C135.671 23.41 135.414 23.704 135.246 24.068L134.294 23.55C134.434 23.2327 134.654 22.9433 134.952 22.682C135.26 22.4207 135.61 22.2153 136.002 22.066C136.394 21.9073 136.8 21.828 137.22 21.828C137.771 21.828 138.256 21.9353 138.676 22.15C139.106 22.3647 139.437 22.6633 139.67 23.046C139.913 23.4193 140.034 23.8533 140.034 24.348V29.5H138.984V28.002L139.138 28.156C139.008 28.436 138.802 28.6927 138.522 28.926C138.252 29.15 137.93 29.332 137.556 29.472C137.192 29.6027 136.791 29.668 136.352 29.668ZM144.927 29.584C144.255 29.584 143.737 29.388 143.373 28.996C143.009 28.604 142.827 28.044 142.827 27.316V23.046H141.441V21.996H141.791C142.109 21.996 142.361 21.8933 142.547 21.688C142.734 21.4733 142.827 21.2073 142.827 20.89V20.26H143.877V21.996H145.529V23.046H143.877V27.316C143.877 27.568 143.915 27.792 143.989 27.988C144.064 28.1747 144.19 28.324 144.367 28.436C144.554 28.548 144.801 28.604 145.109 28.604C145.184 28.604 145.273 28.5993 145.375 28.59C145.478 28.5807 145.567 28.5713 145.641 28.562V29.5C145.529 29.528 145.403 29.5467 145.263 29.556C145.123 29.5747 145.011 29.584 144.927 29.584ZM147.485 29.5V21.996H148.535V29.5H147.485ZM147.485 20.61V19.07H148.535V20.61H147.485ZM152.686 29.5L149.76 21.996H150.936L153.4 28.576H153.022L155.5 21.996H156.69L153.736 29.5H152.686ZM159.813 29.668C159.337 29.668 158.913 29.5793 158.539 29.402C158.166 29.2153 157.872 28.9633 157.657 28.646C157.443 28.3287 157.335 27.9647 157.335 27.554C157.335 27.162 157.419 26.8073 157.587 26.49C157.755 26.1633 158.017 25.888 158.371 25.664C158.726 25.44 159.179 25.2813 159.729 25.188L162.669 24.698V25.65L159.981 26.098C159.44 26.1913 159.048 26.364 158.805 26.616C158.572 26.868 158.455 27.1667 158.455 27.512C158.455 27.848 158.586 28.1327 158.847 28.366C159.118 28.5993 159.463 28.716 159.883 28.716C160.397 28.716 160.845 28.6087 161.227 28.394C161.61 28.17 161.909 27.8713 162.123 27.498C162.338 27.1247 162.445 26.7093 162.445 26.252V24.348C162.445 23.9 162.282 23.536 161.955 23.256C161.629 22.976 161.204 22.836 160.681 22.836C160.224 22.836 159.823 22.9527 159.477 23.186C159.132 23.41 158.875 23.704 158.707 24.068L157.755 23.55C157.895 23.2327 158.115 22.9433 158.413 22.682C158.721 22.4207 159.071 22.2153 159.463 22.066C159.855 21.9073 160.261 21.828 160.681 21.828C161.232 21.828 161.717 21.9353 162.137 22.15C162.567 22.3647 162.898 22.6633 163.131 23.046C163.374 23.4193 163.495 23.8533 163.495 24.348V29.5H162.445V28.002L162.599 28.156C162.469 28.436 162.263 28.6927 161.983 28.926C161.713 29.15 161.391 29.332 161.017 29.472C160.653 29.6027 160.252 29.668 159.813 29.668Z" fill="white"/>
</g>
<defs>
<filter id="filter1_d_365_662" x="37.6548" y="18.902" width="129.841" height="24.766" filterUnits="userSpaceOnUse" color-interpolation-filters="sRGB">
<feFlood flood-opacity="0" result="BackgroundImageFix"/>
<feColorMatrix in="SourceAlpha" type="matrix" values="0 0 0 0 0 0 0 0 0 0 0 0 0 0 0 0 0 0 127 0" result="hardAlpha"/>
<feOffset dy="10"/>
<feGaussianBlur stdDeviation="2"/>
<feComposite in2="hardAlpha" operator="out"/>
<feColorMatrix type="matrix" values="0 0 0 0 0 0 0 0 0 0 0 0 0 0 0 0 0 0 0.25 0"/>
<feBlend mode="normal" in2="BackgroundImageFix" result="effect1_dropShadow_365_662"/>
<feBlend mode="normal" in="SourceGraphic" in2="effect1_dropShadow_365_662" result="shape"/>
</filter>
<linearGradient id="paint0_linear_365_662" x1="1" y1="23.5" x2="218.2" y2="7.34457" gradientUnits="userSpaceOnUse">
<stop stop-color="#14A3A3"/>
<stop offset="0.501475" stop-color="white"/>
<stop offset="1" stop-color="#0D6549"/>
</linearGradient>
</defs>
</svg>
