<svg width="65" height="57" viewBox="0 0 65 57" fill="none" xmlns="http://www.w3.org/2000/svg">
<g filter="url(#filter0_d_361_118)">
<rect x="5.31738" y="1.5" width="54" height="40" rx="10" fill="url(#paint0_linear_361_118)" fill-opacity="0.18" shape-rendering="crispEdges"/>
<rect x="5.31738" y="1.5" width="54" height="40" rx="10" fill="black" fill-opacity="0.2" shape-rendering="crispEdges"/>
<rect x="4.81738" y="1" width="55" height="41" rx="10.5" stroke="url(#paint1_linear_361_118)" shape-rendering="crispEdges"/>
<path d="M22.3174 11.5V31.5H42.3174V11.5H22.3174ZM33.2013 27.0982C33.2013 29.0446 32.0585 29.933 30.3933 29.933C28.8888 29.933 28.0183 29.1562 27.5718 28.2143L29.1031 27.2902C29.3977 27.8125 29.6656 28.2545 30.3129 28.2545C30.929 28.2545 31.3218 28.0134 31.3218 27.0714V20.683H33.2013V27.0982ZM37.6477 29.933C35.9022 29.933 34.7727 29.1027 34.2236 28.0134L35.7549 27.1295C36.1567 27.7857 36.6835 28.2723 37.6076 28.2723C38.3843 28.2723 38.8843 27.8839 38.8843 27.3438C38.8843 26.7009 38.3754 26.4732 37.5138 26.0938L37.0451 25.8929C35.6879 25.317 34.7906 24.5893 34.7906 23.058C34.7906 21.6473 35.8665 20.5759 37.5406 20.5759C38.737 20.5759 39.5942 20.9911 40.2102 22.0804L38.746 23.0179C38.4245 22.442 38.0763 22.2143 37.5361 22.2143C36.987 22.2143 36.6388 22.5625 36.6388 23.0179C36.6388 23.5804 36.987 23.808 37.7951 24.1607L38.2638 24.3616C39.862 25.0446 40.7593 25.7455 40.7593 27.317C40.7593 29.0045 39.429 29.933 37.6477 29.933Z" fill="url(#paint2_linear_361_118)"/>
</g>
<defs>
<filter id="filter0_d_361_118" x="0.317383" y="0.5" width="64" height="56" filterUnits="userSpaceOnUse" color-interpolation-filters="sRGB">
<feFlood flood-opacity="0" result="BackgroundImageFix"/>
<feColorMatrix in="SourceAlpha" type="matrix" values="0 0 0 0 0 0 0 0 0 0 0 0 0 0 0 0 0 0 127 0" result="hardAlpha"/>
<feOffset dy="10"/>
<feGaussianBlur stdDeviation="2"/>
<feComposite in2="hardAlpha" operator="out"/>
<feColorMatrix type="matrix" values="0 0 0 0 0 0 0 0 0 0 0 0 0 0 0 0 0 0 0.25 0"/>
<feBlend mode="normal" in2="BackgroundImageFix" result="effect1_dropShadow_361_118"/>
<feBlend mode="normal" in="SourceGraphic" in2="effect1_dropShadow_361_118" result="shape"/>
</filter>
<linearGradient id="paint0_linear_361_118" x1="5.31738" y1="21.5" x2="59.3174" y2="21.5" gradientUnits="userSpaceOnUse">
<stop stop-color="#D9D9D9"/>
<stop offset="1" stop-color="#737373"/>
</linearGradient>
<linearGradient id="paint1_linear_361_118" x1="5.31738" y1="21.5" x2="59.3174" y2="21.5" gradientUnits="userSpaceOnUse">
<stop stop-color="#14A3A3"/>
<stop offset="0.5" stop-color="white"/>
<stop offset="1" stop-color="#0D6549"/>
</linearGradient>
<linearGradient id="paint2_linear_361_118" x1="32.3174" y1="11.5" x2="32.3174" y2="31.5" gradientUnits="userSpaceOnUse">
<stop stop-color="white"/>
<stop offset="1" stop-color="#999999"/>
</linearGradient>
</defs>
</svg>
