<svg width="65" height="55" viewBox="0 0 65 55" fill="none" xmlns="http://www.w3.org/2000/svg">
<g filter="url(#filter0_d_361_108)">
<rect x="5.31738" y="1" width="54" height="39" rx="10" fill="url(#paint0_linear_361_108)" fill-opacity="0.18" shape-rendering="crispEdges"/>
<rect x="5.31738" y="1" width="54" height="39" rx="10" fill="black" fill-opacity="0.2" shape-rendering="crispEdges"/>
<rect x="4.81738" y="0.5" width="55" height="40" rx="10.5" stroke="url(#paint1_linear_361_108)" shape-rendering="crispEdges"/>
<path d="M32.3129 32C32.013 32 31.7086 31.9178 31.4445 31.7627L28.6826 30.0968C28.2708 29.8595 28.4723 29.7774 28.6066 29.7317C29.1571 29.5355 29.269 29.4944 29.8554 29.1521C29.9181 29.1156 29.9987 29.1293 30.0613 29.1704L32.1831 30.4528C32.2592 30.4985 32.3666 30.4985 32.4382 30.4528L40.7059 25.5877C40.782 25.542 40.8313 25.4507 40.8313 25.3595V15.6291C40.8313 15.5333 40.782 15.4466 40.7014 15.3964L32.4382 10.5358C32.3621 10.4901 32.2592 10.4901 32.1831 10.5358L23.9244 15.4009C23.8438 15.4466 23.7946 15.5379 23.7946 15.6337V25.3595C23.7946 25.4507 23.8438 25.542 23.9244 25.5831L26.1894 26.9158C27.4203 27.541 28.1724 26.8062 28.1724 26.0623V16.4598C28.1724 16.3228 28.2798 16.2179 28.4141 16.2179H29.4615C29.5913 16.2179 29.7032 16.3228 29.7032 16.4598V26.0669C29.7032 27.7373 28.808 28.6957 27.2547 28.6957C26.7758 28.6957 26.3997 28.6957 25.3523 28.1663L23.1858 26.8929C22.6486 26.578 22.3174 25.9893 22.3174 25.3549V15.6291C22.3174 14.9993 22.6486 14.406 23.1858 14.0911L31.4445 9.22592C31.9682 8.92469 32.6621 8.92469 33.1813 9.22592L41.449 14.0956C41.9861 14.4106 42.3174 14.9993 42.3174 15.6337V25.3595C42.3174 25.9893 41.9861 26.578 41.449 26.8975L33.1813 31.7627C32.9172 31.9178 32.6173 32 32.3129 32ZM38.987 22.4112C38.987 20.5901 37.7784 20.1064 35.2404 19.7641C32.671 19.4172 32.4114 19.2392 32.4114 18.6276C32.4114 18.121 32.6307 17.4456 34.5331 17.4456C36.2296 17.4456 36.8563 17.8198 37.116 18.9882C37.1383 19.0977 37.2368 19.1799 37.3487 19.1799H38.423C38.4902 19.1799 38.5528 19.1525 38.5976 19.1023C38.6424 19.0521 38.6647 18.9836 38.6603 18.9152C38.4946 16.9025 37.1831 15.9669 34.5331 15.9669C32.1741 15.9669 30.7686 16.9801 30.7686 18.6824C30.7686 20.5262 32.1697 21.0374 34.4302 21.2656C37.1383 21.5349 37.3487 21.9411 37.3487 22.4842C37.3487 23.4243 36.6057 23.826 34.8644 23.826C32.6755 23.826 32.1965 23.2646 32.0354 22.1556C32.0175 22.0369 31.919 21.9502 31.7981 21.9502H30.7283C30.594 21.9502 30.4911 22.0597 30.4911 22.1921C30.4911 23.6115 31.2476 25.3047 34.8689 25.3047C37.483 25.3001 38.987 24.2459 38.987 22.4112Z" fill="url(#paint2_linear_361_108)"/>
</g>
<defs>
<filter id="filter0_d_361_108" x="0.317383" y="0" width="64" height="55" filterUnits="userSpaceOnUse" color-interpolation-filters="sRGB">
<feFlood flood-opacity="0" result="BackgroundImageFix"/>
<feColorMatrix in="SourceAlpha" type="matrix" values="0 0 0 0 0 0 0 0 0 0 0 0 0 0 0 0 0 0 127 0" result="hardAlpha"/>
<feOffset dy="10"/>
<feGaussianBlur stdDeviation="2"/>
<feComposite in2="hardAlpha" operator="out"/>
<feColorMatrix type="matrix" values="0 0 0 0 0 0 0 0 0 0 0 0 0 0 0 0 0 0 0.25 0"/>
<feBlend mode="normal" in2="BackgroundImageFix" result="effect1_dropShadow_361_108"/>
<feBlend mode="normal" in="SourceGraphic" in2="effect1_dropShadow_361_108" result="shape"/>
</filter>
<linearGradient id="paint0_linear_361_108" x1="5.31738" y1="20.5" x2="59.3174" y2="20.5" gradientUnits="userSpaceOnUse">
<stop stop-color="#D9D9D9"/>
<stop offset="1" stop-color="#737373"/>
</linearGradient>
<linearGradient id="paint1_linear_361_108" x1="5.31738" y1="20.5" x2="59.3174" y2="20.5" gradientUnits="userSpaceOnUse">
<stop stop-color="#14A3A3"/>
<stop offset="0.5" stop-color="white"/>
<stop offset="1" stop-color="#0D6549"/>
</linearGradient>
<linearGradient id="paint2_linear_361_108" x1="32.3174" y1="9" x2="32.3174" y2="32" gradientUnits="userSpaceOnUse">
<stop stop-color="white"/>
<stop offset="1" stop-color="#999999"/>
</linearGradient>
</defs>
</svg>
