<svg width="68" height="57" viewBox="0 0 68 57" fill="none" xmlns="http://www.w3.org/2000/svg">
<g filter="url(#filter0_d_361_103)">
<rect x="5.31738" y="1.5" width="57" height="40" rx="10" fill="url(#paint0_linear_361_103)" fill-opacity="0.18" shape-rendering="crispEdges"/>
<rect x="5.31738" y="1.5" width="57" height="40" rx="10" fill="black" fill-opacity="0.2" shape-rendering="crispEdges"/>
<rect x="4.81738" y="1" width="58" height="41" rx="10.5" stroke="url(#paint1_linear_361_103)" shape-rendering="crispEdges"/>
<path d="M40.1037 17.9812C39.8611 17.9009 39.6186 17.825 39.376 17.7536C39.4164 17.5884 39.4523 17.4232 39.4883 17.2581C40.0408 14.5975 39.677 12.4592 38.4506 11.7539C37.2691 11.0798 35.342 11.7807 33.3924 13.4681C33.1992 13.6333 33.0105 13.8074 32.8309 13.9815C32.7096 13.8654 32.5838 13.7493 32.458 13.6377C30.4141 11.8342 28.3656 11.0754 27.1393 11.7851C25.9623 12.4637 25.6119 14.477 26.1061 16.9947C26.1555 17.2447 26.2094 17.4902 26.2723 17.7402C25.9848 17.8205 25.7018 17.9098 25.4367 18.0036C23.0379 18.8294 21.3174 20.1329 21.3174 21.4811C21.3174 22.8738 23.1502 24.2711 25.6434 25.1193C25.8455 25.1862 26.0477 25.2532 26.2543 25.3112C26.1869 25.579 26.1285 25.8424 26.0746 26.1147C25.6029 28.5923 25.9713 30.5565 27.1482 31.2305C28.3611 31.9269 30.4006 31.2127 32.3861 29.4851C32.5434 29.3467 32.7006 29.2039 32.8578 29.0521C33.0555 29.244 33.2621 29.4271 33.4688 29.6056C35.3914 31.2484 37.2916 31.9135 38.4641 31.2395C39.677 30.5431 40.0723 28.4316 39.5602 25.8603C39.5197 25.6639 39.4748 25.463 39.4254 25.2576C39.5691 25.2175 39.7084 25.1728 39.8477 25.1282C42.4396 24.2755 44.3174 22.8962 44.3174 21.4811C44.3174 20.1284 42.5475 18.816 40.1037 17.9812ZM34.0258 14.1913C35.6969 12.7449 37.2557 12.178 37.9654 12.5842C38.7246 13.0172 39.0166 14.7671 38.5404 17.0661C38.509 17.2179 38.4775 17.3652 38.4371 17.5125C37.4398 17.2893 36.4291 17.1286 35.4139 17.0393C34.8299 16.209 34.192 15.4144 33.5002 14.6689C33.6754 14.5037 33.8461 14.3475 34.0258 14.1913ZM28.8283 23.7979C29.0574 24.1863 29.291 24.5746 29.5381 24.9541C28.8373 24.8782 28.141 24.7666 27.4537 24.6193C27.6514 23.9765 27.8984 23.3113 28.1859 22.6328C28.3926 23.0256 28.6037 23.414 28.8283 23.7979ZM27.4672 18.4276C28.1141 18.2848 28.8014 18.1687 29.5156 18.0794C29.2775 18.45 29.0439 18.8294 28.8238 19.2133C28.6037 19.5928 28.3881 19.9811 28.1859 20.374C27.9029 19.7088 27.6648 19.0571 27.4672 18.4276ZM28.698 21.5034C28.9945 20.8873 29.318 20.2847 29.6594 19.691C30.0008 19.0972 30.3691 18.5214 30.7555 17.9545C31.4293 17.9053 32.1166 17.8786 32.8174 17.8786C33.5182 17.8786 34.21 17.9053 34.8793 17.9545C35.2611 18.5169 35.625 19.0928 35.9709 19.682C36.3168 20.2713 36.6402 20.8739 36.9457 21.4855C36.6447 22.1016 36.3213 22.7087 35.9754 23.3068C35.634 23.9006 35.2701 24.4764 34.8883 25.0478C34.2189 25.0969 33.5227 25.1193 32.8174 25.1193C32.1121 25.1193 31.4293 25.0969 30.7689 25.0568C30.3781 24.4898 30.0098 23.9095 29.6639 23.3158C29.318 22.7221 28.999 22.1194 28.698 21.5034ZM36.8109 23.789C37.04 23.3961 37.2557 22.9988 37.4668 22.5971C37.7543 23.2444 38.0059 23.9006 38.226 24.5746C37.5297 24.7309 36.8244 24.8514 36.1146 24.9318C36.3572 24.5568 36.5863 24.1729 36.8109 23.789ZM37.4578 20.374C37.2467 19.9811 37.0311 19.5883 36.8064 19.2044C36.5863 18.8249 36.3572 18.45 36.1191 18.0794C36.8424 18.1687 37.5342 18.2893 38.1811 18.4366C37.9744 19.0972 37.7318 19.7401 37.4578 20.374ZM32.8264 15.3519C33.298 15.8608 33.7428 16.3965 34.1561 16.95C33.2666 16.9099 32.3727 16.9099 31.4832 16.95C31.9234 16.3742 32.3771 15.8385 32.8264 15.3519ZM27.6154 12.6155C28.3701 12.178 30.0457 12.8029 31.8111 14.3564C31.9234 14.4546 32.0357 14.5618 32.1525 14.6689C31.4563 15.4144 30.8139 16.209 30.2254 17.0393C29.2102 17.1286 28.2039 17.2848 27.2066 17.5036C27.1482 17.2759 27.0988 17.0438 27.0494 16.8117C26.6271 14.6511 26.9057 13.0217 27.6154 12.6155ZM26.5148 24.3827C26.3262 24.3291 26.142 24.2711 25.9578 24.2086C25.001 23.9095 23.9139 23.4363 23.1277 22.8158C22.674 22.5033 22.3686 22.0212 22.2832 21.4811C22.2832 20.6641 23.7027 19.6195 25.7512 18.9098C26.0072 18.8205 26.2678 18.7401 26.5283 18.6642C26.8338 19.6329 27.2021 20.5838 27.6289 21.5034C27.1977 22.4364 26.8248 23.4006 26.5148 24.3827ZM31.7527 28.7574C31.0115 29.4315 30.1535 29.9672 29.2191 30.3333C28.7205 30.5699 28.1455 30.5922 27.6334 30.3913C26.9191 29.9806 26.6227 28.4048 27.027 26.2844C27.0764 26.0344 27.1303 25.7844 27.1932 25.5389C28.1994 25.7531 29.2146 25.9005 30.2434 25.9763C30.8363 26.8111 31.4877 27.6102 32.184 28.3601C32.0402 28.4985 31.8965 28.6325 31.7527 28.7574ZM32.8533 27.6727C32.3951 27.1816 31.9369 26.637 31.4922 26.0522C31.9234 26.0701 32.3682 26.079 32.8174 26.079C33.2801 26.079 33.7338 26.0701 34.183 26.0478C33.7697 26.6147 33.325 27.1549 32.8533 27.6727ZM38.7246 29.0119C38.6842 29.5565 38.4146 30.0654 37.9834 30.4091C37.2691 30.8198 35.7463 30.2842 34.1021 28.8824C33.9135 28.7217 33.7248 28.5476 33.5316 28.3691C34.2189 27.6147 34.8523 26.8156 35.4273 25.9763C36.4561 25.8915 37.4803 25.7353 38.491 25.5076C38.5359 25.6906 38.5764 25.8737 38.6123 26.0522C38.8324 27.0165 38.8684 28.0209 38.7246 29.0119ZM39.5422 24.213C39.4164 24.2532 39.2906 24.2934 39.1604 24.3291C38.8459 23.356 38.4596 22.4051 38.0148 21.4811C38.4461 20.5704 38.81 19.6329 39.1154 18.6732C39.349 18.7401 39.5736 18.8116 39.7893 18.883C41.8826 19.5972 43.3516 20.6597 43.3516 21.4721C43.3516 22.3471 41.7838 23.4765 39.5422 24.213ZM32.8174 23.5434C33.9539 23.5434 34.8748 22.6283 34.8748 21.4989C34.8748 20.3695 33.9539 19.4544 32.8174 19.4544C31.6809 19.4544 30.76 20.3695 30.76 21.4989C30.76 22.6283 31.6809 23.5434 32.8174 23.5434Z" fill="url(#paint2_linear_361_103)"/>
</g>
<defs>
<filter id="filter0_d_361_103" x="0.317383" y="0.5" width="67" height="56" filterUnits="userSpaceOnUse" color-interpolation-filters="sRGB">
<feFlood flood-opacity="0" result="BackgroundImageFix"/>
<feColorMatrix in="SourceAlpha" type="matrix" values="0 0 0 0 0 0 0 0 0 0 0 0 0 0 0 0 0 0 127 0" result="hardAlpha"/>
<feOffset dy="10"/>
<feGaussianBlur stdDeviation="2"/>
<feComposite in2="hardAlpha" operator="out"/>
<feColorMatrix type="matrix" values="0 0 0 0 0 0 0 0 0 0 0 0 0 0 0 0 0 0 0.25 0"/>
<feBlend mode="normal" in2="BackgroundImageFix" result="effect1_dropShadow_361_103"/>
<feBlend mode="normal" in="SourceGraphic" in2="effect1_dropShadow_361_103" result="shape"/>
</filter>
<linearGradient id="paint0_linear_361_103" x1="5.31738" y1="21.5" x2="62.3174" y2="21.5" gradientUnits="userSpaceOnUse">
<stop stop-color="#D9D9D9"/>
<stop offset="1" stop-color="#737373"/>
</linearGradient>
<linearGradient id="paint1_linear_361_103" x1="5.31738" y1="21.5" x2="62.3174" y2="21.5" gradientUnits="userSpaceOnUse">
<stop stop-color="#14A3A3"/>
<stop offset="0.5" stop-color="white"/>
<stop offset="1" stop-color="#0D6549"/>
</linearGradient>
<linearGradient id="paint2_linear_361_103" x1="32.8174" y1="11.5" x2="32.8174" y2="31.5" gradientUnits="userSpaceOnUse">
<stop stop-color="white"/>
<stop offset="1" stop-color="#999999"/>
</linearGradient>
</defs>
</svg>
