<svg width="219" height="64" viewBox="0 0 219 64" fill="none" xmlns="http://www.w3.org/2000/svg">
<g filter="url(#filter0_d_357_63)">
<rect x="68" y="1" width="83" height="23" rx="11.5" fill="url(#paint0_linear_357_63)" fill-opacity="0.18" shape-rendering="crispEdges"/>
<rect x="68" y="1" width="83" height="23" rx="11.5" fill="black" fill-opacity="0.2" shape-rendering="crispEdges"/>
<rect x="67.5" y="0.5" width="84" height="24" rx="12" stroke="url(#paint1_linear_357_63)" shape-rendering="crispEdges"/>
<g filter="url(#filter1_d_357_63)">
<path d="M81.4056 17V8.06H86.9256V8.96H82.3656V12.068H86.5656V12.968H82.3656V17H81.4056ZM87.883 17V10.568H88.783V11.624L88.663 11.468C88.815 11.164 89.043 10.924 89.347 10.748C89.659 10.572 90.035 10.484 90.475 10.484H90.883V11.384H90.319C89.855 11.384 89.483 11.528 89.203 11.816C88.923 12.104 88.783 12.512 88.783 13.04V17H87.883ZM94.9497 17.144C94.3417 17.144 93.7897 17 93.2937 16.712C92.7977 16.416 92.4017 16.016 92.1057 15.512C91.8177 15 91.6737 14.42 91.6737 13.772C91.6737 13.132 91.8177 12.56 92.1057 12.056C92.3937 11.552 92.7817 11.156 93.2697 10.868C93.7657 10.572 94.3257 10.424 94.9497 10.424C95.5737 10.424 96.1297 10.568 96.6177 10.856C97.1137 11.144 97.5017 11.54 97.7817 12.044C98.0697 12.548 98.2137 13.124 98.2137 13.772C98.2137 14.428 98.0657 15.012 97.7697 15.524C97.4737 16.028 97.0777 16.424 96.5817 16.712C96.0937 17 95.5497 17.144 94.9497 17.144ZM94.9497 16.244C95.3817 16.244 95.7697 16.136 96.1137 15.92C96.4657 15.704 96.7417 15.408 96.9417 15.032C97.1497 14.656 97.2537 14.236 97.2537 13.772C97.2537 13.308 97.1497 12.892 96.9417 12.524C96.7417 12.156 96.4657 11.864 96.1137 11.648C95.7697 11.432 95.3817 11.324 94.9497 11.324C94.5177 11.324 94.1257 11.432 93.7737 11.648C93.4297 11.864 93.1537 12.156 92.9457 12.524C92.7377 12.892 92.6337 13.308 92.6337 13.772C92.6337 14.236 92.7377 14.656 92.9457 15.032C93.1537 15.408 93.4297 15.704 93.7737 15.92C94.1257 16.136 94.5177 16.244 94.9497 16.244ZM99.801 17V10.568H100.701V11.816L100.497 11.768C100.657 11.352 100.917 11.024 101.277 10.784C101.645 10.544 102.069 10.424 102.549 10.424C103.005 10.424 103.413 10.528 103.773 10.736C104.141 10.944 104.429 11.232 104.637 11.6C104.853 11.96 104.961 12.368 104.961 12.824V17H104.061V13.172C104.061 12.78 103.989 12.448 103.845 12.176C103.709 11.904 103.513 11.696 103.257 11.552C103.009 11.4 102.721 11.324 102.393 11.324C102.065 11.324 101.773 11.4 101.517 11.552C101.261 11.696 101.061 11.908 100.917 12.188C100.773 12.46 100.701 12.788 100.701 13.172V17H99.801ZM109.14 17.072C108.564 17.072 108.12 16.904 107.808 16.568C107.496 16.232 107.34 15.752 107.34 15.128V11.468H106.152V10.568H106.452C106.724 10.568 106.94 10.48 107.1 10.304C107.26 10.12 107.34 9.892 107.34 9.62V9.08H108.24V10.568H109.656V11.468H108.24V15.128C108.24 15.344 108.272 15.536 108.336 15.704C108.4 15.864 108.508 15.992 108.66 16.088C108.82 16.184 109.032 16.232 109.296 16.232C109.36 16.232 109.436 16.228 109.524 16.22C109.612 16.212 109.688 16.204 109.752 16.196V17C109.656 17.024 109.548 17.04 109.428 17.048C109.308 17.064 109.212 17.072 109.14 17.072ZM111.296 14.204V13.364H115.496V14.204H111.296ZM120.237 17.144C119.637 17.144 119.093 17 118.605 16.712C118.125 16.416 117.745 16.012 117.465 15.5C117.185 14.988 117.045 14.408 117.045 13.76C117.045 13.112 117.181 12.54 117.453 12.044C117.725 11.54 118.093 11.144 118.557 10.856C119.029 10.568 119.557 10.424 120.141 10.424C120.605 10.424 121.017 10.512 121.377 10.688C121.745 10.856 122.057 11.088 122.313 11.384C122.569 11.672 122.765 12 122.901 12.368C123.037 12.728 123.105 13.1 123.105 13.484C123.105 13.564 123.101 13.656 123.093 13.76C123.085 13.856 123.073 13.956 123.057 14.06H117.621V13.22H122.541L122.109 13.58C122.181 13.14 122.129 12.748 121.953 12.404C121.785 12.052 121.541 11.776 121.221 11.576C120.901 11.368 120.541 11.264 120.141 11.264C119.741 11.264 119.369 11.368 119.025 11.576C118.689 11.784 118.425 12.076 118.233 12.452C118.041 12.82 117.965 13.26 118.005 13.772C117.965 14.284 118.045 14.732 118.245 15.116C118.453 15.492 118.733 15.784 119.085 15.992C119.445 16.2 119.829 16.304 120.237 16.304C120.709 16.304 121.105 16.192 121.425 15.968C121.745 15.744 122.005 15.464 122.205 15.128L122.973 15.536C122.845 15.824 122.649 16.092 122.385 16.34C122.121 16.58 121.805 16.776 121.437 16.928C121.077 17.072 120.677 17.144 120.237 17.144ZM124.692 17V10.568H125.592V11.816L125.388 11.768C125.548 11.352 125.808 11.024 126.168 10.784C126.536 10.544 126.96 10.424 127.44 10.424C127.896 10.424 128.304 10.528 128.664 10.736C129.032 10.944 129.32 11.232 129.528 11.6C129.744 11.96 129.852 12.368 129.852 12.824V17H128.952V13.172C128.952 12.78 128.88 12.448 128.736 12.176C128.6 11.904 128.404 11.696 128.148 11.552C127.9 11.4 127.612 11.324 127.284 11.324C126.956 11.324 126.664 11.4 126.408 11.552C126.152 11.696 125.952 11.908 125.808 12.188C125.664 12.46 125.592 12.788 125.592 13.172V17H124.692ZM134.474 17.144C133.874 17.144 133.334 17 132.854 16.712C132.374 16.416 131.994 16.016 131.714 15.512C131.442 15 131.306 14.424 131.306 13.784C131.306 13.136 131.442 12.56 131.714 12.056C131.994 11.552 132.37 11.156 132.842 10.868C133.322 10.572 133.866 10.424 134.474 10.424C135.026 10.424 135.518 10.544 135.95 10.784C136.382 11.024 136.722 11.348 136.97 11.756L136.826 12.008V7.916H137.726V17H136.826V15.56L136.97 15.692C136.746 16.156 136.41 16.516 135.962 16.772C135.522 17.02 135.026 17.144 134.474 17.144ZM134.522 16.244C134.954 16.244 135.342 16.136 135.686 15.92C136.038 15.704 136.314 15.412 136.514 15.044C136.722 14.668 136.826 14.248 136.826 13.784C136.826 13.32 136.722 12.904 136.514 12.536C136.314 12.16 136.038 11.864 135.686 11.648C135.342 11.432 134.954 11.324 134.522 11.324C134.098 11.324 133.714 11.432 133.37 11.648C133.026 11.864 132.754 12.156 132.554 12.524C132.362 12.892 132.266 13.312 132.266 13.784C132.266 14.248 132.362 14.668 132.554 15.044C132.754 15.412 133.022 15.704 133.358 15.92C133.702 16.136 134.09 16.244 134.522 16.244Z" fill="white"/>
</g>
</g>
<g filter="url(#filter2_d_357_63)">
<rect x="5" y="32" width="88" height="23" rx="11.5" fill="url(#paint2_linear_357_63)" fill-opacity="0.18" shape-rendering="crispEdges"/>
<rect x="5" y="32" width="88" height="23" rx="11.5" fill="black" fill-opacity="0.2" shape-rendering="crispEdges"/>
<rect x="4.5" y="31.5" width="89" height="24" rx="12" stroke="url(#paint3_linear_357_63)" shape-rendering="crispEdges"/>
<g filter="url(#filter3_d_357_63)">
<path d="M37.1102 48.144C36.4782 48.144 35.9222 48.012 35.4422 47.748C34.9622 47.484 34.5902 47.124 34.3262 46.668C34.0622 46.204 33.9302 45.676 33.9302 45.084V39.06H34.8902V45.084C34.8902 45.516 34.9822 45.896 35.1662 46.224C35.3582 46.544 35.6182 46.796 35.9462 46.98C36.2822 47.156 36.6702 47.244 37.1102 47.244C37.5502 47.244 37.9342 47.156 38.2622 46.98C38.5982 46.796 38.8582 46.544 39.0422 46.224C39.2342 45.896 39.3302 45.516 39.3302 45.084V39.06H40.2902V45.084C40.2902 45.676 40.1582 46.204 39.8942 46.668C39.6302 47.124 39.2582 47.484 38.7782 47.748C38.3062 48.012 37.7502 48.144 37.1102 48.144ZM42.3685 48V39.06H43.3285V48H42.3685ZM44.4068 49.44L48.4628 39.552H49.5068L45.4508 49.44H44.4068ZM53.7273 48.144C53.0953 48.144 52.5393 48.012 52.0593 47.748C51.5793 47.484 51.2073 47.124 50.9433 46.668C50.6793 46.204 50.5473 45.676 50.5473 45.084V39.06H51.5073V45.084C51.5073 45.516 51.5993 45.896 51.7833 46.224C51.9753 46.544 52.2353 46.796 52.5633 46.98C52.8993 47.156 53.2873 47.244 53.7273 47.244C54.1673 47.244 54.5513 47.156 54.8793 46.98C55.2153 46.796 55.4753 46.544 55.6593 46.224C55.8513 45.896 55.9473 45.516 55.9473 45.084V39.06H56.9073V45.084C56.9073 45.676 56.7753 46.204 56.5113 46.668C56.2473 47.124 55.8753 47.484 55.3953 47.748C54.9233 48.012 54.3673 48.144 53.7273 48.144ZM58.0617 48L60.9657 43.44L58.1577 39.06H59.2377L61.6737 42.876H61.3497L63.7737 39.06H64.8537L62.0457 43.44L64.9617 48H63.8817L61.3497 44.016H61.6737L59.1177 48H58.0617Z" fill="white"/>
</g>
</g>
<g filter="url(#filter4_d_357_63)">
<rect x="126" y="32" width="88" height="23" rx="11.5" fill="url(#paint4_linear_357_63)" fill-opacity="0.18" shape-rendering="crispEdges"/>
<rect x="126" y="32" width="88" height="23" rx="11.5" fill="black" fill-opacity="0.2" shape-rendering="crispEdges"/>
<rect x="125.5" y="31.5" width="89" height="24" rx="12" stroke="url(#paint5_linear_357_63)" shape-rendering="crispEdges"/>
<g filter="url(#filter5_d_357_63)">
<path d="M142.456 48V39.06H146.212C146.716 39.06 147.152 39.156 147.52 39.348C147.896 39.532 148.184 39.792 148.384 40.128C148.592 40.464 148.696 40.856 148.696 41.304C148.696 41.768 148.58 42.18 148.348 42.54C148.124 42.892 147.8 43.16 147.376 43.344L147.364 43.056C147.716 43.184 148.016 43.364 148.264 43.596C148.52 43.828 148.716 44.1 148.852 44.412C148.988 44.716 149.056 45.044 149.056 45.396C149.056 46.196 148.8 46.832 148.288 47.304C147.784 47.768 147.096 48 146.224 48H142.456ZM143.416 47.1H146.224C146.792 47.1 147.244 46.952 147.58 46.656C147.924 46.352 148.096 45.936 148.096 45.408C148.096 44.888 147.924 44.476 147.58 44.172C147.244 43.86 146.792 43.704 146.224 43.704H143.416V47.1ZM143.416 42.84H146.14C146.62 42.84 147.004 42.7 147.292 42.42C147.588 42.14 147.736 41.78 147.736 41.34C147.736 40.892 147.588 40.552 147.292 40.32C147.004 40.08 146.62 39.96 146.14 39.96H143.416V42.84ZM152.505 48.144C152.097 48.144 151.733 48.068 151.413 47.916C151.093 47.756 150.841 47.54 150.657 47.268C150.473 46.996 150.381 46.684 150.381 46.332C150.381 45.996 150.453 45.692 150.597 45.42C150.741 45.14 150.965 44.904 151.269 44.712C151.573 44.52 151.961 44.384 152.433 44.304L154.953 43.884V44.7L152.649 45.084C152.185 45.164 151.849 45.312 151.641 45.528C151.441 45.744 151.341 46 151.341 46.296C151.341 46.584 151.453 46.828 151.677 47.028C151.909 47.228 152.205 47.328 152.565 47.328C153.005 47.328 153.389 47.236 153.717 47.052C154.045 46.86 154.301 46.604 154.485 46.284C154.669 45.964 154.761 45.608 154.761 45.216V43.584C154.761 43.2 154.621 42.888 154.341 42.648C154.061 42.408 153.697 42.288 153.249 42.288C152.857 42.288 152.513 42.388 152.217 42.588C151.921 42.78 151.701 43.032 151.557 43.344L150.741 42.9C150.861 42.628 151.049 42.38 151.305 42.156C151.569 41.932 151.869 41.756 152.205 41.628C152.541 41.492 152.889 41.424 153.249 41.424C153.721 41.424 154.137 41.516 154.497 41.7C154.865 41.884 155.149 42.14 155.349 42.468C155.557 42.788 155.661 43.16 155.661 43.584V48H154.761V46.716L154.893 46.848C154.781 47.088 154.605 47.308 154.365 47.508C154.133 47.7 153.857 47.856 153.537 47.976C153.225 48.088 152.881 48.144 152.505 48.144ZM160.452 48.144C159.82 48.144 159.264 47.996 158.784 47.7C158.304 47.404 157.928 47.004 157.656 46.5C157.384 45.988 157.248 45.412 157.248 44.772C157.248 44.132 157.384 43.56 157.656 43.056C157.928 42.552 158.304 42.156 158.784 41.868C159.264 41.572 159.82 41.424 160.452 41.424C160.852 41.424 161.228 41.496 161.58 41.64C161.932 41.784 162.244 41.98 162.516 42.228C162.788 42.468 162.992 42.748 163.128 43.068L162.312 43.488C162.152 43.144 161.908 42.864 161.58 42.648C161.252 42.432 160.876 42.324 160.452 42.324C160.028 42.324 159.644 42.432 159.3 42.648C158.964 42.856 158.696 43.148 158.496 43.524C158.304 43.892 158.208 44.312 158.208 44.784C158.208 45.248 158.304 45.668 158.496 46.044C158.696 46.412 158.964 46.704 159.3 46.92C159.644 47.136 160.028 47.244 160.452 47.244C160.876 47.244 161.248 47.136 161.568 46.92C161.896 46.704 162.144 46.416 162.312 46.056L163.128 46.5C162.992 46.812 162.788 47.092 162.516 47.34C162.244 47.588 161.932 47.784 161.58 47.928C161.228 48.072 160.852 48.144 160.452 48.144ZM164.707 48V38.916H165.607V45.276L165.223 45.216L168.835 41.568H169.999L167.479 44.148L170.227 48H169.147L166.567 44.436L167.143 44.484L165.307 46.38L165.607 45.636V48H164.707ZM171.245 45.204V44.364H175.445V45.204H171.245ZM180.186 48.144C179.586 48.144 179.042 48 178.554 47.712C178.074 47.416 177.694 47.012 177.414 46.5C177.134 45.988 176.994 45.408 176.994 44.76C176.994 44.112 177.13 43.54 177.402 43.044C177.674 42.54 178.042 42.144 178.506 41.856C178.978 41.568 179.506 41.424 180.09 41.424C180.554 41.424 180.966 41.512 181.326 41.688C181.694 41.856 182.006 42.088 182.262 42.384C182.518 42.672 182.714 43 182.85 43.368C182.986 43.728 183.054 44.1 183.054 44.484C183.054 44.564 183.05 44.656 183.042 44.76C183.034 44.856 183.022 44.956 183.006 45.06H177.57V44.22H182.49L182.058 44.58C182.13 44.14 182.078 43.748 181.902 43.404C181.734 43.052 181.49 42.776 181.17 42.576C180.85 42.368 180.49 42.264 180.09 42.264C179.69 42.264 179.318 42.368 178.974 42.576C178.638 42.784 178.374 43.076 178.182 43.452C177.99 43.82 177.914 44.26 177.954 44.772C177.914 45.284 177.994 45.732 178.194 46.116C178.402 46.492 178.682 46.784 179.034 46.992C179.394 47.2 179.778 47.304 180.186 47.304C180.658 47.304 181.054 47.192 181.374 46.968C181.694 46.744 181.954 46.464 182.154 46.128L182.922 46.536C182.794 46.824 182.598 47.092 182.334 47.34C182.07 47.58 181.754 47.776 181.386 47.928C181.026 48.072 180.626 48.144 180.186 48.144ZM184.641 48V41.568H185.541V42.816L185.337 42.768C185.497 42.352 185.757 42.024 186.117 41.784C186.485 41.544 186.909 41.424 187.389 41.424C187.845 41.424 188.253 41.528 188.613 41.736C188.981 41.944 189.269 42.232 189.477 42.6C189.693 42.96 189.801 43.368 189.801 43.824V48H188.901V44.172C188.901 43.78 188.829 43.448 188.685 43.176C188.549 42.904 188.353 42.696 188.097 42.552C187.849 42.4 187.561 42.324 187.233 42.324C186.905 42.324 186.613 42.4 186.357 42.552C186.101 42.696 185.901 42.908 185.757 43.188C185.613 43.46 185.541 43.788 185.541 44.172V48H184.641ZM194.424 48.144C193.824 48.144 193.284 48 192.804 47.712C192.324 47.416 191.944 47.016 191.664 46.512C191.392 46 191.256 45.424 191.256 44.784C191.256 44.136 191.392 43.56 191.664 43.056C191.944 42.552 192.32 42.156 192.792 41.868C193.272 41.572 193.816 41.424 194.424 41.424C194.976 41.424 195.468 41.544 195.9 41.784C196.332 42.024 196.672 42.348 196.92 42.756L196.776 43.008V38.916H197.676V48H196.776V46.56L196.92 46.692C196.696 47.156 196.36 47.516 195.912 47.772C195.472 48.02 194.976 48.144 194.424 48.144ZM194.472 47.244C194.904 47.244 195.292 47.136 195.636 46.92C195.988 46.704 196.264 46.412 196.464 46.044C196.672 45.668 196.776 45.248 196.776 44.784C196.776 44.32 196.672 43.904 196.464 43.536C196.264 43.16 195.988 42.864 195.636 42.648C195.292 42.432 194.904 42.324 194.472 42.324C194.048 42.324 193.664 42.432 193.32 42.648C192.976 42.864 192.704 43.156 192.504 43.524C192.312 43.892 192.216 44.312 192.216 44.784C192.216 45.248 192.312 45.668 192.504 46.044C192.704 46.412 192.972 46.704 193.308 46.92C193.652 47.136 194.04 47.244 194.472 47.244Z" fill="white"/>
</g>
</g>
<defs>
<filter id="filter0_d_357_63" x="63" y="0" width="93" height="39" filterUnits="userSpaceOnUse" color-interpolation-filters="sRGB">
<feFlood flood-opacity="0" result="BackgroundImageFix"/>
<feColorMatrix in="SourceAlpha" type="matrix" values="0 0 0 0 0 0 0 0 0 0 0 0 0 0 0 0 0 0 127 0" result="hardAlpha"/>
<feOffset dy="10"/>
<feGaussianBlur stdDeviation="2"/>
<feComposite in2="hardAlpha" operator="out"/>
<feColorMatrix type="matrix" values="0 0 0 0 0 0 0 0 0 0 0 0 0 0 0 0 0 0 0.25 0"/>
<feBlend mode="normal" in2="BackgroundImageFix" result="effect1_dropShadow_357_63"/>
<feBlend mode="normal" in="SourceGraphic" in2="effect1_dropShadow_357_63" result="shape"/>
</filter>
<filter id="filter1_d_357_63" x="77.4058" y="7.91602" width="64.3208" height="17.228" filterUnits="userSpaceOnUse" color-interpolation-filters="sRGB">
<feFlood flood-opacity="0" result="BackgroundImageFix"/>
<feColorMatrix in="SourceAlpha" type="matrix" values="0 0 0 0 0 0 0 0 0 0 0 0 0 0 0 0 0 0 127 0" result="hardAlpha"/>
<feOffset dy="4"/>
<feGaussianBlur stdDeviation="2"/>
<feComposite in2="hardAlpha" operator="out"/>
<feColorMatrix type="matrix" values="0 0 0 0 0 0 0 0 0 0 0 0 0 0 0 0 0 0 0.25 0"/>
<feBlend mode="normal" in2="BackgroundImageFix" result="effect1_dropShadow_357_63"/>
<feBlend mode="normal" in="SourceGraphic" in2="effect1_dropShadow_357_63" result="shape"/>
</filter>
<filter id="filter2_d_357_63" x="0" y="31" width="98" height="33" filterUnits="userSpaceOnUse" color-interpolation-filters="sRGB">
<feFlood flood-opacity="0" result="BackgroundImageFix"/>
<feColorMatrix in="SourceAlpha" type="matrix" values="0 0 0 0 0 0 0 0 0 0 0 0 0 0 0 0 0 0 127 0" result="hardAlpha"/>
<feOffset dy="4"/>
<feGaussianBlur stdDeviation="2"/>
<feComposite in2="hardAlpha" operator="out"/>
<feColorMatrix type="matrix" values="0 0 0 0 0 0 0 0 0 0 0 0 0 0 0 0 0 0 0.25 0"/>
<feBlend mode="normal" in2="BackgroundImageFix" result="effect1_dropShadow_357_63"/>
<feBlend mode="normal" in="SourceGraphic" in2="effect1_dropShadow_357_63" result="shape"/>
</filter>
<filter id="filter3_d_357_63" x="29.9302" y="39.0601" width="39.0317" height="24.3799" filterUnits="userSpaceOnUse" color-interpolation-filters="sRGB">
<feFlood flood-opacity="0" result="BackgroundImageFix"/>
<feColorMatrix in="SourceAlpha" type="matrix" values="0 0 0 0 0 0 0 0 0 0 0 0 0 0 0 0 0 0 127 0" result="hardAlpha"/>
<feOffset dy="10"/>
<feGaussianBlur stdDeviation="2"/>
<feComposite in2="hardAlpha" operator="out"/>
<feColorMatrix type="matrix" values="0 0 0 0 0 0 0 0 0 0 0 0 0 0 0 0 0 0 0.25 0"/>
<feBlend mode="normal" in2="BackgroundImageFix" result="effect1_dropShadow_357_63"/>
<feBlend mode="normal" in="SourceGraphic" in2="effect1_dropShadow_357_63" result="shape"/>
</filter>
<filter id="filter4_d_357_63" x="121" y="31" width="98" height="33" filterUnits="userSpaceOnUse" color-interpolation-filters="sRGB">
<feFlood flood-opacity="0" result="BackgroundImageFix"/>
<feColorMatrix in="SourceAlpha" type="matrix" values="0 0 0 0 0 0 0 0 0 0 0 0 0 0 0 0 0 0 127 0" result="hardAlpha"/>
<feOffset dy="4"/>
<feGaussianBlur stdDeviation="2"/>
<feComposite in2="hardAlpha" operator="out"/>
<feColorMatrix type="matrix" values="0 0 0 0 0 0 0 0 0 0 0 0 0 0 0 0 0 0 0.25 0"/>
<feBlend mode="normal" in2="BackgroundImageFix" result="effect1_dropShadow_357_63"/>
<feBlend mode="normal" in="SourceGraphic" in2="effect1_dropShadow_357_63" result="shape"/>
</filter>
<filter id="filter5_d_357_63" x="138.457" y="38.916" width="63.2192" height="17.228" filterUnits="userSpaceOnUse" color-interpolation-filters="sRGB">
<feFlood flood-opacity="0" result="BackgroundImageFix"/>
<feColorMatrix in="SourceAlpha" type="matrix" values="0 0 0 0 0 0 0 0 0 0 0 0 0 0 0 0 0 0 127 0" result="hardAlpha"/>
<feOffset dy="4"/>
<feGaussianBlur stdDeviation="2"/>
<feComposite in2="hardAlpha" operator="out"/>
<feColorMatrix type="matrix" values="0 0 0 0 0 0 0 0 0 0 0 0 0 0 0 0 0 0 0.25 0"/>
<feBlend mode="normal" in2="BackgroundImageFix" result="effect1_dropShadow_357_63"/>
<feBlend mode="normal" in="SourceGraphic" in2="effect1_dropShadow_357_63" result="shape"/>
</filter>
<linearGradient id="paint0_linear_357_63" x1="68" y1="12.5" x2="151" y2="12.5" gradientUnits="userSpaceOnUse">
<stop stop-color="#D9D9D9"/>
<stop offset="1" stop-color="#737373"/>
</linearGradient>
<linearGradient id="paint1_linear_357_63" x1="68" y1="12.5" x2="151" y2="12.5" gradientUnits="userSpaceOnUse">
<stop stop-color="#14A3A3"/>
<stop offset="0.5" stop-color="white"/>
<stop offset="1" stop-color="#0D6549"/>
</linearGradient>
<linearGradient id="paint2_linear_357_63" x1="5" y1="43.5" x2="93" y2="43.5" gradientUnits="userSpaceOnUse">
<stop stop-color="#D9D9D9"/>
<stop offset="1" stop-color="#737373"/>
</linearGradient>
<linearGradient id="paint3_linear_357_63" x1="5" y1="43.5" x2="93" y2="43.5" gradientUnits="userSpaceOnUse">
<stop stop-color="#14A3A3"/>
<stop offset="0.5" stop-color="white"/>
<stop offset="1" stop-color="#0D6549"/>
</linearGradient>
<linearGradient id="paint4_linear_357_63" x1="126" y1="43.5" x2="214" y2="43.5" gradientUnits="userSpaceOnUse">
<stop stop-color="#D9D9D9"/>
<stop offset="1" stop-color="#737373"/>
</linearGradient>
<linearGradient id="paint5_linear_357_63" x1="126" y1="43.5" x2="214" y2="43.5" gradientUnits="userSpaceOnUse">
<stop stop-color="#14A3A3"/>
<stop offset="0.5" stop-color="white"/>
<stop offset="1" stop-color="#0D6549"/>
</linearGradient>
</defs>
</svg>
