<svg width="205" height="47" viewBox="0 0 205 47" fill="none" xmlns="http://www.w3.org/2000/svg">
<rect x="0.5" y="0.5" width="204" height="46" rx="15.5" fill="#D9D9D9" fill-opacity="0.15"/>
<rect x="0.5" y="0.5" width="204" height="46" rx="15.5" stroke="url(#paint0_linear_365_655)"/>
<g filter="url(#filter1_d_365_655)">
<path d="M35.5572 29.5V19.07H41.9972V20.12H36.6772V23.746H41.5772V24.796H36.6772V29.5H35.5572ZM46.6805 29.668C45.9805 29.668 45.3459 29.5 44.7765 29.164C44.2165 28.8187 43.7732 28.3473 43.4465 27.75C43.1199 27.1527 42.9565 26.476 42.9565 25.72C42.9565 24.964 43.1152 24.2967 43.4325 23.718C43.7499 23.13 44.1792 22.668 44.7205 22.332C45.2712 21.996 45.8872 21.828 46.5685 21.828C47.1099 21.828 47.5905 21.9307 48.0105 22.136C48.4399 22.332 48.8039 22.6027 49.1025 22.948C49.4012 23.284 49.6299 23.6667 49.7885 24.096C49.9472 24.516 50.0265 24.95 50.0265 25.398C50.0265 25.4913 50.0219 25.5987 50.0125 25.72C50.0032 25.832 49.9892 25.9487 49.9705 26.07H43.6285V25.09H49.3685L48.8645 25.51C48.9485 24.9967 48.8879 24.5393 48.6825 24.138C48.4865 23.7273 48.2019 23.4053 47.8285 23.172C47.4552 22.9293 47.0352 22.808 46.5685 22.808C46.1019 22.808 45.6679 22.9293 45.2665 23.172C44.8745 23.4147 44.5665 23.7553 44.3425 24.194C44.1185 24.6233 44.0299 25.1367 44.0765 25.734C44.0299 26.3313 44.1232 26.854 44.3565 27.302C44.5992 27.7407 44.9259 28.0813 45.3365 28.324C45.7565 28.5667 46.2045 28.688 46.6805 28.688C47.2312 28.688 47.6932 28.5573 48.0665 28.296C48.4399 28.0347 48.7432 27.708 48.9765 27.316L49.8725 27.792C49.7232 28.128 49.4945 28.4407 49.1865 28.73C48.8785 29.01 48.5099 29.2387 48.0805 29.416C47.6605 29.584 47.1939 29.668 46.6805 29.668ZM51.8778 29.5V21.996H52.9278V23.228L52.7878 23.046C52.9651 22.6913 53.2311 22.4113 53.5858 22.206C53.9498 22.0007 54.3885 21.898 54.9018 21.898H55.3778V22.948H54.7198C54.1785 22.948 53.7445 23.116 53.4178 23.452C53.0911 23.788 52.9278 24.264 52.9278 24.88V29.5H51.8778ZM56.6083 29.5V21.996H57.6583V23.228L57.5183 23.046C57.6956 22.6913 57.9616 22.4113 58.3163 22.206C58.6803 22.0007 59.1189 21.898 59.6323 21.898H60.1083V22.948H59.4503C58.9089 22.948 58.4749 23.116 58.1483 23.452C57.8216 23.788 57.6583 24.264 57.6583 24.88V29.5H56.6083ZM63.5087 29.668C63.0327 29.668 62.6081 29.5793 62.2347 29.402C61.8614 29.2153 61.5674 28.9633 61.3527 28.646C61.1381 28.3287 61.0307 27.9647 61.0307 27.554C61.0307 27.162 61.1147 26.8073 61.2827 26.49C61.4507 26.1633 61.7121 25.888 62.0667 25.664C62.4214 25.44 62.8741 25.2813 63.4247 25.188L66.3647 24.698V25.65L63.6767 26.098C63.1354 26.1913 62.7434 26.364 62.5007 26.616C62.2674 26.868 62.1507 27.1667 62.1507 27.512C62.1507 27.848 62.2814 28.1327 62.5427 28.366C62.8134 28.5993 63.1587 28.716 63.5787 28.716C64.0921 28.716 64.5401 28.6087 64.9227 28.394C65.3054 28.17 65.6041 27.8713 65.8187 27.498C66.0334 27.1247 66.1407 26.7093 66.1407 26.252V24.348C66.1407 23.9 65.9774 23.536 65.6507 23.256C65.3241 22.976 64.8994 22.836 64.3767 22.836C63.9194 22.836 63.5181 22.9527 63.1727 23.186C62.8274 23.41 62.5707 23.704 62.4027 24.068L61.4507 23.55C61.5907 23.2327 61.8101 22.9433 62.1087 22.682C62.4167 22.4207 62.7667 22.2153 63.1587 22.066C63.5507 21.9073 63.9567 21.828 64.3767 21.828C64.9274 21.828 65.4127 21.9353 65.8327 22.15C66.2621 22.3647 66.5934 22.6633 66.8267 23.046C67.0694 23.4193 67.1907 23.8533 67.1907 24.348V29.5H66.1407V28.002L66.2947 28.156C66.1641 28.436 65.9587 28.6927 65.6787 28.926C65.4081 29.15 65.0861 29.332 64.7127 29.472C64.3487 29.6027 63.9474 29.668 63.5087 29.668ZM69.3505 29.5V21.996H70.4005V23.424L70.2325 23.214C70.4378 22.7753 70.7411 22.4347 71.1425 22.192C71.5531 21.9493 72.0011 21.828 72.4865 21.828C73.0651 21.828 73.5878 21.9913 74.0545 22.318C74.5211 22.6447 74.8525 23.0693 75.0485 23.592L74.7545 23.606C74.9411 23.0273 75.2631 22.5887 75.7205 22.29C76.1871 21.982 76.7005 21.828 77.2605 21.828C77.7645 21.828 78.2265 21.9493 78.6465 22.192C79.0758 22.4347 79.4165 22.7707 79.6685 23.2C79.9298 23.62 80.0605 24.096 80.0605 24.628V29.5H79.0105V25.034C79.0105 24.5767 78.9265 24.1893 78.7585 23.872C78.5998 23.5547 78.3805 23.312 78.1005 23.144C77.8205 22.9667 77.4985 22.878 77.1345 22.878C76.7798 22.878 76.4578 22.9667 76.1685 23.144C75.8791 23.312 75.6505 23.5593 75.4825 23.886C75.3145 24.2033 75.2305 24.586 75.2305 25.034V29.5H74.1805V25.034C74.1805 24.5767 74.0965 24.1893 73.9285 23.872C73.7698 23.5547 73.5505 23.312 73.2705 23.144C72.9905 22.9667 72.6685 22.878 72.3045 22.878C71.9405 22.878 71.6138 22.9667 71.3245 23.144C71.0445 23.312 70.8205 23.5593 70.6525 23.886C70.4845 24.2033 70.4005 24.586 70.4005 25.034V29.5H69.3505ZM85.4813 29.668C84.7813 29.668 84.1466 29.5 83.5773 29.164C83.0173 28.8187 82.574 28.3473 82.2473 27.75C81.9206 27.1527 81.7573 26.476 81.7573 25.72C81.7573 24.964 81.916 24.2967 82.2333 23.718C82.5506 23.13 82.98 22.668 83.5213 22.332C84.072 21.996 84.688 21.828 85.3693 21.828C85.9106 21.828 86.3913 21.9307 86.8113 22.136C87.2406 22.332 87.6046 22.6027 87.9033 22.948C88.202 23.284 88.4306 23.6667 88.5893 24.096C88.748 24.516 88.8273 24.95 88.8273 25.398C88.8273 25.4913 88.8226 25.5987 88.8133 25.72C88.804 25.832 88.79 25.9487 88.7713 26.07H82.4293V25.09H88.1693L87.6653 25.51C87.7493 24.9967 87.6886 24.5393 87.4833 24.138C87.2873 23.7273 87.0026 23.4053 86.6293 23.172C86.256 22.9293 85.836 22.808 85.3693 22.808C84.9026 22.808 84.4686 22.9293 84.0673 23.172C83.6753 23.4147 83.3673 23.7553 83.1433 24.194C82.9193 24.6233 82.8306 25.1367 82.8773 25.734C82.8306 26.3313 82.924 26.854 83.1573 27.302C83.4 27.7407 83.7266 28.0813 84.1373 28.324C84.5573 28.5667 85.0053 28.688 85.4813 28.688C86.032 28.688 86.494 28.5573 86.8673 28.296C87.2406 28.0347 87.544 27.708 87.7773 27.316L88.6733 27.792C88.524 28.128 88.2953 28.4407 87.9873 28.73C87.6793 29.01 87.3106 29.2387 86.8813 29.416C86.4613 29.584 85.9946 29.668 85.4813 29.668ZM90.6786 29.5V21.996H91.7286V23.452L91.4906 23.396C91.6773 22.9107 91.9806 22.528 92.4006 22.248C92.8299 21.968 93.3246 21.828 93.8846 21.828C94.4166 21.828 94.8926 21.9493 95.3126 22.192C95.7419 22.4347 96.0779 22.7707 96.3206 23.2C96.5726 23.62 96.6986 24.096 96.6986 24.628V29.5H95.6486V25.034C95.6486 24.5767 95.5646 24.1893 95.3966 23.872C95.2379 23.5547 95.0093 23.312 94.7106 23.144C94.4213 22.9667 94.0853 22.878 93.7026 22.878C93.3199 22.878 92.9793 22.9667 92.6806 23.144C92.3819 23.312 92.1486 23.5593 91.9806 23.886C91.8126 24.2033 91.7286 24.586 91.7286 25.034V29.5H90.6786ZM101.574 29.584C100.902 29.584 100.384 29.388 100.02 28.996C99.656 28.604 99.474 28.044 99.474 27.316V23.046H98.088V21.996H98.438C98.7553 21.996 99.0073 21.8933 99.194 21.688C99.3806 21.4733 99.474 21.2073 99.474 20.89V20.26H100.524V21.996H102.176V23.046H100.524V27.316C100.524 27.568 100.561 27.792 100.636 27.988C100.711 28.1747 100.837 28.324 101.014 28.436C101.201 28.548 101.448 28.604 101.756 28.604C101.831 28.604 101.919 28.5993 102.022 28.59C102.125 28.5807 102.213 28.5713 102.288 28.562V29.5C102.176 29.528 102.05 29.5467 101.91 29.556C101.77 29.5747 101.658 29.584 101.574 29.584ZM106.165 29.668C105.689 29.668 105.264 29.5793 104.891 29.402C104.518 29.2153 104.224 28.9633 104.009 28.646C103.794 28.3287 103.687 27.9647 103.687 27.554C103.687 27.162 103.771 26.8073 103.939 26.49C104.107 26.1633 104.368 25.888 104.723 25.664C105.078 25.44 105.53 25.2813 106.081 25.188L109.021 24.698V25.65L106.333 26.098C105.792 26.1913 105.4 26.364 105.157 26.616C104.924 26.868 104.807 27.1667 104.807 27.512C104.807 27.848 104.938 28.1327 105.199 28.366C105.47 28.5993 105.815 28.716 106.235 28.716C106.748 28.716 107.196 28.6087 107.579 28.394C107.962 28.17 108.26 27.8713 108.475 27.498C108.69 27.1247 108.797 26.7093 108.797 26.252V24.348C108.797 23.9 108.634 23.536 108.307 23.256C107.98 22.976 107.556 22.836 107.033 22.836C106.576 22.836 106.174 22.9527 105.829 23.186C105.484 23.41 105.227 23.704 105.059 24.068L104.107 23.55C104.247 23.2327 104.466 22.9433 104.765 22.682C105.073 22.4207 105.423 22.2153 105.815 22.066C106.207 21.9073 106.613 21.828 107.033 21.828C107.584 21.828 108.069 21.9353 108.489 22.15C108.918 22.3647 109.25 22.6633 109.483 23.046C109.726 23.4193 109.847 23.8533 109.847 24.348V29.5H108.797V28.002L108.951 28.156C108.82 28.436 108.615 28.6927 108.335 28.926C108.064 29.15 107.742 29.332 107.369 29.472C107.005 29.6027 106.604 29.668 106.165 29.668ZM114.611 29.668C113.892 29.668 113.262 29.486 112.721 29.122C112.179 28.758 111.787 28.2633 111.545 27.638L112.427 27.218C112.641 27.6753 112.94 28.0393 113.323 28.31C113.715 28.5807 114.144 28.716 114.611 28.716C115.059 28.716 115.437 28.6087 115.745 28.394C116.053 28.17 116.207 27.8807 116.207 27.526C116.207 27.2647 116.132 27.0593 115.983 26.91C115.833 26.7513 115.661 26.63 115.465 26.546C115.269 26.462 115.096 26.4013 114.947 26.364L113.869 26.056C113.178 25.86 112.679 25.5847 112.371 25.23C112.063 24.8753 111.909 24.4647 111.909 23.998C111.909 23.5593 112.021 23.1767 112.245 22.85C112.469 22.5233 112.772 22.2713 113.155 22.094C113.537 21.9167 113.962 21.828 114.429 21.828C115.063 21.828 115.637 21.996 116.151 22.332C116.673 22.6587 117.042 23.116 117.257 23.704L116.361 24.124C116.174 23.704 115.903 23.3773 115.549 23.144C115.203 22.9013 114.816 22.78 114.387 22.78C113.967 22.78 113.631 22.8873 113.379 23.102C113.127 23.3167 113.001 23.5873 113.001 23.914C113.001 24.166 113.066 24.3667 113.197 24.516C113.327 24.6653 113.477 24.7773 113.645 24.852C113.822 24.9267 113.976 24.9827 114.107 25.02L115.353 25.384C115.959 25.5613 116.431 25.8367 116.767 26.21C117.112 26.5833 117.285 27.022 117.285 27.526C117.285 27.9367 117.168 28.3053 116.935 28.632C116.711 28.9587 116.398 29.2153 115.997 29.402C115.595 29.5793 115.133 29.668 114.611 29.668ZM124.897 29.668C124.197 29.668 123.567 29.5 123.007 29.164C122.447 28.8187 122.003 28.352 121.677 27.764C121.359 27.1667 121.201 26.4947 121.201 25.748C121.201 24.992 121.359 24.32 121.677 23.732C122.003 23.144 122.442 22.682 122.993 22.346C123.553 22.0007 124.187 21.828 124.897 21.828C125.541 21.828 126.115 21.968 126.619 22.248C127.123 22.528 127.519 22.906 127.809 23.382L127.641 23.676V18.902H128.691V29.5H127.641V27.82L127.809 27.974C127.547 28.5153 127.155 28.9353 126.633 29.234C126.119 29.5233 125.541 29.668 124.897 29.668ZM124.953 28.618C125.457 28.618 125.909 28.492 126.311 28.24C126.721 27.988 127.043 27.6473 127.277 27.218C127.519 26.7793 127.641 26.2893 127.641 25.748C127.641 25.2067 127.519 24.7213 127.277 24.292C127.043 23.8533 126.721 23.508 126.311 23.256C125.909 23.004 125.457 22.878 124.953 22.878C124.458 22.878 124.01 23.004 123.609 23.256C123.207 23.508 122.89 23.8487 122.657 24.278C122.433 24.7073 122.321 25.1973 122.321 25.748C122.321 26.2893 122.433 26.7793 122.657 27.218C122.89 27.6473 123.203 27.988 123.595 28.24C123.996 28.492 124.449 28.618 124.953 28.618ZM134.263 29.668C133.563 29.668 132.928 29.5 132.359 29.164C131.799 28.8187 131.355 28.3473 131.029 27.75C130.702 27.1527 130.539 26.476 130.539 25.72C130.539 24.964 130.697 24.2967 131.015 23.718C131.332 23.13 131.761 22.668 132.303 22.332C132.853 21.996 133.469 21.828 134.151 21.828C134.692 21.828 135.173 21.9307 135.593 22.136C136.022 22.332 136.386 22.6027 136.685 22.948C136.983 23.284 137.212 23.6667 137.371 24.096C137.529 24.516 137.609 24.95 137.609 25.398C137.609 25.4913 137.604 25.5987 137.595 25.72C137.585 25.832 137.571 25.9487 137.553 26.07H131.211V25.09H136.951L136.447 25.51C136.531 24.9967 136.47 24.5393 136.265 24.138C136.069 23.7273 135.784 23.4053 135.411 23.172C135.037 22.9293 134.617 22.808 134.151 22.808C133.684 22.808 133.25 22.9293 132.849 23.172C132.457 23.4147 132.149 23.7553 131.925 24.194C131.701 24.6233 131.612 25.1367 131.659 25.734C131.612 26.3313 131.705 26.854 131.939 27.302C132.181 27.7407 132.508 28.0813 132.919 28.324C133.339 28.5667 133.787 28.688 134.263 28.688C134.813 28.688 135.275 28.5573 135.649 28.296C136.022 28.0347 136.325 27.708 136.559 27.316L137.455 27.792C137.305 28.128 137.077 28.4407 136.769 28.73C136.461 29.01 136.092 29.2387 135.663 29.416C135.243 29.584 134.776 29.668 134.263 29.668ZM145.507 29.668C144.844 29.668 144.242 29.542 143.701 29.29C143.159 29.038 142.702 28.702 142.329 28.282C141.955 27.8527 141.689 27.3813 141.531 26.868L142.539 26.49C142.781 27.1993 143.159 27.7407 143.673 28.114C144.186 28.478 144.797 28.66 145.507 28.66C145.955 28.66 146.347 28.59 146.683 28.45C147.028 28.3007 147.294 28.0953 147.481 27.834C147.667 27.5727 147.761 27.2693 147.761 26.924C147.761 26.4107 147.621 26.014 147.341 25.734C147.061 25.454 146.659 25.2393 146.137 25.09L144.261 24.53C143.523 24.3153 142.954 23.956 142.553 23.452C142.161 22.948 141.965 22.374 141.965 21.73C141.965 21.1793 142.1 20.694 142.371 20.274C142.641 19.8447 143.01 19.5087 143.477 19.266C143.953 19.0233 144.489 18.902 145.087 18.902C145.712 18.902 146.272 19.0187 146.767 19.252C147.271 19.476 147.695 19.7747 148.041 20.148C148.386 20.5213 148.633 20.9367 148.783 21.394L147.803 21.786C147.579 21.17 147.229 20.7033 146.753 20.386C146.286 20.0687 145.735 19.91 145.101 19.91C144.699 19.91 144.345 19.98 144.037 20.12C143.738 20.26 143.505 20.4607 143.337 20.722C143.169 20.9833 143.085 21.2913 143.085 21.646C143.085 22.0753 143.22 22.4627 143.491 22.808C143.761 23.144 144.177 23.396 144.737 23.564L146.389 24.054C147.21 24.2967 147.831 24.6467 148.251 25.104C148.671 25.5613 148.881 26.1353 148.881 26.826C148.881 27.386 148.736 27.8807 148.447 28.31C148.167 28.73 147.77 29.0613 147.257 29.304C146.753 29.5467 146.169 29.668 145.507 29.668ZM151.044 29.5V19.07H157.764V20.12H152.164V23.746H157.484V24.796H152.164V28.45H157.764V29.5H151.044ZM164.53 29.668C163.802 29.668 163.12 29.5373 162.486 29.276C161.86 29.0053 161.31 28.632 160.834 28.156C160.358 27.6707 159.984 27.1013 159.714 26.448C159.443 25.7853 159.308 25.062 159.308 24.278C159.308 23.494 159.443 22.7753 159.714 22.122C159.984 21.4593 160.358 20.89 160.834 20.414C161.31 19.9287 161.86 19.5553 162.486 19.294C163.12 19.0327 163.802 18.902 164.53 18.902C165.258 18.902 165.934 19.0373 166.56 19.308C167.194 19.5693 167.75 19.9427 168.226 20.428C168.702 20.904 169.075 21.4687 169.346 22.122C169.616 22.7753 169.752 23.494 169.752 24.278C169.752 25.062 169.616 25.7853 169.346 26.448C169.075 27.1013 168.702 27.6707 168.226 28.156C167.75 28.632 167.194 29.0053 166.56 29.276C165.934 29.5373 165.258 29.668 164.53 29.668ZM164.53 28.618C165.136 28.618 165.687 28.506 166.182 28.282C166.686 28.058 167.12 27.7453 167.484 27.344C167.848 26.9427 168.128 26.4807 168.324 25.958C168.529 25.4353 168.632 24.8753 168.632 24.278C168.632 23.69 168.529 23.1347 168.324 22.612C168.128 22.0893 167.848 21.6273 167.484 21.226C167.12 20.8247 166.686 20.512 166.182 20.288C165.687 20.064 165.136 19.952 164.53 19.952C163.923 19.952 163.368 20.064 162.864 20.288C162.369 20.512 161.94 20.8247 161.576 21.226C161.212 21.6273 160.927 22.0893 160.722 22.612C160.526 23.1347 160.428 23.69 160.428 24.278C160.428 24.8753 160.526 25.4353 160.722 25.958C160.927 26.4807 161.212 26.9427 161.576 27.344C161.94 27.7453 162.374 28.058 162.878 28.282C163.382 28.506 163.932 28.618 164.53 28.618Z" fill="white"/>
</g>
<defs>
<filter id="filter1_d_365_655" x="31.5571" y="18.902" width="142.195" height="24.766" filterUnits="userSpaceOnUse" color-interpolation-filters="sRGB">
<feFlood flood-opacity="0" result="BackgroundImageFix"/>
<feColorMatrix in="SourceAlpha" type="matrix" values="0 0 0 0 0 0 0 0 0 0 0 0 0 0 0 0 0 0 127 0" result="hardAlpha"/>
<feOffset dy="10"/>
<feGaussianBlur stdDeviation="2"/>
<feComposite in2="hardAlpha" operator="out"/>
<feColorMatrix type="matrix" values="0 0 0 0 0 0 0 0 0 0 0 0 0 0 0 0 0 0 0.25 0"/>
<feBlend mode="normal" in2="BackgroundImageFix" result="effect1_dropShadow_365_655"/>
<feBlend mode="normal" in="SourceGraphic" in2="effect1_dropShadow_365_655" result="shape"/>
</filter>
<linearGradient id="paint0_linear_365_655" x1="1" y1="23.5" x2="218.2" y2="7.34457" gradientUnits="userSpaceOnUse">
<stop stop-color="#14A3A3"/>
<stop offset="0.501475" stop-color="white"/>
<stop offset="1" stop-color="#0D6549"/>
</linearGradient>
</defs>
</svg>
