<svg width="205" height="47" viewBox="0 0 205 47" fill="none" xmlns="http://www.w3.org/2000/svg">
<rect x="0.5" y="0.5" width="204" height="46" rx="15.5" fill="#D9D9D9" fill-opacity="0.15"/>
<rect x="0.5" y="0.5" width="204" height="46" rx="15.5" stroke="url(#paint0_linear_365_653)"/>
<g filter="url(#filter1_d_365_653)">
<path d="M32.1122 29.668C31.4495 29.668 30.8475 29.542 30.3062 29.29C29.7649 29.038 29.3075 28.702 28.9342 28.282C28.5609 27.8527 28.2949 27.3813 28.1362 26.868L29.1442 26.49C29.3869 27.1993 29.7649 27.7407 30.2782 28.114C30.7915 28.478 31.4029 28.66 32.1122 28.66C32.5602 28.66 32.9522 28.59 33.2882 28.45C33.6335 28.3007 33.8995 28.0953 34.0862 27.834C34.2729 27.5727 34.3662 27.2693 34.3662 26.924C34.3662 26.4107 34.2262 26.014 33.9462 25.734C33.6662 25.454 33.2649 25.2393 32.7422 25.09L30.8662 24.53C30.1289 24.3153 29.5595 23.956 29.1582 23.452C28.7662 22.948 28.5702 22.374 28.5702 21.73C28.5702 21.1793 28.7055 20.694 28.9762 20.274C29.2469 19.8447 29.6155 19.5087 30.0822 19.266C30.5582 19.0233 31.0949 18.902 31.6922 18.902C32.3175 18.902 32.8775 19.0187 33.3722 19.252C33.8762 19.476 34.3009 19.7747 34.6462 20.148C34.9915 20.5213 35.2389 20.9367 35.3882 21.394L34.4082 21.786C34.1842 21.17 33.8342 20.7033 33.3582 20.386C32.8915 20.0687 32.3409 19.91 31.7062 19.91C31.3049 19.91 30.9502 19.98 30.6422 20.12C30.3435 20.26 30.1102 20.4607 29.9422 20.722C29.7742 20.9833 29.6902 21.2913 29.6902 21.646C29.6902 22.0753 29.8255 22.4627 30.0962 22.808C30.3669 23.144 30.7822 23.396 31.3422 23.564L32.9942 24.054C33.8155 24.2967 34.4362 24.6467 34.8562 25.104C35.2762 25.5613 35.4862 26.1353 35.4862 26.826C35.4862 27.386 35.3415 27.8807 35.0522 28.31C34.7722 28.73 34.3755 29.0613 33.8622 29.304C33.3582 29.5467 32.7749 29.668 32.1122 29.668ZM40.155 29.668C39.6323 29.668 39.1563 29.5467 38.727 29.304C38.2977 29.052 37.957 28.7067 37.705 28.268C37.4623 27.82 37.341 27.3067 37.341 26.728V21.996H38.391V26.602C38.391 27.0033 38.4703 27.358 38.629 27.666C38.797 27.9647 39.0257 28.198 39.315 28.366C39.6137 28.534 39.9543 28.618 40.337 28.618C40.7197 28.618 41.0603 28.534 41.359 28.366C41.6577 28.1887 41.891 27.9413 42.059 27.624C42.227 27.2973 42.311 26.91 42.311 26.462V21.996H43.361V29.5H42.311V28.044L42.549 28.1C42.3717 28.5853 42.0683 28.968 41.639 29.248C41.2097 29.528 40.715 29.668 40.155 29.668ZM45.5204 32.3V21.996H46.5704V23.676L46.4024 23.382C46.701 22.906 47.0977 22.528 47.5924 22.248C48.0964 21.968 48.6704 21.828 49.3144 21.828C50.0237 21.828 50.6537 22.0007 51.2044 22.346C51.7644 22.682 52.203 23.144 52.5204 23.732C52.8471 24.32 53.0104 24.992 53.0104 25.748C53.0104 26.4947 52.8471 27.1667 52.5204 27.764C52.203 28.352 51.7644 28.8187 51.2044 29.164C50.6537 29.5 50.0237 29.668 49.3144 29.668C48.6704 29.668 48.087 29.5233 47.5644 29.234C47.051 28.9353 46.6637 28.5153 46.4024 27.974L46.5704 27.82V32.3H45.5204ZM49.2584 28.618C49.7624 28.618 50.2104 28.492 50.6024 28.24C51.0037 27.988 51.3164 27.6473 51.5404 27.218C51.7737 26.7793 51.8904 26.2893 51.8904 25.748C51.8904 25.1973 51.7737 24.7073 51.5404 24.278C51.3164 23.8487 51.0037 23.508 50.6024 23.256C50.2104 23.004 49.7624 22.878 49.2584 22.878C48.7544 22.878 48.297 23.004 47.8864 23.256C47.485 23.508 47.163 23.8533 46.9204 24.292C46.687 24.7213 46.5704 25.2067 46.5704 25.748C46.5704 26.2893 46.687 26.7793 46.9204 27.218C47.163 27.6473 47.485 27.988 47.8864 28.24C48.297 28.492 48.7544 28.618 49.2584 28.618ZM58.3723 29.668C57.6629 29.668 57.0189 29.5 56.4403 29.164C55.8616 28.8187 55.3996 28.352 55.0543 27.764C54.7183 27.1667 54.5503 26.49 54.5503 25.734C54.5503 24.9873 54.7183 24.32 55.0543 23.732C55.3903 23.144 55.8429 22.682 56.4123 22.346C56.9909 22.0007 57.6443 21.828 58.3723 21.828C59.1003 21.828 59.7489 21.996 60.3183 22.332C60.8969 22.668 61.3496 23.13 61.6763 23.718C62.0123 24.306 62.1803 24.978 62.1803 25.734C62.1803 26.4993 62.0076 27.1807 61.6623 27.778C61.3169 28.366 60.8549 28.828 60.2763 29.164C59.7069 29.5 59.0723 29.668 58.3723 29.668ZM58.3723 28.618C58.8763 28.618 59.3289 28.492 59.7303 28.24C60.1409 27.988 60.4629 27.6427 60.6963 27.204C60.9389 26.7653 61.0603 26.2753 61.0603 25.734C61.0603 25.1927 60.9389 24.7073 60.6963 24.278C60.4629 23.8487 60.1409 23.508 59.7303 23.256C59.3289 23.004 58.8763 22.878 58.3723 22.878C57.8683 22.878 57.4109 23.004 57.0003 23.256C56.5989 23.508 56.2769 23.8487 56.0343 24.278C55.7916 24.7073 55.6703 25.1927 55.6703 25.734C55.6703 26.2753 55.7916 26.7653 56.0343 27.204C56.2769 27.6427 56.5989 27.988 57.0003 28.24C57.4109 28.492 57.8683 28.618 58.3723 28.618ZM64.0321 29.5V21.996H65.0821V23.228L64.9421 23.046C65.1194 22.6913 65.3854 22.4113 65.7401 22.206C66.1041 22.0007 66.5428 21.898 67.0561 21.898H67.5321V22.948H66.8741C66.3328 22.948 65.8988 23.116 65.5721 23.452C65.2454 23.788 65.0821 24.264 65.0821 24.88V29.5H64.0321ZM71.6326 29.584C70.9606 29.584 70.4426 29.388 70.0786 28.996C69.7146 28.604 69.5326 28.044 69.5326 27.316V23.046H68.1466V21.996H68.4966C68.8139 21.996 69.0659 21.8933 69.2526 21.688C69.4392 21.4733 69.5326 21.2073 69.5326 20.89V20.26H70.5826V21.996H72.2346V23.046H70.5826V27.316C70.5826 27.568 70.6199 27.792 70.6946 27.988C70.7692 28.1747 70.8952 28.324 71.0726 28.436C71.2592 28.548 71.5066 28.604 71.8146 28.604C71.8892 28.604 71.9779 28.5993 72.0806 28.59C72.1832 28.5807 72.2719 28.5713 72.3466 28.562V29.5C72.2346 29.528 72.1086 29.5467 71.9686 29.556C71.8286 29.5747 71.7166 29.584 71.6326 29.584ZM77.3329 29.668C76.6329 29.668 75.9982 29.5 75.4289 29.164C74.8689 28.8187 74.4255 28.3473 74.0989 27.75C73.7722 27.1527 73.6089 26.476 73.6089 25.72C73.6089 24.964 73.7675 24.2967 74.0849 23.718C74.4022 23.13 74.8315 22.668 75.3729 22.332C75.9235 21.996 76.5395 21.828 77.2209 21.828C77.7622 21.828 78.2429 21.9307 78.6629 22.136C79.0922 22.332 79.4562 22.6027 79.7549 22.948C80.0535 23.284 80.2822 23.6667 80.4409 24.096C80.5995 24.516 80.6789 24.95 80.6789 25.398C80.6789 25.4913 80.6742 25.5987 80.6649 25.72C80.6555 25.832 80.6415 25.9487 80.6229 26.07H74.2809V25.09H80.0209L79.5169 25.51C79.6009 24.9967 79.5402 24.5393 79.3349 24.138C79.1389 23.7273 78.8542 23.4053 78.4809 23.172C78.1075 22.9293 77.6875 22.808 77.2209 22.808C76.7542 22.808 76.3202 22.9293 75.9189 23.172C75.5269 23.4147 75.2189 23.7553 74.9949 24.194C74.7709 24.6233 74.6822 25.1367 74.7289 25.734C74.6822 26.3313 74.7755 26.854 75.0089 27.302C75.2515 27.7407 75.5782 28.0813 75.9889 28.324C76.4089 28.5667 76.8569 28.688 77.3329 28.688C77.8835 28.688 78.3455 28.5573 78.7189 28.296C79.0922 28.0347 79.3955 27.708 79.6289 27.316L80.5249 27.792C80.3755 28.128 80.1469 28.4407 79.8389 28.73C79.5309 29.01 79.1622 29.2387 78.7329 29.416C78.3129 29.584 77.8462 29.668 77.3329 29.668ZM85.0631 29.5V19.07H88.4931C89.5291 19.07 90.4297 19.2847 91.1951 19.714C91.9604 20.134 92.5531 20.736 92.9731 21.52C93.3931 22.2947 93.6031 23.214 93.6031 24.278C93.6031 25.3327 93.3931 26.252 92.9731 27.036C92.5531 27.82 91.9604 28.4267 91.1951 28.856C90.4297 29.2853 89.5291 29.5 88.4931 29.5H85.0631ZM86.1831 28.45H88.4931C89.2957 28.45 89.9911 28.282 90.5791 27.946C91.1671 27.6007 91.6197 27.1153 91.9371 26.49C92.2637 25.8647 92.4271 25.1273 92.4271 24.278C92.4271 23.4287 92.2637 22.696 91.9371 22.08C91.6104 21.4547 91.1531 20.974 90.5651 20.638C89.9771 20.2927 89.2864 20.12 88.4931 20.12H86.1831V28.45ZM98.7157 29.668C98.0157 29.668 97.381 29.5 96.8117 29.164C96.2517 28.8187 95.8083 28.3473 95.4817 27.75C95.155 27.1527 94.9917 26.476 94.9917 25.72C94.9917 24.964 95.1503 24.2967 95.4677 23.718C95.785 23.13 96.2143 22.668 96.7557 22.332C97.3063 21.996 97.9223 21.828 98.6037 21.828C99.145 21.828 99.6257 21.9307 100.046 22.136C100.475 22.332 100.839 22.6027 101.138 22.948C101.436 23.284 101.665 23.6667 101.824 24.096C101.982 24.516 102.062 24.95 102.062 25.398C102.062 25.4913 102.057 25.5987 102.048 25.72C102.038 25.832 102.024 25.9487 102.006 26.07H95.6637V25.09H101.404L100.9 25.51C100.984 24.9967 100.923 24.5393 100.718 24.138C100.522 23.7273 100.237 23.4053 99.8637 23.172C99.4903 22.9293 99.0703 22.808 98.6037 22.808C98.137 22.808 97.703 22.9293 97.3017 23.172C96.9097 23.4147 96.6017 23.7553 96.3777 24.194C96.1537 24.6233 96.065 25.1367 96.1117 25.734C96.065 26.3313 96.1583 26.854 96.3917 27.302C96.6343 27.7407 96.961 28.0813 97.3717 28.324C97.7917 28.5667 98.2397 28.688 98.7157 28.688C99.2663 28.688 99.7283 28.5573 100.102 28.296C100.475 28.0347 100.778 27.708 101.012 27.316L101.908 27.792C101.758 28.128 101.53 28.4407 101.222 28.73C100.914 29.01 100.545 29.2387 100.116 29.416C99.6957 29.584 99.229 29.668 98.7157 29.668ZM107.301 29.668C106.601 29.668 105.971 29.5 105.411 29.164C104.851 28.8187 104.408 28.352 104.081 27.764C103.764 27.1667 103.605 26.4947 103.605 25.748C103.605 24.992 103.764 24.32 104.081 23.732C104.408 23.144 104.846 22.682 105.397 22.346C105.957 22.0007 106.592 21.828 107.301 21.828C107.945 21.828 108.519 21.968 109.023 22.248C109.527 22.528 109.924 22.906 110.213 23.382L110.045 23.676V18.902H111.095V29.5H110.045V27.82L110.213 27.974C109.952 28.5153 109.56 28.9353 109.037 29.234C108.524 29.5233 107.945 29.668 107.301 29.668ZM107.357 28.618C107.861 28.618 108.314 28.492 108.715 28.24C109.126 27.988 109.448 27.6473 109.681 27.218C109.924 26.7793 110.045 26.2893 110.045 25.748C110.045 25.2067 109.924 24.7213 109.681 24.292C109.448 23.8533 109.126 23.508 108.715 23.256C108.314 23.004 107.861 22.878 107.357 22.878C106.862 22.878 106.414 23.004 106.013 23.256C105.612 23.508 105.294 23.8487 105.061 24.278C104.837 24.7073 104.725 25.1973 104.725 25.748C104.725 26.2893 104.837 26.7793 105.061 27.218C105.294 27.6473 105.607 27.988 105.999 28.24C106.4 28.492 106.853 28.618 107.357 28.618ZM113.251 29.5V21.996H114.301V29.5H113.251ZM113.251 20.61V19.07H114.301V20.61H113.251ZM119.88 29.668C119.143 29.668 118.494 29.4953 117.934 29.15C117.374 28.8047 116.935 28.338 116.618 27.75C116.301 27.1527 116.142 26.4807 116.142 25.734C116.142 24.9873 116.301 24.32 116.618 23.732C116.935 23.144 117.374 22.682 117.934 22.346C118.494 22.0007 119.143 21.828 119.88 21.828C120.347 21.828 120.785 21.912 121.196 22.08C121.607 22.248 121.971 22.4767 122.288 22.766C122.605 23.046 122.843 23.3727 123.002 23.746L122.05 24.236C121.863 23.8347 121.579 23.508 121.196 23.256C120.813 23.004 120.375 22.878 119.88 22.878C119.385 22.878 118.937 23.004 118.536 23.256C118.144 23.4987 117.831 23.8393 117.598 24.278C117.374 24.7073 117.262 25.1973 117.262 25.748C117.262 26.2893 117.374 26.7793 117.598 27.218C117.831 27.6473 118.144 27.988 118.536 28.24C118.937 28.492 119.385 28.618 119.88 28.618C120.375 28.618 120.809 28.492 121.182 28.24C121.565 27.988 121.854 27.652 122.05 27.232L123.002 27.75C122.843 28.114 122.605 28.4407 122.288 28.73C121.971 29.0193 121.607 29.248 121.196 29.416C120.785 29.584 120.347 29.668 119.88 29.668ZM126.878 29.668C126.402 29.668 125.977 29.5793 125.604 29.402C125.231 29.2153 124.937 28.9633 124.722 28.646C124.507 28.3287 124.4 27.9647 124.4 27.554C124.4 27.162 124.484 26.8073 124.652 26.49C124.82 26.1633 125.081 25.888 125.436 25.664C125.791 25.44 126.243 25.2813 126.794 25.188L129.734 24.698V25.65L127.046 26.098C126.505 26.1913 126.113 26.364 125.87 26.616C125.637 26.868 125.52 27.1667 125.52 27.512C125.52 27.848 125.651 28.1327 125.912 28.366C126.183 28.5993 126.528 28.716 126.948 28.716C127.461 28.716 127.909 28.6087 128.292 28.394C128.675 28.17 128.973 27.8713 129.188 27.498C129.403 27.1247 129.51 26.7093 129.51 26.252V24.348C129.51 23.9 129.347 23.536 129.02 23.256C128.693 22.976 128.269 22.836 127.746 22.836C127.289 22.836 126.887 22.9527 126.542 23.186C126.197 23.41 125.94 23.704 125.772 24.068L124.82 23.55C124.96 23.2327 125.179 22.9433 125.478 22.682C125.786 22.4207 126.136 22.2153 126.528 22.066C126.92 21.9073 127.326 21.828 127.746 21.828C128.297 21.828 128.782 21.9353 129.202 22.15C129.631 22.3647 129.963 22.6633 130.196 23.046C130.439 23.4193 130.56 23.8533 130.56 24.348V29.5H129.51V28.002L129.664 28.156C129.533 28.436 129.328 28.6927 129.048 28.926C128.777 29.15 128.455 29.332 128.082 29.472C127.718 29.6027 127.317 29.668 126.878 29.668ZM136.108 29.668C135.408 29.668 134.778 29.5 134.218 29.164C133.658 28.8187 133.214 28.352 132.888 27.764C132.57 27.1667 132.412 26.4947 132.412 25.748C132.412 24.992 132.57 24.32 132.888 23.732C133.214 23.144 133.653 22.682 134.204 22.346C134.764 22.0007 135.398 21.828 136.108 21.828C136.752 21.828 137.326 21.968 137.83 22.248C138.334 22.528 138.73 22.906 139.02 23.382L138.852 23.676V18.902H139.902V29.5H138.852V27.82L139.02 27.974C138.758 28.5153 138.366 28.9353 137.844 29.234C137.33 29.5233 136.752 29.668 136.108 29.668ZM136.164 28.618C136.668 28.618 137.12 28.492 137.522 28.24C137.932 27.988 138.254 27.6473 138.488 27.218C138.73 26.7793 138.852 26.2893 138.852 25.748C138.852 25.2067 138.73 24.7213 138.488 24.292C138.254 23.8533 137.932 23.508 137.522 23.256C137.12 23.004 136.668 22.878 136.164 22.878C135.669 22.878 135.221 23.004 134.82 23.256C134.418 23.508 134.101 23.8487 133.868 24.278C133.644 24.7073 133.532 25.1973 133.532 25.748C133.532 26.2893 133.644 26.7793 133.868 27.218C134.101 27.6473 134.414 27.988 134.806 28.24C135.207 28.492 135.66 28.618 136.164 28.618ZM145.571 29.668C144.862 29.668 144.218 29.5 143.639 29.164C143.061 28.8187 142.599 28.352 142.253 27.764C141.917 27.1667 141.749 26.49 141.749 25.734C141.749 24.9873 141.917 24.32 142.253 23.732C142.589 23.144 143.042 22.682 143.611 22.346C144.19 22.0007 144.843 21.828 145.571 21.828C146.299 21.828 146.948 21.996 147.517 22.332C148.096 22.668 148.549 23.13 148.875 23.718C149.211 24.306 149.379 24.978 149.379 25.734C149.379 26.4993 149.207 27.1807 148.861 27.778C148.516 28.366 148.054 28.828 147.475 29.164C146.906 29.5 146.271 29.668 145.571 29.668ZM145.571 28.618C146.075 28.618 146.528 28.492 146.929 28.24C147.34 27.988 147.662 27.6427 147.895 27.204C148.138 26.7653 148.259 26.2753 148.259 25.734C148.259 25.1927 148.138 24.7073 147.895 24.278C147.662 23.8487 147.34 23.508 146.929 23.256C146.528 23.004 146.075 22.878 145.571 22.878C145.067 22.878 144.61 23.004 144.199 23.256C143.798 23.508 143.476 23.8487 143.233 24.278C142.991 24.7073 142.869 25.1927 142.869 25.734C142.869 26.2753 142.991 26.7653 143.233 27.204C143.476 27.6427 143.798 27.988 144.199 28.24C144.61 28.492 145.067 28.618 145.571 28.618ZM153.344 29.5V28.8L156.256 25.594C156.826 24.9687 157.288 24.4507 157.642 24.04C158.006 23.6293 158.277 23.256 158.454 22.92C158.632 22.584 158.72 22.22 158.72 21.828C158.72 21.2027 158.538 20.722 158.174 20.386C157.81 20.05 157.325 19.882 156.718 19.882C156.093 19.882 155.566 20.0593 155.136 20.414C154.716 20.7687 154.432 21.2633 154.282 21.898L153.26 21.674C153.382 21.1047 153.601 20.6147 153.918 20.204C154.236 19.7933 154.632 19.476 155.108 19.252C155.584 19.0187 156.116 18.902 156.704 18.902C157.33 18.902 157.876 19.028 158.342 19.28C158.809 19.532 159.173 19.8773 159.434 20.316C159.705 20.7547 159.84 21.2587 159.84 21.828C159.84 22.22 159.756 22.598 159.588 22.962C159.43 23.326 159.187 23.718 158.86 24.138C158.534 24.558 158.114 25.048 157.6 25.608L154.954 28.52H160.12V29.5H153.344ZM166.74 29.5V27.036H161.434V26.126L166.74 19.07H167.72V26.126H168.994V27.036H167.72V29.5H166.74ZM162.288 26.532L162.162 26.126H166.74V20.036L167.09 20.134L162.288 26.532ZM170.686 29.5V18.902H171.736V23.452L171.498 23.396C171.685 22.9107 171.988 22.528 172.408 22.248C172.838 21.968 173.332 21.828 173.892 21.828C174.424 21.828 174.9 21.9493 175.32 22.192C175.75 22.4347 176.086 22.7707 176.328 23.2C176.58 23.62 176.706 24.096 176.706 24.628V29.5H175.656V25.034C175.656 24.5767 175.572 24.1893 175.404 23.872C175.236 23.5547 175.003 23.312 174.704 23.144C174.415 22.9667 174.084 22.878 173.71 22.878C173.337 22.878 173.001 22.9667 172.702 23.144C172.404 23.312 172.166 23.5593 171.988 23.886C171.82 24.2033 171.736 24.586 171.736 25.034V29.5H170.686Z" fill="white"/>
</g>
<defs>
<filter id="filter1_d_365_653" x="24.1362" y="18.902" width="156.57" height="27.3981" filterUnits="userSpaceOnUse" color-interpolation-filters="sRGB">
<feFlood flood-opacity="0" result="BackgroundImageFix"/>
<feColorMatrix in="SourceAlpha" type="matrix" values="0 0 0 0 0 0 0 0 0 0 0 0 0 0 0 0 0 0 127 0" result="hardAlpha"/>
<feOffset dy="10"/>
<feGaussianBlur stdDeviation="2"/>
<feComposite in2="hardAlpha" operator="out"/>
<feColorMatrix type="matrix" values="0 0 0 0 0 0 0 0 0 0 0 0 0 0 0 0 0 0 0.25 0"/>
<feBlend mode="normal" in2="BackgroundImageFix" result="effect1_dropShadow_365_653"/>
<feBlend mode="normal" in="SourceGraphic" in2="effect1_dropShadow_365_653" result="shape"/>
</filter>
<linearGradient id="paint0_linear_365_653" x1="1" y1="23.5" x2="218.2" y2="7.34457" gradientUnits="userSpaceOnUse">
<stop stop-color="#14A3A3"/>
<stop offset="0.501475" stop-color="white"/>
<stop offset="1" stop-color="#0D6549"/>
</linearGradient>
</defs>
</svg>
