<svg width="205" height="47" viewBox="0 0 205 47" fill="none" xmlns="http://www.w3.org/2000/svg">
<rect x="0.5" y="0.5" width="204" height="46" rx="15.5" fill="#D9D9D9" fill-opacity="0.15"/>
<rect x="0.5" y="0.5" width="204" height="46" rx="15.5" stroke="url(#paint0_linear_365_657)"/>
<g filter="url(#filter1_d_365_657)">
<path d="M16.1568 29.5V19.07H19.7408C20.4221 19.07 21.0195 19.2053 21.5328 19.476C22.0461 19.7373 22.4428 20.1107 22.7228 20.596C23.0121 21.072 23.1568 21.6273 23.1568 22.262C23.1568 22.8967 23.0121 23.452 22.7228 23.928C22.4428 24.404 22.0461 24.7773 21.5328 25.048C21.0288 25.3093 20.4315 25.44 19.7408 25.44H17.2768V29.5H16.1568ZM17.2768 24.39H19.7968C20.2448 24.39 20.6368 24.306 20.9728 24.138C21.3088 23.9607 21.5701 23.7133 21.7568 23.396C21.9435 23.0693 22.0368 22.6867 22.0368 22.248C22.0368 21.8093 21.9435 21.4313 21.7568 21.114C21.5701 20.7967 21.3088 20.554 20.9728 20.386C20.6368 20.2087 20.2448 20.12 19.7968 20.12H17.2768V24.39ZM28.1415 29.668C27.4415 29.668 26.8068 29.5 26.2375 29.164C25.6775 28.8187 25.2341 28.3473 24.9075 27.75C24.5808 27.1527 24.4175 26.476 24.4175 25.72C24.4175 24.964 24.5761 24.2967 24.8935 23.718C25.2108 23.13 25.6401 22.668 26.1815 22.332C26.7321 21.996 27.3481 21.828 28.0295 21.828C28.5708 21.828 29.0515 21.9307 29.4715 22.136C29.9008 22.332 30.2648 22.6027 30.5635 22.948C30.8621 23.284 31.0908 23.6667 31.2495 24.096C31.4081 24.516 31.4875 24.95 31.4875 25.398C31.4875 25.4913 31.4828 25.5987 31.4735 25.72C31.4641 25.832 31.4501 25.9487 31.4315 26.07H25.0895V25.09H30.8295L30.3255 25.51C30.4095 24.9967 30.3488 24.5393 30.1435 24.138C29.9475 23.7273 29.6628 23.4053 29.2895 23.172C28.9161 22.9293 28.4961 22.808 28.0295 22.808C27.5628 22.808 27.1288 22.9293 26.7275 23.172C26.3355 23.4147 26.0275 23.7553 25.8035 24.194C25.5795 24.6233 25.4908 25.1367 25.5375 25.734C25.4908 26.3313 25.5841 26.854 25.8175 27.302C26.0601 27.7407 26.3868 28.0813 26.7975 28.324C27.2175 28.5667 27.6655 28.688 28.1415 28.688C28.6921 28.688 29.1541 28.5573 29.5275 28.296C29.9008 28.0347 30.2041 27.708 30.4375 27.316L31.3335 27.792C31.1841 28.128 30.9555 28.4407 30.6475 28.73C30.3395 29.01 29.9708 29.2387 29.5415 29.416C29.1215 29.584 28.6548 29.668 28.1415 29.668ZM33.3387 29.5V21.996H34.3887V23.228L34.2487 23.046C34.4261 22.6913 34.6921 22.4113 35.0467 22.206C35.4107 22.0007 35.8494 21.898 36.3627 21.898H36.8387V22.948H36.1807C35.6394 22.948 35.2054 23.116 34.8787 23.452C34.5521 23.788 34.3887 24.264 34.3887 24.88V29.5H33.3387ZM38.8392 29.5V23.046H37.3412V21.996H38.8392V21.324C38.8392 20.8013 38.9559 20.3627 39.1892 20.008C39.4225 19.644 39.7305 19.3687 40.1132 19.182C40.4959 18.9953 40.9065 18.902 41.3452 18.902C41.4385 18.902 41.5459 18.9113 41.6672 18.93C41.7885 18.9393 41.8865 18.9533 41.9612 18.972V19.924C41.8959 19.9053 41.8072 19.896 41.6952 19.896C41.5832 19.8867 41.5039 19.882 41.4572 19.882C41.0092 19.882 40.6359 19.9893 40.3372 20.204C40.0385 20.4187 39.8892 20.792 39.8892 21.324V21.996H41.7232V23.046H39.8892V29.5H38.8392ZM46.6555 29.668C45.9461 29.668 45.3021 29.5 44.7235 29.164C44.1448 28.8187 43.6828 28.352 43.3375 27.764C43.0015 27.1667 42.8335 26.49 42.8335 25.734C42.8335 24.9873 43.0015 24.32 43.3375 23.732C43.6735 23.144 44.1261 22.682 44.6955 22.346C45.2741 22.0007 45.9275 21.828 46.6555 21.828C47.3835 21.828 48.0321 21.996 48.6015 22.332C49.1801 22.668 49.6328 23.13 49.9595 23.718C50.2955 24.306 50.4635 24.978 50.4635 25.734C50.4635 26.4993 50.2908 27.1807 49.9455 27.778C49.6001 28.366 49.1381 28.828 48.5595 29.164C47.9901 29.5 47.3555 29.668 46.6555 29.668ZM46.6555 28.618C47.1595 28.618 47.6121 28.492 48.0135 28.24C48.4241 27.988 48.7461 27.6427 48.9795 27.204C49.2221 26.7653 49.3435 26.2753 49.3435 25.734C49.3435 25.1927 49.2221 24.7073 48.9795 24.278C48.7461 23.8487 48.4241 23.508 48.0135 23.256C47.6121 23.004 47.1595 22.878 46.6555 22.878C46.1515 22.878 45.6941 23.004 45.2835 23.256C44.8821 23.508 44.5601 23.8487 44.3175 24.278C44.0748 24.7073 43.9535 25.1927 43.9535 25.734C43.9535 26.2753 44.0748 26.7653 44.3175 27.204C44.5601 27.6427 44.8821 27.988 45.2835 28.24C45.6941 28.492 46.1515 28.618 46.6555 28.618ZM52.3153 29.5V21.996H53.3653V23.228L53.2253 23.046C53.4026 22.6913 53.6686 22.4113 54.0233 22.206C54.3873 22.0007 54.826 21.898 55.3393 21.898H55.8153V22.948H55.1573C54.616 22.948 54.182 23.116 53.8553 23.452C53.5286 23.788 53.3653 24.264 53.3653 24.88V29.5H52.3153ZM57.0458 29.5V21.996H58.0958V23.424L57.9278 23.214C58.1331 22.7753 58.4364 22.4347 58.8378 22.192C59.2484 21.9493 59.6964 21.828 60.1818 21.828C60.7604 21.828 61.2831 21.9913 61.7498 22.318C62.2164 22.6447 62.5478 23.0693 62.7438 23.592L62.4498 23.606C62.6364 23.0273 62.9584 22.5887 63.4158 22.29C63.8824 21.982 64.3958 21.828 64.9558 21.828C65.4598 21.828 65.9218 21.9493 66.3418 22.192C66.7711 22.4347 67.1118 22.7707 67.3638 23.2C67.6251 23.62 67.7558 24.096 67.7558 24.628V29.5H66.7058V25.034C66.7058 24.5767 66.6218 24.1893 66.4538 23.872C66.2951 23.5547 66.0758 23.312 65.7958 23.144C65.5158 22.9667 65.1938 22.878 64.8298 22.878C64.4751 22.878 64.1531 22.9667 63.8638 23.144C63.5744 23.312 63.3458 23.5593 63.1778 23.886C63.0098 24.2033 62.9258 24.586 62.9258 25.034V29.5H61.8758V25.034C61.8758 24.5767 61.7918 24.1893 61.6238 23.872C61.4651 23.5547 61.2458 23.312 60.9658 23.144C60.6858 22.9667 60.3638 22.878 59.9998 22.878C59.6358 22.878 59.3091 22.9667 59.0198 23.144C58.7398 23.312 58.5158 23.5593 58.3478 23.886C58.1798 24.2033 58.0958 24.586 58.0958 25.034V29.5H57.0458ZM71.9306 29.668C71.4546 29.668 71.03 29.5793 70.6566 29.402C70.2833 29.2153 69.9893 28.9633 69.7746 28.646C69.56 28.3287 69.4526 27.9647 69.4526 27.554C69.4526 27.162 69.5366 26.8073 69.7046 26.49C69.8726 26.1633 70.134 25.888 70.4886 25.664C70.8433 25.44 71.296 25.2813 71.8466 25.188L74.7866 24.698V25.65L72.0986 26.098C71.5573 26.1913 71.1653 26.364 70.9226 26.616C70.6893 26.868 70.5726 27.1667 70.5726 27.512C70.5726 27.848 70.7033 28.1327 70.9646 28.366C71.2353 28.5993 71.5806 28.716 72.0006 28.716C72.514 28.716 72.962 28.6087 73.3446 28.394C73.7273 28.17 74.026 27.8713 74.2406 27.498C74.4553 27.1247 74.5626 26.7093 74.5626 26.252V24.348C74.5626 23.9 74.3993 23.536 74.0726 23.256C73.746 22.976 73.3213 22.836 72.7986 22.836C72.3413 22.836 71.94 22.9527 71.5946 23.186C71.2493 23.41 70.9926 23.704 70.8246 24.068L69.8726 23.55C70.0126 23.2327 70.232 22.9433 70.5306 22.682C70.8386 22.4207 71.1886 22.2153 71.5806 22.066C71.9726 21.9073 72.3786 21.828 72.7986 21.828C73.3493 21.828 73.8346 21.9353 74.2546 22.15C74.684 22.3647 75.0153 22.6633 75.2486 23.046C75.4913 23.4193 75.6126 23.8533 75.6126 24.348V29.5H74.5626V28.002L74.7166 28.156C74.586 28.436 74.3806 28.6927 74.1006 28.926C73.83 29.15 73.508 29.332 73.1346 29.472C72.7706 29.6027 72.3693 29.668 71.9306 29.668ZM77.7723 29.5V21.996H78.8223V23.452L78.5843 23.396C78.771 22.9107 79.0743 22.528 79.4943 22.248C79.9237 21.968 80.4183 21.828 80.9783 21.828C81.5103 21.828 81.9863 21.9493 82.4063 22.192C82.8357 22.4347 83.1717 22.7707 83.4143 23.2C83.6663 23.62 83.7923 24.096 83.7923 24.628V29.5H82.7423V25.034C82.7423 24.5767 82.6583 24.1893 82.4903 23.872C82.3317 23.5547 82.103 23.312 81.8043 23.144C81.515 22.9667 81.179 22.878 80.7963 22.878C80.4137 22.878 80.073 22.9667 79.7743 23.144C79.4757 23.312 79.2423 23.5593 79.0743 23.886C78.9063 24.2033 78.8223 24.586 78.8223 25.034V29.5H77.7723ZM89.2277 29.668C88.4904 29.668 87.8417 29.4953 87.2817 29.15C86.7217 28.8047 86.2831 28.338 85.9657 27.75C85.6484 27.1527 85.4897 26.4807 85.4897 25.734C85.4897 24.9873 85.6484 24.32 85.9657 23.732C86.2831 23.144 86.7217 22.682 87.2817 22.346C87.8417 22.0007 88.4904 21.828 89.2277 21.828C89.6944 21.828 90.1331 21.912 90.5437 22.08C90.9544 22.248 91.3184 22.4767 91.6357 22.766C91.9531 23.046 92.1911 23.3727 92.3497 23.746L91.3977 24.236C91.2111 23.8347 90.9264 23.508 90.5437 23.256C90.1611 23.004 89.7224 22.878 89.2277 22.878C88.7331 22.878 88.2851 23.004 87.8837 23.256C87.4917 23.4987 87.1791 23.8393 86.9457 24.278C86.7217 24.7073 86.6097 25.1973 86.6097 25.748C86.6097 26.2893 86.7217 26.7793 86.9457 27.218C87.1791 27.6473 87.4917 27.988 87.8837 28.24C88.2851 28.492 88.7331 28.618 89.2277 28.618C89.7224 28.618 90.1564 28.492 90.5297 28.24C90.9124 27.988 91.2017 27.652 91.3977 27.232L92.3497 27.75C92.1911 28.114 91.9531 28.4407 91.6357 28.73C91.3184 29.0193 90.9544 29.248 90.5437 29.416C90.1331 29.584 89.6944 29.668 89.2277 29.668ZM97.6083 29.668C96.9083 29.668 96.2736 29.5 95.7043 29.164C95.1443 28.8187 94.7009 28.3473 94.3743 27.75C94.0476 27.1527 93.8843 26.476 93.8843 25.72C93.8843 24.964 94.0429 24.2967 94.3603 23.718C94.6776 23.13 95.1069 22.668 95.6483 22.332C96.1989 21.996 96.8149 21.828 97.4963 21.828C98.0376 21.828 98.5183 21.9307 98.9383 22.136C99.3676 22.332 99.7316 22.6027 100.03 22.948C100.329 23.284 100.558 23.6667 100.716 24.096C100.875 24.516 100.954 24.95 100.954 25.398C100.954 25.4913 100.95 25.5987 100.94 25.72C100.931 25.832 100.917 25.9487 100.898 26.07H94.5563V25.09H100.296L99.7923 25.51C99.8763 24.9967 99.8156 24.5393 99.6103 24.138C99.4143 23.7273 99.1296 23.4053 98.7563 23.172C98.3829 22.9293 97.9629 22.808 97.4963 22.808C97.0296 22.808 96.5956 22.9293 96.1943 23.172C95.8023 23.4147 95.4943 23.7553 95.2703 24.194C95.0463 24.6233 94.9576 25.1367 95.0043 25.734C94.9576 26.3313 95.0509 26.854 95.2843 27.302C95.5269 27.7407 95.8536 28.0813 96.2643 28.324C96.6843 28.5667 97.1323 28.688 97.6083 28.688C98.1589 28.688 98.6209 28.5573 98.9943 28.296C99.3676 28.0347 99.6709 27.708 99.9043 27.316L100.8 27.792C100.651 28.128 100.422 28.4407 100.114 28.73C99.8063 29.01 99.4376 29.2387 99.0083 29.416C98.5883 29.584 98.1216 29.668 97.6083 29.668ZM108.6 29.668C107.9 29.668 107.266 29.5 106.696 29.164C106.136 28.8187 105.693 28.3473 105.366 27.75C105.04 27.1527 104.876 26.476 104.876 25.72C104.876 24.964 105.035 24.2967 105.352 23.718C105.67 23.13 106.099 22.668 106.64 22.332C107.191 21.996 107.807 21.828 108.488 21.828C109.03 21.828 109.51 21.9307 109.93 22.136C110.36 22.332 110.724 22.6027 111.022 22.948C111.321 23.284 111.55 23.6667 111.708 24.096C111.867 24.516 111.946 24.95 111.946 25.398C111.946 25.4913 111.942 25.5987 111.932 25.72C111.923 25.832 111.909 25.9487 111.89 26.07H105.548V25.09H111.288L110.784 25.51C110.868 24.9967 110.808 24.5393 110.602 24.138C110.406 23.7273 110.122 23.4053 109.748 23.172C109.375 22.9293 108.955 22.808 108.488 22.808C108.022 22.808 107.588 22.9293 107.186 23.172C106.794 23.4147 106.486 23.7553 106.262 24.194C106.038 24.6233 105.95 25.1367 105.996 25.734C105.95 26.3313 106.043 26.854 106.276 27.302C106.519 27.7407 106.846 28.0813 107.256 28.324C107.676 28.5667 108.124 28.688 108.6 28.688C109.151 28.688 109.613 28.5573 109.986 28.296C110.36 28.0347 110.663 27.708 110.896 27.316L111.792 27.792C111.643 28.128 111.414 28.4407 111.106 28.73C110.798 29.01 110.43 29.2387 110 29.416C109.58 29.584 109.114 29.668 108.6 29.668ZM118.179 29.5L115.253 21.996H116.429L118.893 28.576H118.515L120.993 21.996H122.183L119.229 29.5H118.179ZM126.688 29.668C125.988 29.668 125.354 29.5 124.784 29.164C124.224 28.8187 123.781 28.3473 123.454 27.75C123.128 27.1527 122.964 26.476 122.964 25.72C122.964 24.964 123.123 24.2967 123.44 23.718C123.758 23.13 124.187 22.668 124.728 22.332C125.279 21.996 125.895 21.828 126.576 21.828C127.118 21.828 127.598 21.9307 128.018 22.136C128.448 22.332 128.812 22.6027 129.11 22.948C129.409 23.284 129.638 23.6667 129.796 24.096C129.955 24.516 130.034 24.95 130.034 25.398C130.034 25.4913 130.03 25.5987 130.02 25.72C130.011 25.832 129.997 25.9487 129.978 26.07H123.636V25.09H129.376L128.872 25.51C128.956 24.9967 128.896 24.5393 128.69 24.138C128.494 23.7273 128.21 23.4053 127.836 23.172C127.463 22.9293 127.043 22.808 126.576 22.808C126.11 22.808 125.676 22.9293 125.274 23.172C124.882 23.4147 124.574 23.7553 124.35 24.194C124.126 24.6233 124.038 25.1367 124.084 25.734C124.038 26.3313 124.131 26.854 124.364 27.302C124.607 27.7407 124.934 28.0813 125.344 28.324C125.764 28.5667 126.212 28.688 126.688 28.688C127.239 28.688 127.701 28.5573 128.074 28.296C128.448 28.0347 128.751 27.708 128.984 27.316L129.88 27.792C129.731 28.128 129.502 28.4407 129.194 28.73C128.886 29.01 128.518 29.2387 128.088 29.416C127.668 29.584 127.202 29.668 126.688 29.668ZM131.886 29.5V18.902H132.936V29.5H131.886ZM138.599 29.668C137.89 29.668 137.246 29.5 136.667 29.164C136.088 28.8187 135.626 28.352 135.281 27.764C134.945 27.1667 134.777 26.49 134.777 25.734C134.777 24.9873 134.945 24.32 135.281 23.732C135.617 23.144 136.07 22.682 136.639 22.346C137.218 22.0007 137.871 21.828 138.599 21.828C139.327 21.828 139.976 21.996 140.545 22.332C141.124 22.668 141.576 23.13 141.903 23.718C142.239 24.306 142.407 24.978 142.407 25.734C142.407 26.4993 142.234 27.1807 141.889 27.778C141.544 28.366 141.082 28.828 140.503 29.164C139.934 29.5 139.299 29.668 138.599 29.668ZM138.599 28.618C139.103 28.618 139.556 28.492 139.957 28.24C140.368 27.988 140.69 27.6427 140.923 27.204C141.166 26.7653 141.287 26.2753 141.287 25.734C141.287 25.1927 141.166 24.7073 140.923 24.278C140.69 23.8487 140.368 23.508 139.957 23.256C139.556 23.004 139.103 22.878 138.599 22.878C138.095 22.878 137.638 23.004 137.227 23.256C136.826 23.508 136.504 23.8487 136.261 24.278C136.018 24.7073 135.897 25.1927 135.897 25.734C135.897 26.2753 136.018 26.7653 136.261 27.204C136.504 27.6427 136.826 27.988 137.227 28.24C137.638 28.492 138.095 28.618 138.599 28.618ZM147.689 29.668C146.951 29.668 146.303 29.4953 145.743 29.15C145.183 28.8047 144.744 28.338 144.427 27.75C144.109 27.1527 143.951 26.4807 143.951 25.734C143.951 24.9873 144.109 24.32 144.427 23.732C144.744 23.144 145.183 22.682 145.743 22.346C146.303 22.0007 146.951 21.828 147.689 21.828C148.155 21.828 148.594 21.912 149.005 22.08C149.415 22.248 149.779 22.4767 150.097 22.766C150.414 23.046 150.652 23.3727 150.811 23.746L149.859 24.236C149.672 23.8347 149.387 23.508 149.005 23.256C148.622 23.004 148.183 22.878 147.689 22.878C147.194 22.878 146.746 23.004 146.345 23.256C145.953 23.4987 145.64 23.8393 145.407 24.278C145.183 24.7073 145.071 25.1973 145.071 25.748C145.071 26.2893 145.183 26.7793 145.407 27.218C145.64 27.6473 145.953 27.988 146.345 28.24C146.746 28.492 147.194 28.618 147.689 28.618C148.183 28.618 148.617 28.492 148.991 28.24C149.373 27.988 149.663 27.652 149.859 27.232L150.811 27.75C150.652 28.114 150.414 28.4407 150.097 28.73C149.779 29.0193 149.415 29.248 149.005 29.416C148.594 29.584 148.155 29.668 147.689 29.668ZM152.653 29.5V21.996H153.703V29.5H152.653ZM152.653 20.61V19.07H153.703V20.61H152.653ZM159.24 29.668C158.54 29.668 157.91 29.5 157.35 29.164C156.79 28.8187 156.347 28.352 156.02 27.764C155.703 27.1667 155.544 26.4947 155.544 25.748C155.544 24.992 155.703 24.32 156.02 23.732C156.347 23.144 156.786 22.682 157.336 22.346C157.896 22.0007 158.531 21.828 159.24 21.828C159.884 21.828 160.458 21.968 160.962 22.248C161.466 22.528 161.863 22.906 162.152 23.382L161.984 23.676V18.902H163.034V29.5H161.984V27.82L162.152 27.974C161.891 28.5153 161.499 28.9353 160.976 29.234C160.463 29.5233 159.884 29.668 159.24 29.668ZM159.296 28.618C159.8 28.618 160.253 28.492 160.654 28.24C161.065 27.988 161.387 27.6473 161.62 27.218C161.863 26.7793 161.984 26.2893 161.984 25.748C161.984 25.2067 161.863 24.7213 161.62 24.292C161.387 23.8533 161.065 23.508 160.654 23.256C160.253 23.004 159.8 22.878 159.296 22.878C158.802 22.878 158.354 23.004 157.952 23.256C157.551 23.508 157.234 23.8487 157 24.278C156.776 24.7073 156.664 25.1973 156.664 25.748C156.664 26.2893 156.776 26.7793 157 27.218C157.234 27.6473 157.546 27.988 157.938 28.24C158.34 28.492 158.792 28.618 159.296 28.618ZM167.36 29.668C166.884 29.668 166.46 29.5793 166.086 29.402C165.713 29.2153 165.419 28.9633 165.204 28.646C164.99 28.3287 164.882 27.9647 164.882 27.554C164.882 27.162 164.966 26.8073 165.134 26.49C165.302 26.1633 165.564 25.888 165.918 25.664C166.273 25.44 166.726 25.2813 167.276 25.188L170.216 24.698V25.65L167.528 26.098C166.987 26.1913 166.595 26.364 166.352 26.616C166.119 26.868 166.002 27.1667 166.002 27.512C166.002 27.848 166.133 28.1327 166.394 28.366C166.665 28.5993 167.01 28.716 167.43 28.716C167.944 28.716 168.392 28.6087 168.774 28.394C169.157 28.17 169.456 27.8713 169.67 27.498C169.885 27.1247 169.992 26.7093 169.992 26.252V24.348C169.992 23.9 169.829 23.536 169.502 23.256C169.176 22.976 168.751 22.836 168.228 22.836C167.771 22.836 167.37 22.9527 167.024 23.186C166.679 23.41 166.422 23.704 166.254 24.068L165.302 23.55C165.442 23.2327 165.662 22.9433 165.96 22.682C166.268 22.4207 166.618 22.2153 167.01 22.066C167.402 21.9073 167.808 21.828 168.228 21.828C168.779 21.828 169.264 21.9353 169.684 22.15C170.114 22.3647 170.445 22.6633 170.678 23.046C170.921 23.4193 171.042 23.8533 171.042 24.348V29.5H169.992V28.002L170.146 28.156C170.016 28.436 169.81 28.6927 169.53 28.926C169.26 29.15 168.938 29.332 168.564 29.472C168.2 29.6027 167.799 29.668 167.36 29.668ZM176.59 29.668C175.89 29.668 175.26 29.5 174.7 29.164C174.14 28.8187 173.697 28.352 173.37 27.764C173.053 27.1667 172.894 26.4947 172.894 25.748C172.894 24.992 173.053 24.32 173.37 23.732C173.697 23.144 174.135 22.682 174.686 22.346C175.246 22.0007 175.881 21.828 176.59 21.828C177.234 21.828 177.808 21.968 178.312 22.248C178.816 22.528 179.213 22.906 179.502 23.382L179.334 23.676V18.902H180.384V29.5H179.334V27.82L179.502 27.974C179.241 28.5153 178.849 28.9353 178.326 29.234C177.813 29.5233 177.234 29.668 176.59 29.668ZM176.646 28.618C177.15 28.618 177.603 28.492 178.004 28.24C178.415 27.988 178.737 27.6473 178.97 27.218C179.213 26.7793 179.334 26.2893 179.334 25.748C179.334 25.2067 179.213 24.7213 178.97 24.292C178.737 23.8533 178.415 23.508 178.004 23.256C177.603 23.004 177.15 22.878 176.646 22.878C176.151 22.878 175.703 23.004 175.302 23.256C174.901 23.508 174.583 23.8487 174.35 24.278C174.126 24.7073 174.014 25.1973 174.014 25.748C174.014 26.2893 174.126 26.7793 174.35 27.218C174.583 27.6473 174.896 27.988 175.288 28.24C175.689 28.492 176.142 28.618 176.646 28.618ZM185.956 29.668C185.256 29.668 184.621 29.5 184.052 29.164C183.492 28.8187 183.049 28.3473 182.722 27.75C182.395 27.1527 182.232 26.476 182.232 25.72C182.232 24.964 182.391 24.2967 182.708 23.718C183.025 23.13 183.455 22.668 183.996 22.332C184.547 21.996 185.163 21.828 185.844 21.828C186.385 21.828 186.866 21.9307 187.286 22.136C187.715 22.332 188.079 22.6027 188.378 22.948C188.677 23.284 188.905 23.6667 189.064 24.096C189.223 24.516 189.302 24.95 189.302 25.398C189.302 25.4913 189.297 25.5987 189.288 25.72C189.279 25.832 189.265 25.9487 189.246 26.07H182.904V25.09H188.644L188.14 25.51C188.224 24.9967 188.163 24.5393 187.958 24.138C187.762 23.7273 187.477 23.4053 187.104 23.172C186.731 22.9293 186.311 22.808 185.844 22.808C185.377 22.808 184.943 22.9293 184.542 23.172C184.15 23.4147 183.842 23.7553 183.618 24.194C183.394 24.6233 183.305 25.1367 183.352 25.734C183.305 26.3313 183.399 26.854 183.632 27.302C183.875 27.7407 184.201 28.0813 184.612 28.324C185.032 28.5667 185.48 28.688 185.956 28.688C186.507 28.688 186.969 28.5573 187.342 28.296C187.715 28.0347 188.019 27.708 188.252 27.316L189.148 27.792C188.999 28.128 188.77 28.4407 188.462 28.73C188.154 29.01 187.785 29.2387 187.356 29.416C186.936 29.584 186.469 29.668 185.956 29.668Z" fill="white"/>
</g>
<defs>
<filter id="filter1_d_365_657" x="12.1567" y="18.902" width="181.145" height="24.766" filterUnits="userSpaceOnUse" color-interpolation-filters="sRGB">
<feFlood flood-opacity="0" result="BackgroundImageFix"/>
<feColorMatrix in="SourceAlpha" type="matrix" values="0 0 0 0 0 0 0 0 0 0 0 0 0 0 0 0 0 0 127 0" result="hardAlpha"/>
<feOffset dy="10"/>
<feGaussianBlur stdDeviation="2"/>
<feComposite in2="hardAlpha" operator="out"/>
<feColorMatrix type="matrix" values="0 0 0 0 0 0 0 0 0 0 0 0 0 0 0 0 0 0 0.25 0"/>
<feBlend mode="normal" in2="BackgroundImageFix" result="effect1_dropShadow_365_657"/>
<feBlend mode="normal" in="SourceGraphic" in2="effect1_dropShadow_365_657" result="shape"/>
</filter>
<linearGradient id="paint0_linear_365_657" x1="1" y1="23.5" x2="218.2" y2="7.34457" gradientUnits="userSpaceOnUse">
<stop stop-color="#14A3A3"/>
<stop offset="0.501475" stop-color="white"/>
<stop offset="1" stop-color="#0D6549"/>
</linearGradient>
</defs>
</svg>
